G04 #@! TF.GenerationSoftware,KiCad,Pcbnew,(5.1.4)-1*
G04 #@! TF.CreationDate,2019-12-11T13:43:37-06:00*
G04 #@! TF.ProjectId,Rover_Controller,526f7665-725f-4436-9f6e-74726f6c6c65,rev?*
G04 #@! TF.SameCoordinates,Original*
G04 #@! TF.FileFunction,Copper,L2,Bot*
G04 #@! TF.FilePolarity,Positive*
%FSLAX46Y46*%
G04 Gerber Fmt 4.6, Leading zero omitted, Abs format (unit mm)*
G04 Created by KiCad (PCBNEW (5.1.4)-1) date 2019-12-11 13:43:37*
%MOMM*%
%LPD*%
G04 APERTURE LIST*
%ADD10O,1.750000X3.300001*%
%ADD11O,1.700000X1.700000*%
%ADD12R,1.700000X1.700000*%
%ADD13C,3.000000*%
%ADD14O,1.800000X2.600000*%
%ADD15R,1.800000X2.600000*%
%ADD16C,1.778000*%
%ADD17C,2.286000*%
%ADD18R,1.050000X1.500000*%
%ADD19O,1.050000X1.500000*%
%ADD20C,1.524000*%
%ADD21R,1.346200X1.346200*%
%ADD22C,1.346200*%
%ADD23R,2.500000X1.500000*%
%ADD24O,2.500000X1.500000*%
%ADD25O,3.500000X2.200000*%
%ADD26C,0.800000*%
%ADD27C,0.381000*%
%ADD28C,0.254000*%
G04 APERTURE END LIST*
D10*
X168830000Y-81823200D03*
X168830000Y-68873200D03*
D11*
X95758000Y-56896000D03*
X98298000Y-56896000D03*
D12*
X100838000Y-56896000D03*
D13*
X182530000Y-55880000D03*
X182529480Y-86880700D03*
X107530900Y-86880700D03*
X107530900Y-55880000D03*
D14*
X151130000Y-55880000D03*
X148590000Y-55880000D03*
X146050000Y-55880000D03*
X143510000Y-55880000D03*
X140970000Y-55880000D03*
X138430000Y-55880000D03*
X135890000Y-55880000D03*
X133350000Y-55880000D03*
X130810000Y-55880000D03*
X128270000Y-55880000D03*
X125730000Y-55880000D03*
X123190000Y-55880000D03*
X120650000Y-55880000D03*
X118110000Y-55880000D03*
X115570000Y-55880000D03*
D15*
X113030000Y-55880000D03*
D16*
X202311000Y-93065600D03*
X195961000Y-93065600D03*
X195961000Y-98145600D03*
X202311000Y-98145600D03*
X188976000Y-103225600D03*
X188976000Y-108305600D03*
X188976000Y-105765600D03*
X196596000Y-115925600D03*
X199136000Y-115925600D03*
X201676000Y-115925600D03*
D17*
X191516000Y-112433100D03*
X206756000Y-112433100D03*
X206756000Y-99098100D03*
X191516000Y-99098100D03*
D18*
X175768000Y-109728000D03*
D19*
X178308000Y-109728000D03*
X177038000Y-109728000D03*
D16*
X93345000Y-74676000D03*
X86995000Y-74676000D03*
X86995000Y-79756000D03*
X93345000Y-79756000D03*
X80010000Y-84836000D03*
X80010000Y-89916000D03*
X80010000Y-87376000D03*
X87630000Y-97536000D03*
X90170000Y-97536000D03*
X92710000Y-97536000D03*
D17*
X82550000Y-94043500D03*
X97790000Y-94043500D03*
X97790000Y-80708500D03*
X82550000Y-80708500D03*
D20*
X146507200Y-96977200D03*
X146507200Y-119837200D03*
X143967200Y-96977200D03*
X143967200Y-119837200D03*
X141427200Y-96977200D03*
X141427200Y-119837200D03*
X138887200Y-96977200D03*
X138887200Y-119837200D03*
X136347200Y-96977200D03*
X136347200Y-119837200D03*
X133807200Y-96977200D03*
X133807200Y-119837200D03*
X131267200Y-96977200D03*
X131267200Y-119837200D03*
X128727200Y-96977200D03*
X128727200Y-119837200D03*
X126187200Y-96977200D03*
X126187200Y-119837200D03*
X123647200Y-96977200D03*
X123647200Y-119837200D03*
X121107200Y-96977200D03*
X121107200Y-119837200D03*
X118567200Y-96977200D03*
X118567200Y-119837200D03*
X116027200Y-96977200D03*
X116027200Y-119837200D03*
X113487200Y-96977200D03*
X113487200Y-119837200D03*
X110947200Y-96977200D03*
X110947200Y-119837200D03*
D21*
X158242000Y-110921800D03*
D22*
X160782000Y-108381800D03*
X163322000Y-110921800D03*
D23*
X199898000Y-60706000D03*
D24*
X199898000Y-58706000D03*
X199898000Y-56706000D03*
D25*
X199898000Y-62806000D03*
X199898000Y-54606000D03*
D26*
X119507000Y-74549000D03*
X121031000Y-75946000D03*
X122682000Y-78105000D03*
X165989000Y-104140000D03*
X168910000Y-94107000D03*
X163957000Y-93726000D03*
X96774000Y-65113000D03*
X98933000Y-63500000D03*
X169926000Y-107315000D03*
X167767000Y-109474000D03*
X172085000Y-103124000D03*
X204978000Y-77470000D03*
X210058000Y-77470000D03*
X161417000Y-102997000D03*
X141478000Y-112141000D03*
X161417000Y-101727000D03*
X143510000Y-111252000D03*
X161417000Y-100457000D03*
X145415000Y-110236000D03*
X161417000Y-99187000D03*
X147574000Y-109347000D03*
X136906000Y-94996000D03*
X135128000Y-85090000D03*
X138049000Y-93980000D03*
X135001000Y-83566000D03*
X176641890Y-97271710D03*
X176692690Y-98541710D03*
X103251000Y-72009000D03*
X156210000Y-95504000D03*
X153543000Y-96520000D03*
X156464000Y-96647000D03*
X153543000Y-97536000D03*
X185166000Y-76962000D03*
X186182000Y-76962000D03*
X187984000Y-80542000D03*
X191516000Y-76962000D03*
X189611000Y-61214000D03*
X191643000Y-61214000D03*
X154559000Y-94996000D03*
X157861000Y-80391000D03*
X161417000Y-96647000D03*
X176784000Y-95631000D03*
X185801000Y-96774000D03*
X194818000Y-63923400D03*
X210820000Y-67056000D03*
X172212000Y-111760000D03*
X84592000Y-54483000D03*
X152968000Y-92456000D03*
X193915000Y-71769000D03*
X206502000Y-70104000D03*
D27*
X125730000Y-56280000D02*
X125730000Y-55880000D01*
X118383020Y-63626980D02*
X125730000Y-56280000D01*
X118383020Y-73679020D02*
X118383020Y-63626980D01*
X118853001Y-74149001D02*
X118383020Y-73679020D01*
X119107001Y-74149001D02*
X118853001Y-74149001D01*
X119507000Y-74549000D02*
X119107001Y-74149001D01*
X123190000Y-56280000D02*
X123190000Y-55880000D01*
X117802010Y-61667990D02*
X123190000Y-56280000D01*
X117802010Y-74803000D02*
X117802010Y-61667990D01*
X118945010Y-75946000D02*
X117802010Y-74803000D01*
X121031000Y-75946000D02*
X118945010Y-75946000D01*
X120650000Y-56280000D02*
X120650000Y-55880000D01*
X117221000Y-59709000D02*
X120650000Y-56280000D01*
X117221000Y-77216000D02*
X117221000Y-59709000D01*
X118110000Y-78105000D02*
X117221000Y-77216000D01*
X122682000Y-78105000D02*
X118110000Y-78105000D01*
X161733907Y-108381800D02*
X165261970Y-104853737D01*
X160782000Y-108381800D02*
X161733907Y-108381800D01*
X165261970Y-104853737D02*
X165275263Y-104853737D01*
X165275263Y-104853737D02*
X165989000Y-104140000D01*
X165989000Y-104140000D02*
X165989000Y-104140000D01*
X168910000Y-94107000D02*
X168510001Y-93707001D01*
X168510001Y-93707001D02*
X168275000Y-93472000D01*
X168275000Y-93472000D02*
X164211000Y-93472000D01*
X164211000Y-93472000D02*
X163957000Y-93726000D01*
X163957000Y-93726000D02*
X163957000Y-93726000D01*
X97173999Y-64713001D02*
X97719999Y-64713001D01*
X96774000Y-65113000D02*
X97173999Y-64713001D01*
X97719999Y-64713001D02*
X98933000Y-63500000D01*
X98933000Y-63500000D02*
X98933000Y-63500000D01*
X169926000Y-107315000D02*
X169526001Y-107714999D01*
X169526001Y-107714999D02*
X167767000Y-109474000D01*
X167767000Y-109474000D02*
X167767000Y-109474000D01*
X172085000Y-105156000D02*
X169926000Y-107315000D01*
X172085000Y-103124000D02*
X172085000Y-105156000D01*
X204978000Y-77470000D02*
X210058000Y-77470000D01*
X210058000Y-77470000D02*
X210058000Y-77470000D01*
X161017001Y-103396999D02*
X156699001Y-103396999D01*
X161417000Y-102997000D02*
X161017001Y-103396999D01*
X156699001Y-103396999D02*
X147955000Y-112141000D01*
X147955000Y-112141000D02*
X144907000Y-112141000D01*
X144907000Y-112141000D02*
X144018000Y-112141000D01*
X144018000Y-112141000D02*
X141478000Y-112141000D01*
X141478000Y-112141000D02*
X141478000Y-112141000D01*
X160851315Y-101727000D02*
X159766000Y-102812315D01*
X161417000Y-101727000D02*
X160851315Y-101727000D01*
X159693011Y-102815989D02*
X156458338Y-102815990D01*
X159766000Y-102812315D02*
X159696685Y-102812315D01*
X159696685Y-102812315D02*
X159693011Y-102815989D01*
X156458338Y-102815990D02*
X154148164Y-105126164D01*
X154148164Y-105126164D02*
X148022328Y-111252000D01*
X148022328Y-111252000D02*
X145415000Y-111252000D01*
X145415000Y-111252000D02*
X143510000Y-111252000D01*
X143510000Y-111252000D02*
X143510000Y-111252000D01*
X160610653Y-101145990D02*
X159521663Y-102234980D01*
X161417000Y-100457000D02*
X160728010Y-101145990D01*
X160728010Y-101145990D02*
X160610653Y-101145990D01*
X159521663Y-102234980D02*
X156217675Y-102234981D01*
X156217675Y-102234981D02*
X148216656Y-110236000D01*
X148216656Y-110236000D02*
X146431000Y-110236000D01*
X146431000Y-110236000D02*
X145415000Y-110236000D01*
X145415000Y-110236000D02*
X145415000Y-110236000D01*
X158950028Y-101653972D02*
X156898972Y-101653972D01*
X161417000Y-99187000D02*
X158950028Y-101653972D01*
X155977012Y-101653972D02*
X148283984Y-109347000D01*
X156898972Y-101653972D02*
X155977012Y-101653972D01*
X148283984Y-109347000D02*
X147574000Y-109347000D01*
X147574000Y-109347000D02*
X147574000Y-109347000D01*
X136506001Y-94596001D02*
X136506001Y-93961001D01*
X136906000Y-94996000D02*
X136506001Y-94596001D01*
X136506001Y-93961001D02*
X136506001Y-86468001D01*
X136506001Y-86468001D02*
X135128000Y-85090000D01*
X135128000Y-85090000D02*
X135128000Y-85090000D01*
X137649001Y-93580001D02*
X137649001Y-86214001D01*
X138049000Y-93980000D02*
X137649001Y-93580001D01*
X137649001Y-86214001D02*
X135001000Y-83566000D01*
X135001000Y-83566000D02*
X135001000Y-83566000D01*
X143583010Y-117681390D02*
X141427200Y-119837200D01*
X170303810Y-117681390D02*
X143583010Y-117681390D01*
X173307390Y-114677810D02*
X170303810Y-117681390D01*
X173307390Y-108064938D02*
X173307390Y-114677810D01*
X176641890Y-97271710D02*
X176076205Y-97271710D01*
X175514000Y-97833915D02*
X175514000Y-98333043D01*
X176076205Y-97271710D02*
X175514000Y-97833915D01*
X175237790Y-98609253D02*
X175237790Y-106134538D01*
X175514000Y-98333043D02*
X175237790Y-98609253D01*
X175237790Y-106134538D02*
X173307390Y-108064938D01*
X145542000Y-118262400D02*
X143967200Y-119837200D01*
X170586400Y-118262400D02*
X145542000Y-118262400D01*
X176127005Y-98541710D02*
X175818800Y-98849915D01*
X176692690Y-98541710D02*
X176127005Y-98541710D01*
X175818800Y-98849915D02*
X175818800Y-106375200D01*
X175818800Y-106375200D02*
X173888400Y-108305600D01*
X173888400Y-108305600D02*
X173888400Y-114960400D01*
X173888400Y-114960400D02*
X170586400Y-118262400D01*
X143408400Y-122936000D02*
X146507200Y-119837200D01*
X110109000Y-122936000D02*
X143408400Y-122936000D01*
X107696000Y-120523000D02*
X110109000Y-122936000D01*
X107696000Y-97663000D02*
X107696000Y-120523000D01*
X103251000Y-72009000D02*
X103251000Y-93218000D01*
X103251000Y-93218000D02*
X107696000Y-97663000D01*
X155644315Y-95504000D02*
X154628315Y-96520000D01*
X156210000Y-95504000D02*
X155644315Y-95504000D01*
X154628315Y-96520000D02*
X153543000Y-96520000D01*
X153543000Y-96520000D02*
X153543000Y-96520000D01*
X154922988Y-97046999D02*
X154433987Y-97536000D01*
X156464000Y-96647000D02*
X156064001Y-97046999D01*
X156064001Y-97046999D02*
X154922988Y-97046999D01*
X154433987Y-97536000D02*
X153543000Y-97536000D01*
X153543000Y-97536000D02*
X153543000Y-97536000D01*
X142773400Y-90551000D02*
X136347200Y-96977200D01*
X184277000Y-90551000D02*
X142773400Y-90551000D01*
X185166000Y-76962000D02*
X185166000Y-89662000D01*
X185166000Y-89662000D02*
X184277000Y-90551000D01*
X144732390Y-91132010D02*
X138887200Y-96977200D01*
X184517662Y-91132010D02*
X144732390Y-91132010D01*
X185747009Y-89902663D02*
X184517662Y-91132010D01*
X185747010Y-77962675D02*
X185747009Y-89902663D01*
X186182000Y-76962000D02*
X186182000Y-77527685D01*
X186182000Y-77527685D02*
X185747010Y-77962675D01*
X138887200Y-105714800D02*
X138887200Y-119837200D01*
X142928990Y-101673010D02*
X138887200Y-105714800D01*
X146544662Y-101673010D02*
X142928990Y-101673010D01*
X155923642Y-92294030D02*
X146544662Y-101673010D01*
X186909027Y-90383989D02*
X184998986Y-92294030D01*
X184998986Y-92294030D02*
X155923642Y-92294030D01*
X186909030Y-88773000D02*
X186909027Y-90383989D01*
X186909030Y-87283970D02*
X186909030Y-88773000D01*
X186909028Y-87283968D02*
X186909030Y-87283970D01*
X186909028Y-81616972D02*
X186909028Y-87283968D01*
X187984000Y-80542000D02*
X186909028Y-81616972D01*
X136347200Y-107365800D02*
X136347200Y-119837200D01*
X142621000Y-101092000D02*
X136347200Y-107365800D01*
X146304000Y-101092000D02*
X142621000Y-101092000D01*
X155682980Y-91713020D02*
X146304000Y-101092000D01*
X184758324Y-91713020D02*
X155682980Y-91713020D01*
X191516000Y-78232000D02*
X190754000Y-78994000D01*
X191516000Y-76962000D02*
X191516000Y-78232000D01*
X187198000Y-78994000D02*
X186328019Y-79863981D01*
X186328019Y-79863981D02*
X186328018Y-90143326D01*
X190754000Y-78994000D02*
X187198000Y-78994000D01*
X186328018Y-90143326D02*
X184758324Y-91713020D01*
X189611000Y-61214000D02*
X191643000Y-61214000D01*
X191643000Y-61214000D02*
X191643000Y-61214000D01*
X193954520Y-93065600D02*
X195961000Y-93065600D01*
X193763960Y-92875040D02*
X193954520Y-93065600D01*
X158457960Y-92875040D02*
X193763960Y-92875040D01*
X156736999Y-94596001D02*
X158457960Y-92875040D01*
X154559000Y-94996000D02*
X154958999Y-94596001D01*
X154958999Y-94596001D02*
X156736999Y-94596001D01*
X183388000Y-70866000D02*
X186690000Y-67564000D01*
X183388000Y-80645000D02*
X183388000Y-70866000D01*
X168830000Y-81823200D02*
X182209800Y-81823200D01*
X182209800Y-81823200D02*
X183388000Y-80645000D01*
X186690000Y-67564000D02*
X194056000Y-67564000D01*
X194056000Y-67564000D02*
X196342000Y-65278000D01*
X196342000Y-65278000D02*
X196342000Y-59690000D01*
X197326000Y-58706000D02*
X199898000Y-58706000D01*
X196342000Y-59690000D02*
X197326000Y-58706000D01*
X151130000Y-55880000D02*
X151130000Y-67437000D01*
X151130000Y-67437000D02*
X151130000Y-79756000D01*
X151130000Y-79756000D02*
X151765000Y-80391000D01*
X151765000Y-80391000D02*
X157861000Y-80391000D01*
X157861000Y-80391000D02*
X157861000Y-80391000D01*
D28*
G36*
X212676327Y-61375900D02*
G01*
X212701475Y-124196123D01*
X204129799Y-132767800D01*
X192084802Y-132767800D01*
X183367604Y-124050603D01*
X183343801Y-124021599D01*
X183228076Y-123926626D01*
X183096047Y-123856054D01*
X182952786Y-123812597D01*
X182841133Y-123801600D01*
X182841122Y-123801600D01*
X182803800Y-123797924D01*
X182766478Y-123801600D01*
X182751599Y-123801600D01*
X106614784Y-123776212D01*
X106576236Y-123772526D01*
X106502773Y-123779972D01*
X106429664Y-123787148D01*
X106428505Y-123787499D01*
X106427293Y-123787622D01*
X106356749Y-123809240D01*
X106286389Y-123830557D01*
X106285318Y-123831129D01*
X106284156Y-123831485D01*
X106219271Y-123866404D01*
X106154336Y-123901085D01*
X106153397Y-123901855D01*
X106152327Y-123902431D01*
X106095341Y-123949468D01*
X106038580Y-123996019D01*
X106014015Y-124025931D01*
X97321537Y-132767800D01*
X85227629Y-132767800D01*
X76655451Y-124171475D01*
X76676886Y-97385899D01*
X88646000Y-97385899D01*
X88646000Y-97686101D01*
X88704566Y-97980534D01*
X88819449Y-98257885D01*
X88986232Y-98507493D01*
X89198507Y-98719768D01*
X89448115Y-98886551D01*
X89725466Y-99001434D01*
X90019899Y-99060000D01*
X90320101Y-99060000D01*
X90614534Y-99001434D01*
X90891885Y-98886551D01*
X91141493Y-98719768D01*
X91353768Y-98507493D01*
X91440000Y-98378438D01*
X91526232Y-98507493D01*
X91738507Y-98719768D01*
X91988115Y-98886551D01*
X92265466Y-99001434D01*
X92559899Y-99060000D01*
X92860101Y-99060000D01*
X93154534Y-99001434D01*
X93431885Y-98886551D01*
X93681493Y-98719768D01*
X93893768Y-98507493D01*
X94060551Y-98257885D01*
X94175434Y-97980534D01*
X94234000Y-97686101D01*
X94234000Y-97385899D01*
X94175434Y-97091466D01*
X94060551Y-96814115D01*
X93893768Y-96564507D01*
X93681493Y-96352232D01*
X93431885Y-96185449D01*
X93154534Y-96070566D01*
X92860101Y-96012000D01*
X92559899Y-96012000D01*
X92265466Y-96070566D01*
X91988115Y-96185449D01*
X91738507Y-96352232D01*
X91526232Y-96564507D01*
X91440000Y-96693562D01*
X91353768Y-96564507D01*
X91141493Y-96352232D01*
X90891885Y-96185449D01*
X90614534Y-96070566D01*
X90320101Y-96012000D01*
X90019899Y-96012000D01*
X89725466Y-96070566D01*
X89448115Y-96185449D01*
X89198507Y-96352232D01*
X88986232Y-96564507D01*
X88819449Y-96814115D01*
X88704566Y-97091466D01*
X88646000Y-97385899D01*
X76676886Y-97385899D01*
X76679702Y-93868382D01*
X80772000Y-93868382D01*
X80772000Y-94218618D01*
X80840328Y-94562123D01*
X80974357Y-94885699D01*
X81168937Y-95176909D01*
X81416591Y-95424563D01*
X81707801Y-95619143D01*
X82031377Y-95753172D01*
X82374882Y-95821500D01*
X82725118Y-95821500D01*
X83068623Y-95753172D01*
X83392199Y-95619143D01*
X83683409Y-95424563D01*
X83931063Y-95176909D01*
X84125643Y-94885699D01*
X84259672Y-94562123D01*
X84328000Y-94218618D01*
X84328000Y-93868382D01*
X96012000Y-93868382D01*
X96012000Y-94218618D01*
X96080328Y-94562123D01*
X96214357Y-94885699D01*
X96408937Y-95176909D01*
X96656591Y-95424563D01*
X96947801Y-95619143D01*
X97271377Y-95753172D01*
X97614882Y-95821500D01*
X97965118Y-95821500D01*
X98308623Y-95753172D01*
X98632199Y-95619143D01*
X98923409Y-95424563D01*
X99171063Y-95176909D01*
X99365643Y-94885699D01*
X99499672Y-94562123D01*
X99568000Y-94218618D01*
X99568000Y-93868382D01*
X99499672Y-93524877D01*
X99365643Y-93201301D01*
X99171063Y-92910091D01*
X98923409Y-92662437D01*
X98632199Y-92467857D01*
X98308623Y-92333828D01*
X97965118Y-92265500D01*
X97614882Y-92265500D01*
X97271377Y-92333828D01*
X96947801Y-92467857D01*
X96656591Y-92662437D01*
X96408937Y-92910091D01*
X96214357Y-93201301D01*
X96080328Y-93524877D01*
X96012000Y-93868382D01*
X84328000Y-93868382D01*
X84259672Y-93524877D01*
X84125643Y-93201301D01*
X83931063Y-92910091D01*
X83683409Y-92662437D01*
X83392199Y-92467857D01*
X83068623Y-92333828D01*
X82725118Y-92265500D01*
X82374882Y-92265500D01*
X82031377Y-92333828D01*
X81707801Y-92467857D01*
X81416591Y-92662437D01*
X81168937Y-92910091D01*
X80974357Y-93201301D01*
X80840328Y-93524877D01*
X80772000Y-93868382D01*
X76679702Y-93868382D01*
X76685019Y-87225899D01*
X78486000Y-87225899D01*
X78486000Y-87526101D01*
X78544566Y-87820534D01*
X78659449Y-88097885D01*
X78826232Y-88347493D01*
X79038507Y-88559768D01*
X79167562Y-88646000D01*
X79038507Y-88732232D01*
X78826232Y-88944507D01*
X78659449Y-89194115D01*
X78544566Y-89471466D01*
X78486000Y-89765899D01*
X78486000Y-90066101D01*
X78544566Y-90360534D01*
X78659449Y-90637885D01*
X78826232Y-90887493D01*
X79038507Y-91099768D01*
X79288115Y-91266551D01*
X79565466Y-91381434D01*
X79859899Y-91440000D01*
X80160101Y-91440000D01*
X80454534Y-91381434D01*
X80731885Y-91266551D01*
X80981493Y-91099768D01*
X81193768Y-90887493D01*
X81360551Y-90637885D01*
X81475434Y-90360534D01*
X81534000Y-90066101D01*
X81534000Y-89765899D01*
X81475434Y-89471466D01*
X81360551Y-89194115D01*
X81193768Y-88944507D01*
X80981493Y-88732232D01*
X80852438Y-88646000D01*
X80981493Y-88559768D01*
X81193768Y-88347493D01*
X81360551Y-88097885D01*
X81475434Y-87820534D01*
X81534000Y-87526101D01*
X81534000Y-87225899D01*
X81475434Y-86931466D01*
X81360551Y-86654115D01*
X81193768Y-86404507D01*
X80981493Y-86192232D01*
X80731885Y-86025449D01*
X80454534Y-85910566D01*
X80160101Y-85852000D01*
X79859899Y-85852000D01*
X79565466Y-85910566D01*
X79288115Y-86025449D01*
X79038507Y-86192232D01*
X78826232Y-86404507D01*
X78659449Y-86654115D01*
X78544566Y-86931466D01*
X78486000Y-87225899D01*
X76685019Y-87225899D01*
X76690375Y-80533382D01*
X80772000Y-80533382D01*
X80772000Y-80883618D01*
X80840328Y-81227123D01*
X80974357Y-81550699D01*
X81168937Y-81841909D01*
X81416591Y-82089563D01*
X81707801Y-82284143D01*
X82031377Y-82418172D01*
X82374882Y-82486500D01*
X82725118Y-82486500D01*
X83068623Y-82418172D01*
X83392199Y-82284143D01*
X83683409Y-82089563D01*
X83931063Y-81841909D01*
X84125643Y-81550699D01*
X84259672Y-81227123D01*
X84328000Y-80883618D01*
X84328000Y-80533382D01*
X84259672Y-80189877D01*
X84125643Y-79866301D01*
X83951649Y-79605899D01*
X85471000Y-79605899D01*
X85471000Y-79906101D01*
X85529566Y-80200534D01*
X85644449Y-80477885D01*
X85811232Y-80727493D01*
X86023507Y-80939768D01*
X86273115Y-81106551D01*
X86550466Y-81221434D01*
X86844899Y-81280000D01*
X87145101Y-81280000D01*
X87439534Y-81221434D01*
X87716885Y-81106551D01*
X87966493Y-80939768D01*
X88178768Y-80727493D01*
X88345551Y-80477885D01*
X88460434Y-80200534D01*
X88519000Y-79906101D01*
X88519000Y-79605899D01*
X91821000Y-79605899D01*
X91821000Y-79906101D01*
X91879566Y-80200534D01*
X91994449Y-80477885D01*
X92161232Y-80727493D01*
X92373507Y-80939768D01*
X92623115Y-81106551D01*
X92900466Y-81221434D01*
X93194899Y-81280000D01*
X93495101Y-81280000D01*
X93789534Y-81221434D01*
X94066885Y-81106551D01*
X94316493Y-80939768D01*
X94528768Y-80727493D01*
X94658469Y-80533382D01*
X96012000Y-80533382D01*
X96012000Y-80883618D01*
X96080328Y-81227123D01*
X96214357Y-81550699D01*
X96408937Y-81841909D01*
X96656591Y-82089563D01*
X96947801Y-82284143D01*
X97271377Y-82418172D01*
X97614882Y-82486500D01*
X97965118Y-82486500D01*
X98308623Y-82418172D01*
X98632199Y-82284143D01*
X98923409Y-82089563D01*
X99171063Y-81841909D01*
X99365643Y-81550699D01*
X99499672Y-81227123D01*
X99568000Y-80883618D01*
X99568000Y-80533382D01*
X99499672Y-80189877D01*
X99365643Y-79866301D01*
X99171063Y-79575091D01*
X98923409Y-79327437D01*
X98632199Y-79132857D01*
X98308623Y-78998828D01*
X97965118Y-78930500D01*
X97614882Y-78930500D01*
X97271377Y-78998828D01*
X96947801Y-79132857D01*
X96656591Y-79327437D01*
X96408937Y-79575091D01*
X96214357Y-79866301D01*
X96080328Y-80189877D01*
X96012000Y-80533382D01*
X94658469Y-80533382D01*
X94695551Y-80477885D01*
X94810434Y-80200534D01*
X94869000Y-79906101D01*
X94869000Y-79605899D01*
X94810434Y-79311466D01*
X94695551Y-79034115D01*
X94528768Y-78784507D01*
X94316493Y-78572232D01*
X94066885Y-78405449D01*
X93789534Y-78290566D01*
X93495101Y-78232000D01*
X93194899Y-78232000D01*
X92900466Y-78290566D01*
X92623115Y-78405449D01*
X92373507Y-78572232D01*
X92161232Y-78784507D01*
X91994449Y-79034115D01*
X91879566Y-79311466D01*
X91821000Y-79605899D01*
X88519000Y-79605899D01*
X88460434Y-79311466D01*
X88345551Y-79034115D01*
X88178768Y-78784507D01*
X87966493Y-78572232D01*
X87716885Y-78405449D01*
X87439534Y-78290566D01*
X87145101Y-78232000D01*
X86844899Y-78232000D01*
X86550466Y-78290566D01*
X86273115Y-78405449D01*
X86023507Y-78572232D01*
X85811232Y-78784507D01*
X85644449Y-79034115D01*
X85529566Y-79311466D01*
X85471000Y-79605899D01*
X83951649Y-79605899D01*
X83931063Y-79575091D01*
X83683409Y-79327437D01*
X83392199Y-79132857D01*
X83068623Y-78998828D01*
X82725118Y-78930500D01*
X82374882Y-78930500D01*
X82031377Y-78998828D01*
X81707801Y-79132857D01*
X81416591Y-79327437D01*
X81168937Y-79575091D01*
X80974357Y-79866301D01*
X80840328Y-80189877D01*
X80772000Y-80533382D01*
X76690375Y-80533382D01*
X76695183Y-74525899D01*
X85471000Y-74525899D01*
X85471000Y-74826101D01*
X85529566Y-75120534D01*
X85644449Y-75397885D01*
X85811232Y-75647493D01*
X86023507Y-75859768D01*
X86273115Y-76026551D01*
X86550466Y-76141434D01*
X86844899Y-76200000D01*
X87145101Y-76200000D01*
X87439534Y-76141434D01*
X87716885Y-76026551D01*
X87966493Y-75859768D01*
X88178768Y-75647493D01*
X88345551Y-75397885D01*
X88460434Y-75120534D01*
X88519000Y-74826101D01*
X88519000Y-74525899D01*
X91821000Y-74525899D01*
X91821000Y-74826101D01*
X91879566Y-75120534D01*
X91994449Y-75397885D01*
X92161232Y-75647493D01*
X92373507Y-75859768D01*
X92623115Y-76026551D01*
X92900466Y-76141434D01*
X93194899Y-76200000D01*
X93495101Y-76200000D01*
X93789534Y-76141434D01*
X94066885Y-76026551D01*
X94316493Y-75859768D01*
X94528768Y-75647493D01*
X94695551Y-75397885D01*
X94810434Y-75120534D01*
X94869000Y-74826101D01*
X94869000Y-74525899D01*
X94810434Y-74231466D01*
X94695551Y-73954115D01*
X94528768Y-73704507D01*
X94316493Y-73492232D01*
X94066885Y-73325449D01*
X93789534Y-73210566D01*
X93495101Y-73152000D01*
X93194899Y-73152000D01*
X92900466Y-73210566D01*
X92623115Y-73325449D01*
X92373507Y-73492232D01*
X92161232Y-73704507D01*
X91994449Y-73954115D01*
X91879566Y-74231466D01*
X91821000Y-74525899D01*
X88519000Y-74525899D01*
X88460434Y-74231466D01*
X88345551Y-73954115D01*
X88178768Y-73704507D01*
X87966493Y-73492232D01*
X87716885Y-73325449D01*
X87439534Y-73210566D01*
X87145101Y-73152000D01*
X86844899Y-73152000D01*
X86550466Y-73210566D01*
X86273115Y-73325449D01*
X86023507Y-73492232D01*
X85811232Y-73704507D01*
X85644449Y-73954115D01*
X85529566Y-74231466D01*
X85471000Y-74525899D01*
X76695183Y-74525899D01*
X76697278Y-71907061D01*
X102216000Y-71907061D01*
X102216000Y-72110939D01*
X102255774Y-72310898D01*
X102333795Y-72499256D01*
X102425500Y-72636503D01*
X102425501Y-93177439D01*
X102421506Y-93218000D01*
X102437445Y-93379826D01*
X102484647Y-93535433D01*
X102561301Y-93678842D01*
X102584411Y-93707001D01*
X102664460Y-93804541D01*
X102695961Y-93830393D01*
X106870500Y-98004933D01*
X106870501Y-120482439D01*
X106866506Y-120523000D01*
X106882445Y-120684826D01*
X106929647Y-120840433D01*
X107006301Y-120983842D01*
X107067863Y-121058854D01*
X107109460Y-121109541D01*
X107140961Y-121135393D01*
X109496606Y-123491039D01*
X109522459Y-123522541D01*
X109648158Y-123625699D01*
X109791566Y-123702353D01*
X109947174Y-123749556D01*
X110068447Y-123761500D01*
X110068449Y-123761500D01*
X110108999Y-123765494D01*
X110149550Y-123761500D01*
X143367850Y-123761500D01*
X143408400Y-123765494D01*
X143448950Y-123761500D01*
X143448953Y-123761500D01*
X143570226Y-123749556D01*
X143725834Y-123702353D01*
X143869242Y-123625699D01*
X143994941Y-123522541D01*
X144020798Y-123491034D01*
X146292892Y-121218940D01*
X146369608Y-121234200D01*
X146644792Y-121234200D01*
X146914690Y-121180514D01*
X147168927Y-121075205D01*
X147397735Y-120922320D01*
X147592320Y-120727735D01*
X147745205Y-120498927D01*
X147850514Y-120244690D01*
X147904200Y-119974792D01*
X147904200Y-119699608D01*
X147850514Y-119429710D01*
X147745205Y-119175473D01*
X147686690Y-119087900D01*
X170545850Y-119087900D01*
X170586400Y-119091894D01*
X170626950Y-119087900D01*
X170626953Y-119087900D01*
X170748226Y-119075956D01*
X170903834Y-119028753D01*
X171047242Y-118952099D01*
X171172941Y-118848941D01*
X171198798Y-118817434D01*
X174240733Y-115775499D01*
X197612000Y-115775499D01*
X197612000Y-116075701D01*
X197670566Y-116370134D01*
X197785449Y-116647485D01*
X197952232Y-116897093D01*
X198164507Y-117109368D01*
X198414115Y-117276151D01*
X198691466Y-117391034D01*
X198985899Y-117449600D01*
X199286101Y-117449600D01*
X199580534Y-117391034D01*
X199857885Y-117276151D01*
X200107493Y-117109368D01*
X200319768Y-116897093D01*
X200406000Y-116768038D01*
X200492232Y-116897093D01*
X200704507Y-117109368D01*
X200954115Y-117276151D01*
X201231466Y-117391034D01*
X201525899Y-117449600D01*
X201826101Y-117449600D01*
X202120534Y-117391034D01*
X202397885Y-117276151D01*
X202647493Y-117109368D01*
X202859768Y-116897093D01*
X203026551Y-116647485D01*
X203141434Y-116370134D01*
X203200000Y-116075701D01*
X203200000Y-115775499D01*
X203141434Y-115481066D01*
X203026551Y-115203715D01*
X202859768Y-114954107D01*
X202647493Y-114741832D01*
X202397885Y-114575049D01*
X202120534Y-114460166D01*
X201826101Y-114401600D01*
X201525899Y-114401600D01*
X201231466Y-114460166D01*
X200954115Y-114575049D01*
X200704507Y-114741832D01*
X200492232Y-114954107D01*
X200406000Y-115083162D01*
X200319768Y-114954107D01*
X200107493Y-114741832D01*
X199857885Y-114575049D01*
X199580534Y-114460166D01*
X199286101Y-114401600D01*
X198985899Y-114401600D01*
X198691466Y-114460166D01*
X198414115Y-114575049D01*
X198164507Y-114741832D01*
X197952232Y-114954107D01*
X197785449Y-115203715D01*
X197670566Y-115481066D01*
X197612000Y-115775499D01*
X174240733Y-115775499D01*
X174443439Y-115572794D01*
X174474941Y-115546941D01*
X174529003Y-115481066D01*
X174578099Y-115421243D01*
X174654753Y-115277834D01*
X174668398Y-115232852D01*
X174701956Y-115122226D01*
X174713900Y-115000953D01*
X174713900Y-115000951D01*
X174717894Y-114960401D01*
X174713900Y-114919850D01*
X174713900Y-112257982D01*
X189738000Y-112257982D01*
X189738000Y-112608218D01*
X189806328Y-112951723D01*
X189940357Y-113275299D01*
X190134937Y-113566509D01*
X190382591Y-113814163D01*
X190673801Y-114008743D01*
X190997377Y-114142772D01*
X191340882Y-114211100D01*
X191691118Y-114211100D01*
X192034623Y-114142772D01*
X192358199Y-114008743D01*
X192649409Y-113814163D01*
X192897063Y-113566509D01*
X193091643Y-113275299D01*
X193225672Y-112951723D01*
X193294000Y-112608218D01*
X193294000Y-112257982D01*
X204978000Y-112257982D01*
X204978000Y-112608218D01*
X205046328Y-112951723D01*
X205180357Y-113275299D01*
X205374937Y-113566509D01*
X205622591Y-113814163D01*
X205913801Y-114008743D01*
X206237377Y-114142772D01*
X206580882Y-114211100D01*
X206931118Y-114211100D01*
X207274623Y-114142772D01*
X207598199Y-114008743D01*
X207889409Y-113814163D01*
X208137063Y-113566509D01*
X208331643Y-113275299D01*
X208465672Y-112951723D01*
X208534000Y-112608218D01*
X208534000Y-112257982D01*
X208465672Y-111914477D01*
X208331643Y-111590901D01*
X208137063Y-111299691D01*
X207889409Y-111052037D01*
X207598199Y-110857457D01*
X207274623Y-110723428D01*
X206931118Y-110655100D01*
X206580882Y-110655100D01*
X206237377Y-110723428D01*
X205913801Y-110857457D01*
X205622591Y-111052037D01*
X205374937Y-111299691D01*
X205180357Y-111590901D01*
X205046328Y-111914477D01*
X204978000Y-112257982D01*
X193294000Y-112257982D01*
X193225672Y-111914477D01*
X193091643Y-111590901D01*
X192897063Y-111299691D01*
X192649409Y-111052037D01*
X192358199Y-110857457D01*
X192034623Y-110723428D01*
X191691118Y-110655100D01*
X191340882Y-110655100D01*
X190997377Y-110723428D01*
X190673801Y-110857457D01*
X190382591Y-111052037D01*
X190134937Y-111299691D01*
X189940357Y-111590901D01*
X189806328Y-111914477D01*
X189738000Y-112257982D01*
X174713900Y-112257982D01*
X174713900Y-110834245D01*
X174791815Y-110929185D01*
X174888506Y-111008537D01*
X174998820Y-111067502D01*
X175118518Y-111103812D01*
X175243000Y-111116072D01*
X176293000Y-111116072D01*
X176417482Y-111103812D01*
X176537180Y-111067502D01*
X176601902Y-111032907D01*
X176810601Y-111096215D01*
X177038000Y-111118612D01*
X177265400Y-111096215D01*
X177484060Y-111029885D01*
X177673001Y-110928894D01*
X177861941Y-111029885D01*
X178080601Y-111096215D01*
X178308000Y-111118612D01*
X178535400Y-111096215D01*
X178754060Y-111029885D01*
X178955579Y-110922171D01*
X179132212Y-110777212D01*
X179277171Y-110600579D01*
X179384885Y-110399059D01*
X179451215Y-110180399D01*
X179468000Y-110009978D01*
X179468000Y-109446021D01*
X179451215Y-109275600D01*
X179384885Y-109056940D01*
X179277171Y-108855421D01*
X179132212Y-108678788D01*
X178955578Y-108533829D01*
X178754059Y-108426115D01*
X178535399Y-108359785D01*
X178308000Y-108337388D01*
X178080600Y-108359785D01*
X177861940Y-108426115D01*
X177673000Y-108527106D01*
X177484059Y-108426115D01*
X177265399Y-108359785D01*
X177038000Y-108337388D01*
X176810600Y-108359785D01*
X176601902Y-108423093D01*
X176537180Y-108388498D01*
X176417482Y-108352188D01*
X176293000Y-108339928D01*
X175243000Y-108339928D01*
X175118518Y-108352188D01*
X174998820Y-108388498D01*
X174943210Y-108418223D01*
X176373845Y-106987589D01*
X176405341Y-106961741D01*
X176431189Y-106930245D01*
X176431192Y-106930242D01*
X176508499Y-106836043D01*
X176585153Y-106692634D01*
X176590168Y-106676101D01*
X176632356Y-106537026D01*
X176644300Y-106415753D01*
X176644300Y-106415751D01*
X176648294Y-106375200D01*
X176644300Y-106334650D01*
X176644300Y-105615499D01*
X187452000Y-105615499D01*
X187452000Y-105915701D01*
X187510566Y-106210134D01*
X187625449Y-106487485D01*
X187792232Y-106737093D01*
X188004507Y-106949368D01*
X188133562Y-107035600D01*
X188004507Y-107121832D01*
X187792232Y-107334107D01*
X187625449Y-107583715D01*
X187510566Y-107861066D01*
X187452000Y-108155499D01*
X187452000Y-108455701D01*
X187510566Y-108750134D01*
X187625449Y-109027485D01*
X187792232Y-109277093D01*
X188004507Y-109489368D01*
X188254115Y-109656151D01*
X188531466Y-109771034D01*
X188825899Y-109829600D01*
X189126101Y-109829600D01*
X189420534Y-109771034D01*
X189697885Y-109656151D01*
X189947493Y-109489368D01*
X190159768Y-109277093D01*
X190326551Y-109027485D01*
X190441434Y-108750134D01*
X190500000Y-108455701D01*
X190500000Y-108155499D01*
X190441434Y-107861066D01*
X190326551Y-107583715D01*
X190159768Y-107334107D01*
X189947493Y-107121832D01*
X189818438Y-107035600D01*
X189947493Y-106949368D01*
X190159768Y-106737093D01*
X190326551Y-106487485D01*
X190441434Y-106210134D01*
X190500000Y-105915701D01*
X190500000Y-105615499D01*
X190441434Y-105321066D01*
X190326551Y-105043715D01*
X190159768Y-104794107D01*
X189947493Y-104581832D01*
X189697885Y-104415049D01*
X189420534Y-104300166D01*
X189126101Y-104241600D01*
X188825899Y-104241600D01*
X188531466Y-104300166D01*
X188254115Y-104415049D01*
X188004507Y-104581832D01*
X187792232Y-104794107D01*
X187625449Y-105043715D01*
X187510566Y-105321066D01*
X187452000Y-105615499D01*
X176644300Y-105615499D01*
X176644300Y-99576710D01*
X176794629Y-99576710D01*
X176994588Y-99536936D01*
X177182946Y-99458915D01*
X177352464Y-99345647D01*
X177496627Y-99201484D01*
X177609895Y-99031966D01*
X177655037Y-98922982D01*
X189738000Y-98922982D01*
X189738000Y-99273218D01*
X189806328Y-99616723D01*
X189940357Y-99940299D01*
X190134937Y-100231509D01*
X190382591Y-100479163D01*
X190673801Y-100673743D01*
X190997377Y-100807772D01*
X191340882Y-100876100D01*
X191691118Y-100876100D01*
X192034623Y-100807772D01*
X192358199Y-100673743D01*
X192649409Y-100479163D01*
X192897063Y-100231509D01*
X193091643Y-99940299D01*
X193225672Y-99616723D01*
X193294000Y-99273218D01*
X193294000Y-98922982D01*
X193225672Y-98579477D01*
X193091643Y-98255901D01*
X192917649Y-97995499D01*
X194437000Y-97995499D01*
X194437000Y-98295701D01*
X194495566Y-98590134D01*
X194610449Y-98867485D01*
X194777232Y-99117093D01*
X194989507Y-99329368D01*
X195239115Y-99496151D01*
X195516466Y-99611034D01*
X195810899Y-99669600D01*
X196111101Y-99669600D01*
X196405534Y-99611034D01*
X196682885Y-99496151D01*
X196932493Y-99329368D01*
X197144768Y-99117093D01*
X197311551Y-98867485D01*
X197426434Y-98590134D01*
X197485000Y-98295701D01*
X197485000Y-97995499D01*
X200787000Y-97995499D01*
X200787000Y-98295701D01*
X200845566Y-98590134D01*
X200960449Y-98867485D01*
X201127232Y-99117093D01*
X201339507Y-99329368D01*
X201589115Y-99496151D01*
X201866466Y-99611034D01*
X202160899Y-99669600D01*
X202461101Y-99669600D01*
X202755534Y-99611034D01*
X203032885Y-99496151D01*
X203282493Y-99329368D01*
X203494768Y-99117093D01*
X203624469Y-98922982D01*
X204978000Y-98922982D01*
X204978000Y-99273218D01*
X205046328Y-99616723D01*
X205180357Y-99940299D01*
X205374937Y-100231509D01*
X205622591Y-100479163D01*
X205913801Y-100673743D01*
X206237377Y-100807772D01*
X206580882Y-100876100D01*
X206931118Y-100876100D01*
X207274623Y-100807772D01*
X207598199Y-100673743D01*
X207889409Y-100479163D01*
X208137063Y-100231509D01*
X208331643Y-99940299D01*
X208465672Y-99616723D01*
X208534000Y-99273218D01*
X208534000Y-98922982D01*
X208465672Y-98579477D01*
X208331643Y-98255901D01*
X208137063Y-97964691D01*
X207889409Y-97717037D01*
X207598199Y-97522457D01*
X207274623Y-97388428D01*
X206931118Y-97320100D01*
X206580882Y-97320100D01*
X206237377Y-97388428D01*
X205913801Y-97522457D01*
X205622591Y-97717037D01*
X205374937Y-97964691D01*
X205180357Y-98255901D01*
X205046328Y-98579477D01*
X204978000Y-98922982D01*
X203624469Y-98922982D01*
X203661551Y-98867485D01*
X203776434Y-98590134D01*
X203835000Y-98295701D01*
X203835000Y-97995499D01*
X203776434Y-97701066D01*
X203661551Y-97423715D01*
X203494768Y-97174107D01*
X203282493Y-96961832D01*
X203032885Y-96795049D01*
X202755534Y-96680166D01*
X202461101Y-96621600D01*
X202160899Y-96621600D01*
X201866466Y-96680166D01*
X201589115Y-96795049D01*
X201339507Y-96961832D01*
X201127232Y-97174107D01*
X200960449Y-97423715D01*
X200845566Y-97701066D01*
X200787000Y-97995499D01*
X197485000Y-97995499D01*
X197426434Y-97701066D01*
X197311551Y-97423715D01*
X197144768Y-97174107D01*
X196932493Y-96961832D01*
X196682885Y-96795049D01*
X196405534Y-96680166D01*
X196111101Y-96621600D01*
X195810899Y-96621600D01*
X195516466Y-96680166D01*
X195239115Y-96795049D01*
X194989507Y-96961832D01*
X194777232Y-97174107D01*
X194610449Y-97423715D01*
X194495566Y-97701066D01*
X194437000Y-97995499D01*
X192917649Y-97995499D01*
X192897063Y-97964691D01*
X192649409Y-97717037D01*
X192358199Y-97522457D01*
X192034623Y-97388428D01*
X191691118Y-97320100D01*
X191340882Y-97320100D01*
X190997377Y-97388428D01*
X190673801Y-97522457D01*
X190382591Y-97717037D01*
X190134937Y-97964691D01*
X189940357Y-98255901D01*
X189806328Y-98579477D01*
X189738000Y-98922982D01*
X177655037Y-98922982D01*
X177687916Y-98843608D01*
X177727690Y-98643649D01*
X177727690Y-98439771D01*
X177687916Y-98239812D01*
X177609895Y-98051454D01*
X177496627Y-97881936D01*
X177486021Y-97871330D01*
X177559095Y-97761966D01*
X177637116Y-97573608D01*
X177676890Y-97373649D01*
X177676890Y-97169771D01*
X177637116Y-96969812D01*
X177559095Y-96781454D01*
X177445827Y-96611936D01*
X177301664Y-96467773D01*
X177132146Y-96354505D01*
X176943788Y-96276484D01*
X176743829Y-96236710D01*
X176539951Y-96236710D01*
X176339992Y-96276484D01*
X176151634Y-96354505D01*
X176010711Y-96448666D01*
X175914379Y-96458154D01*
X175773134Y-96501000D01*
X175758771Y-96505357D01*
X175615362Y-96582011D01*
X175578899Y-96611936D01*
X175489664Y-96685169D01*
X175463811Y-96716671D01*
X174958965Y-97221517D01*
X174927459Y-97247374D01*
X174867775Y-97320100D01*
X174824301Y-97373073D01*
X174782682Y-97450937D01*
X174747647Y-97516482D01*
X174700444Y-97672090D01*
X174689840Y-97779759D01*
X174684506Y-97833915D01*
X174688500Y-97874465D01*
X174688500Y-97991111D01*
X174682755Y-97996856D01*
X174651249Y-98022712D01*
X174599913Y-98085266D01*
X174548091Y-98148411D01*
X174535901Y-98171217D01*
X174471437Y-98291820D01*
X174424234Y-98447428D01*
X174412290Y-98568700D01*
X174408296Y-98609253D01*
X174412290Y-98649804D01*
X174412291Y-105792603D01*
X172752356Y-107452540D01*
X172720849Y-107478397D01*
X172651604Y-107562773D01*
X172617691Y-107604096D01*
X172602545Y-107632433D01*
X172541037Y-107747505D01*
X172493834Y-107903113D01*
X172484268Y-108000241D01*
X172477896Y-108064938D01*
X172481890Y-108105489D01*
X172481891Y-114335875D01*
X169961878Y-116855890D01*
X143623560Y-116855890D01*
X143583010Y-116851896D01*
X143542459Y-116855890D01*
X143542457Y-116855890D01*
X143421184Y-116867834D01*
X143265576Y-116915037D01*
X143122167Y-116991691D01*
X143027968Y-117068998D01*
X143027965Y-117069001D01*
X142996469Y-117094849D01*
X142970621Y-117126345D01*
X141641508Y-118455460D01*
X141564792Y-118440200D01*
X141289608Y-118440200D01*
X141019710Y-118493886D01*
X140765473Y-118599195D01*
X140536665Y-118752080D01*
X140342080Y-118946665D01*
X140189195Y-119175473D01*
X140157200Y-119252715D01*
X140125205Y-119175473D01*
X139972320Y-118946665D01*
X139777735Y-118752080D01*
X139712700Y-118708625D01*
X139712700Y-112039061D01*
X140443000Y-112039061D01*
X140443000Y-112242939D01*
X140482774Y-112442898D01*
X140560795Y-112631256D01*
X140674063Y-112800774D01*
X140818226Y-112944937D01*
X140987744Y-113058205D01*
X141176102Y-113136226D01*
X141376061Y-113176000D01*
X141579939Y-113176000D01*
X141779898Y-113136226D01*
X141968256Y-113058205D01*
X142105503Y-112966500D01*
X147914450Y-112966500D01*
X147955000Y-112970494D01*
X147995550Y-112966500D01*
X147995553Y-112966500D01*
X148116826Y-112954556D01*
X148272434Y-112907353D01*
X148415842Y-112830699D01*
X148541541Y-112727541D01*
X148567398Y-112696034D01*
X151014732Y-110248700D01*
X156930828Y-110248700D01*
X156930828Y-111594900D01*
X156943088Y-111719382D01*
X156979398Y-111839080D01*
X157038363Y-111949394D01*
X157117715Y-112046085D01*
X157214406Y-112125437D01*
X157324720Y-112184402D01*
X157444418Y-112220712D01*
X157568900Y-112232972D01*
X158915100Y-112232972D01*
X159039582Y-112220712D01*
X159159280Y-112184402D01*
X159269594Y-112125437D01*
X159366285Y-112046085D01*
X159445637Y-111949394D01*
X159504602Y-111839080D01*
X159540912Y-111719382D01*
X159553172Y-111594900D01*
X159553172Y-110248700D01*
X159540912Y-110124218D01*
X159504602Y-110004520D01*
X159445637Y-109894206D01*
X159366285Y-109797515D01*
X159269594Y-109718163D01*
X159159280Y-109659198D01*
X159039582Y-109622888D01*
X158915100Y-109610628D01*
X157568900Y-109610628D01*
X157444418Y-109622888D01*
X157324720Y-109659198D01*
X157214406Y-109718163D01*
X157117715Y-109797515D01*
X157038363Y-109894206D01*
X156979398Y-110004520D01*
X156943088Y-110124218D01*
X156930828Y-110248700D01*
X151014732Y-110248700D01*
X153010469Y-108252963D01*
X159473900Y-108252963D01*
X159473900Y-108510637D01*
X159524170Y-108763359D01*
X159622777Y-109001418D01*
X159765933Y-109215665D01*
X159948135Y-109397867D01*
X160162382Y-109541023D01*
X160400441Y-109639630D01*
X160653163Y-109689900D01*
X160910837Y-109689900D01*
X161163559Y-109639630D01*
X161401618Y-109541023D01*
X161615865Y-109397867D01*
X161641671Y-109372061D01*
X166732000Y-109372061D01*
X166732000Y-109575939D01*
X166771774Y-109775898D01*
X166849795Y-109964256D01*
X166963063Y-110133774D01*
X167107226Y-110277937D01*
X167276744Y-110391205D01*
X167465102Y-110469226D01*
X167665061Y-110509000D01*
X167868939Y-110509000D01*
X168068898Y-110469226D01*
X168257256Y-110391205D01*
X168426774Y-110277937D01*
X168570937Y-110133774D01*
X168684205Y-109964256D01*
X168762226Y-109775898D01*
X168794429Y-109614004D01*
X170066005Y-108342428D01*
X170227898Y-108310226D01*
X170416256Y-108232205D01*
X170585774Y-108118937D01*
X170729937Y-107974774D01*
X170843205Y-107805256D01*
X170921226Y-107616898D01*
X170953429Y-107455004D01*
X172640039Y-105768394D01*
X172671541Y-105742541D01*
X172733296Y-105667292D01*
X172774699Y-105616843D01*
X172851353Y-105473434D01*
X172860027Y-105444839D01*
X172898556Y-105317826D01*
X172910500Y-105196553D01*
X172910500Y-105196551D01*
X172914494Y-105156001D01*
X172910500Y-105115450D01*
X172910500Y-103751503D01*
X173002205Y-103614256D01*
X173080226Y-103425898D01*
X173120000Y-103225939D01*
X173120000Y-103022061D01*
X173080226Y-102822102D01*
X173002205Y-102633744D01*
X172888937Y-102464226D01*
X172744774Y-102320063D01*
X172575256Y-102206795D01*
X172386898Y-102128774D01*
X172186939Y-102089000D01*
X171983061Y-102089000D01*
X171783102Y-102128774D01*
X171594744Y-102206795D01*
X171425226Y-102320063D01*
X171281063Y-102464226D01*
X171167795Y-102633744D01*
X171089774Y-102822102D01*
X171050000Y-103022061D01*
X171050000Y-103225939D01*
X171089774Y-103425898D01*
X171167795Y-103614256D01*
X171259500Y-103751503D01*
X171259501Y-104814066D01*
X169785996Y-106287571D01*
X169624102Y-106319774D01*
X169435744Y-106397795D01*
X169266226Y-106511063D01*
X169122063Y-106655226D01*
X169008795Y-106824744D01*
X168930774Y-107013102D01*
X168898572Y-107174995D01*
X167626996Y-108446571D01*
X167465102Y-108478774D01*
X167276744Y-108556795D01*
X167107226Y-108670063D01*
X166963063Y-108814226D01*
X166849795Y-108983744D01*
X166771774Y-109172102D01*
X166732000Y-109372061D01*
X161641671Y-109372061D01*
X161798067Y-109215665D01*
X161805713Y-109204222D01*
X161895733Y-109195356D01*
X162051341Y-109148153D01*
X162194749Y-109071499D01*
X162320448Y-108968341D01*
X162346305Y-108936834D01*
X165756180Y-105526961D01*
X165861804Y-105440278D01*
X165887660Y-105408772D01*
X166129004Y-105167428D01*
X166290898Y-105135226D01*
X166479256Y-105057205D01*
X166648774Y-104943937D01*
X166792937Y-104799774D01*
X166906205Y-104630256D01*
X166984226Y-104441898D01*
X167024000Y-104241939D01*
X167024000Y-104038061D01*
X166984226Y-103838102D01*
X166906205Y-103649744D01*
X166792937Y-103480226D01*
X166648774Y-103336063D01*
X166479256Y-103222795D01*
X166290898Y-103144774D01*
X166090939Y-103105000D01*
X165887061Y-103105000D01*
X165687102Y-103144774D01*
X165498744Y-103222795D01*
X165329226Y-103336063D01*
X165185063Y-103480226D01*
X165071795Y-103649744D01*
X164993774Y-103838102D01*
X164961572Y-103999996D01*
X164781066Y-104180501D01*
X164706928Y-104241345D01*
X164706925Y-104241348D01*
X164675429Y-104267196D01*
X164649581Y-104298692D01*
X161595889Y-107352386D01*
X161401618Y-107222577D01*
X161163559Y-107123970D01*
X160910837Y-107073700D01*
X160653163Y-107073700D01*
X160400441Y-107123970D01*
X160162382Y-107222577D01*
X159948135Y-107365733D01*
X159765933Y-107547935D01*
X159622777Y-107762182D01*
X159524170Y-108000241D01*
X159473900Y-108252963D01*
X153010469Y-108252963D01*
X157040935Y-104222499D01*
X160976451Y-104222499D01*
X161017001Y-104226493D01*
X161057551Y-104222499D01*
X161057554Y-104222499D01*
X161178827Y-104210555D01*
X161334435Y-104163352D01*
X161477843Y-104086698D01*
X161552668Y-104025291D01*
X161718898Y-103992226D01*
X161907256Y-103914205D01*
X162076774Y-103800937D01*
X162220937Y-103656774D01*
X162334205Y-103487256D01*
X162412226Y-103298898D01*
X162452000Y-103098939D01*
X162452000Y-102895061D01*
X162412226Y-102695102D01*
X162334205Y-102506744D01*
X162237490Y-102362000D01*
X162334205Y-102217256D01*
X162412226Y-102028898D01*
X162452000Y-101828939D01*
X162452000Y-101625061D01*
X162412226Y-101425102D01*
X162334205Y-101236744D01*
X162237490Y-101092000D01*
X162334205Y-100947256D01*
X162412226Y-100758898D01*
X162452000Y-100558939D01*
X162452000Y-100355061D01*
X162412226Y-100155102D01*
X162334205Y-99966744D01*
X162237490Y-99822000D01*
X162334205Y-99677256D01*
X162412226Y-99488898D01*
X162452000Y-99288939D01*
X162452000Y-99085061D01*
X162412226Y-98885102D01*
X162334205Y-98696744D01*
X162220937Y-98527226D01*
X162076774Y-98383063D01*
X161907256Y-98269795D01*
X161718898Y-98191774D01*
X161518939Y-98152000D01*
X161315061Y-98152000D01*
X161115102Y-98191774D01*
X160926744Y-98269795D01*
X160757226Y-98383063D01*
X160613063Y-98527226D01*
X160499795Y-98696744D01*
X160421774Y-98885102D01*
X160389572Y-99046996D01*
X158608096Y-100828472D01*
X156017562Y-100828472D01*
X155977012Y-100824478D01*
X155936461Y-100828472D01*
X155936459Y-100828472D01*
X155815186Y-100840416D01*
X155659578Y-100887619D01*
X155516169Y-100964273D01*
X155421970Y-101041580D01*
X155421967Y-101041583D01*
X155390471Y-101067431D01*
X155364623Y-101098927D01*
X148042690Y-108420862D01*
X147875898Y-108351774D01*
X147675939Y-108312000D01*
X147472061Y-108312000D01*
X147272102Y-108351774D01*
X147083744Y-108429795D01*
X146914226Y-108543063D01*
X146770063Y-108687226D01*
X146656795Y-108856744D01*
X146578774Y-109045102D01*
X146539000Y-109245061D01*
X146539000Y-109410500D01*
X146042503Y-109410500D01*
X145905256Y-109318795D01*
X145716898Y-109240774D01*
X145516939Y-109201000D01*
X145313061Y-109201000D01*
X145113102Y-109240774D01*
X144924744Y-109318795D01*
X144755226Y-109432063D01*
X144611063Y-109576226D01*
X144497795Y-109745744D01*
X144419774Y-109934102D01*
X144380000Y-110134061D01*
X144380000Y-110337939D01*
X144397616Y-110426500D01*
X144137503Y-110426500D01*
X144000256Y-110334795D01*
X143811898Y-110256774D01*
X143611939Y-110217000D01*
X143408061Y-110217000D01*
X143208102Y-110256774D01*
X143019744Y-110334795D01*
X142850226Y-110448063D01*
X142706063Y-110592226D01*
X142592795Y-110761744D01*
X142514774Y-110950102D01*
X142475000Y-111150061D01*
X142475000Y-111315500D01*
X142105503Y-111315500D01*
X141968256Y-111223795D01*
X141779898Y-111145774D01*
X141579939Y-111106000D01*
X141376061Y-111106000D01*
X141176102Y-111145774D01*
X140987744Y-111223795D01*
X140818226Y-111337063D01*
X140674063Y-111481226D01*
X140560795Y-111650744D01*
X140482774Y-111839102D01*
X140443000Y-112039061D01*
X139712700Y-112039061D01*
X139712700Y-106056732D01*
X143270923Y-102498510D01*
X146504112Y-102498510D01*
X146544662Y-102502504D01*
X146585212Y-102498510D01*
X146585215Y-102498510D01*
X146706488Y-102486566D01*
X146862096Y-102439363D01*
X147005504Y-102362709D01*
X147131203Y-102259551D01*
X147157060Y-102228044D01*
X152552294Y-96832811D01*
X152625795Y-97010256D01*
X152637651Y-97028000D01*
X152625795Y-97045744D01*
X152547774Y-97234102D01*
X152508000Y-97434061D01*
X152508000Y-97637939D01*
X152547774Y-97837898D01*
X152625795Y-98026256D01*
X152739063Y-98195774D01*
X152883226Y-98339937D01*
X153052744Y-98453205D01*
X153241102Y-98531226D01*
X153441061Y-98571000D01*
X153644939Y-98571000D01*
X153844898Y-98531226D01*
X154033256Y-98453205D01*
X154170503Y-98361500D01*
X154393437Y-98361500D01*
X154433987Y-98365494D01*
X154474537Y-98361500D01*
X154474540Y-98361500D01*
X154595813Y-98349556D01*
X154751421Y-98302353D01*
X154894829Y-98225699D01*
X155020528Y-98122541D01*
X155046385Y-98091035D01*
X155264921Y-97872499D01*
X156023451Y-97872499D01*
X156064001Y-97876493D01*
X156104551Y-97872499D01*
X156104554Y-97872499D01*
X156225827Y-97860555D01*
X156381435Y-97813352D01*
X156524843Y-97736698D01*
X156599668Y-97675291D01*
X156765898Y-97642226D01*
X156954256Y-97564205D01*
X157123774Y-97450937D01*
X157267937Y-97306774D01*
X157381205Y-97137256D01*
X157459226Y-96948898D01*
X157499000Y-96748939D01*
X157499000Y-96545061D01*
X157459226Y-96345102D01*
X157381205Y-96156744D01*
X157267937Y-95987226D01*
X157170484Y-95889773D01*
X157205226Y-95805898D01*
X157245000Y-95605939D01*
X157245000Y-95402061D01*
X157218485Y-95268758D01*
X157323540Y-95182542D01*
X157349397Y-95151035D01*
X158799893Y-93700540D01*
X162922000Y-93700540D01*
X162922000Y-93827939D01*
X162961774Y-94027898D01*
X163039795Y-94216256D01*
X163153063Y-94385774D01*
X163297226Y-94529937D01*
X163466744Y-94643205D01*
X163655102Y-94721226D01*
X163855061Y-94761000D01*
X164058939Y-94761000D01*
X164258898Y-94721226D01*
X164447256Y-94643205D01*
X164616774Y-94529937D01*
X164760937Y-94385774D01*
X164819920Y-94297500D01*
X167892616Y-94297500D01*
X167914774Y-94408898D01*
X167992795Y-94597256D01*
X168106063Y-94766774D01*
X168250226Y-94910937D01*
X168419744Y-95024205D01*
X168608102Y-95102226D01*
X168808061Y-95142000D01*
X169011939Y-95142000D01*
X169211898Y-95102226D01*
X169400256Y-95024205D01*
X169569774Y-94910937D01*
X169713937Y-94766774D01*
X169827205Y-94597256D01*
X169905226Y-94408898D01*
X169945000Y-94208939D01*
X169945000Y-94005061D01*
X169905226Y-93805102D01*
X169861915Y-93700540D01*
X193426954Y-93700540D01*
X193493678Y-93755299D01*
X193637086Y-93831953D01*
X193792694Y-93879156D01*
X193913967Y-93891100D01*
X193913969Y-93891100D01*
X193954520Y-93895094D01*
X193995070Y-93891100D01*
X194679682Y-93891100D01*
X194777232Y-94037093D01*
X194989507Y-94249368D01*
X195239115Y-94416151D01*
X195516466Y-94531034D01*
X195810899Y-94589600D01*
X196111101Y-94589600D01*
X196405534Y-94531034D01*
X196682885Y-94416151D01*
X196932493Y-94249368D01*
X197144768Y-94037093D01*
X197311551Y-93787485D01*
X197426434Y-93510134D01*
X197485000Y-93215701D01*
X197485000Y-92915499D01*
X200787000Y-92915499D01*
X200787000Y-93215701D01*
X200845566Y-93510134D01*
X200960449Y-93787485D01*
X201127232Y-94037093D01*
X201339507Y-94249368D01*
X201589115Y-94416151D01*
X201866466Y-94531034D01*
X202160899Y-94589600D01*
X202461101Y-94589600D01*
X202755534Y-94531034D01*
X203032885Y-94416151D01*
X203282493Y-94249368D01*
X203494768Y-94037093D01*
X203661551Y-93787485D01*
X203776434Y-93510134D01*
X203835000Y-93215701D01*
X203835000Y-92915499D01*
X203776434Y-92621066D01*
X203661551Y-92343715D01*
X203494768Y-92094107D01*
X203282493Y-91881832D01*
X203032885Y-91715049D01*
X202755534Y-91600166D01*
X202461101Y-91541600D01*
X202160899Y-91541600D01*
X201866466Y-91600166D01*
X201589115Y-91715049D01*
X201339507Y-91881832D01*
X201127232Y-92094107D01*
X200960449Y-92343715D01*
X200845566Y-92621066D01*
X200787000Y-92915499D01*
X197485000Y-92915499D01*
X197426434Y-92621066D01*
X197311551Y-92343715D01*
X197144768Y-92094107D01*
X196932493Y-91881832D01*
X196682885Y-91715049D01*
X196405534Y-91600166D01*
X196111101Y-91541600D01*
X195810899Y-91541600D01*
X195516466Y-91600166D01*
X195239115Y-91715049D01*
X194989507Y-91881832D01*
X194777232Y-92094107D01*
X194679682Y-92240100D01*
X194291526Y-92240100D01*
X194224802Y-92185341D01*
X194081394Y-92108687D01*
X193925786Y-92061484D01*
X193804513Y-92049540D01*
X193804510Y-92049540D01*
X193763960Y-92045546D01*
X193723410Y-92049540D01*
X186410909Y-92049540D01*
X187464077Y-90996373D01*
X187495566Y-90970531D01*
X187521411Y-90939039D01*
X187521419Y-90939031D01*
X187598726Y-90844832D01*
X187675380Y-90701423D01*
X187722582Y-90545816D01*
X187738521Y-90383989D01*
X187734526Y-90343430D01*
X187734530Y-88732449D01*
X187734530Y-87324520D01*
X187738524Y-87283970D01*
X187734528Y-87243399D01*
X187734528Y-81958904D01*
X188124004Y-81569428D01*
X188285898Y-81537226D01*
X188474256Y-81459205D01*
X188643774Y-81345937D01*
X188787937Y-81201774D01*
X188901205Y-81032256D01*
X188979226Y-80843898D01*
X189019000Y-80643939D01*
X189019000Y-80440061D01*
X188979226Y-80240102D01*
X188901205Y-80051744D01*
X188787937Y-79882226D01*
X188725211Y-79819500D01*
X190713450Y-79819500D01*
X190754000Y-79823494D01*
X190794550Y-79819500D01*
X190794553Y-79819500D01*
X190915826Y-79807556D01*
X191071434Y-79760353D01*
X191214842Y-79683699D01*
X191340541Y-79580541D01*
X191366397Y-79549035D01*
X192071044Y-78844389D01*
X192102541Y-78818541D01*
X192128389Y-78787045D01*
X192128392Y-78787042D01*
X192205699Y-78692843D01*
X192282353Y-78549434D01*
X192320549Y-78423517D01*
X192329556Y-78393826D01*
X192341500Y-78272553D01*
X192341500Y-78272551D01*
X192345494Y-78232000D01*
X192341500Y-78191450D01*
X192341500Y-77589503D01*
X192433205Y-77452256D01*
X192468079Y-77368061D01*
X203943000Y-77368061D01*
X203943000Y-77571939D01*
X203982774Y-77771898D01*
X204060795Y-77960256D01*
X204174063Y-78129774D01*
X204318226Y-78273937D01*
X204487744Y-78387205D01*
X204676102Y-78465226D01*
X204876061Y-78505000D01*
X205079939Y-78505000D01*
X205279898Y-78465226D01*
X205468256Y-78387205D01*
X205605503Y-78295500D01*
X209430497Y-78295500D01*
X209567744Y-78387205D01*
X209756102Y-78465226D01*
X209956061Y-78505000D01*
X210159939Y-78505000D01*
X210359898Y-78465226D01*
X210548256Y-78387205D01*
X210717774Y-78273937D01*
X210861937Y-78129774D01*
X210975205Y-77960256D01*
X211053226Y-77771898D01*
X211093000Y-77571939D01*
X211093000Y-77368061D01*
X211053226Y-77168102D01*
X210975205Y-76979744D01*
X210861937Y-76810226D01*
X210717774Y-76666063D01*
X210548256Y-76552795D01*
X210359898Y-76474774D01*
X210159939Y-76435000D01*
X209956061Y-76435000D01*
X209756102Y-76474774D01*
X209567744Y-76552795D01*
X209430497Y-76644500D01*
X205605503Y-76644500D01*
X205468256Y-76552795D01*
X205279898Y-76474774D01*
X205079939Y-76435000D01*
X204876061Y-76435000D01*
X204676102Y-76474774D01*
X204487744Y-76552795D01*
X204318226Y-76666063D01*
X204174063Y-76810226D01*
X204060795Y-76979744D01*
X203982774Y-77168102D01*
X203943000Y-77368061D01*
X192468079Y-77368061D01*
X192511226Y-77263898D01*
X192551000Y-77063939D01*
X192551000Y-76860061D01*
X192511226Y-76660102D01*
X192433205Y-76471744D01*
X192319937Y-76302226D01*
X192175774Y-76158063D01*
X192006256Y-76044795D01*
X191817898Y-75966774D01*
X191617939Y-75927000D01*
X191414061Y-75927000D01*
X191214102Y-75966774D01*
X191025744Y-76044795D01*
X190856226Y-76158063D01*
X190712063Y-76302226D01*
X190598795Y-76471744D01*
X190520774Y-76660102D01*
X190481000Y-76860061D01*
X190481000Y-77063939D01*
X190520774Y-77263898D01*
X190598795Y-77452256D01*
X190690500Y-77589503D01*
X190690501Y-77890066D01*
X190412067Y-78168500D01*
X187238550Y-78168500D01*
X187198000Y-78164506D01*
X187157449Y-78168500D01*
X187157447Y-78168500D01*
X187036174Y-78180444D01*
X186914399Y-78217384D01*
X186880566Y-78227647D01*
X186737157Y-78304301D01*
X186692146Y-78341241D01*
X186611459Y-78407459D01*
X186585608Y-78438959D01*
X186572510Y-78452057D01*
X186572510Y-78304608D01*
X186737039Y-78140079D01*
X186768541Y-78114226D01*
X186871699Y-77988527D01*
X186948353Y-77845119D01*
X186995556Y-77689511D01*
X187005044Y-77593179D01*
X187099205Y-77452256D01*
X187177226Y-77263898D01*
X187217000Y-77063939D01*
X187217000Y-76860061D01*
X187177226Y-76660102D01*
X187099205Y-76471744D01*
X186985937Y-76302226D01*
X186841774Y-76158063D01*
X186672256Y-76044795D01*
X186483898Y-75966774D01*
X186283939Y-75927000D01*
X186080061Y-75927000D01*
X185880102Y-75966774D01*
X185691744Y-76044795D01*
X185674000Y-76056651D01*
X185656256Y-76044795D01*
X185467898Y-75966774D01*
X185267939Y-75927000D01*
X185064061Y-75927000D01*
X184864102Y-75966774D01*
X184675744Y-76044795D01*
X184506226Y-76158063D01*
X184362063Y-76302226D01*
X184248795Y-76471744D01*
X184213500Y-76556953D01*
X184213500Y-71207932D01*
X187031933Y-68389500D01*
X194015450Y-68389500D01*
X194056000Y-68393494D01*
X194096550Y-68389500D01*
X194096553Y-68389500D01*
X194217826Y-68377556D01*
X194373434Y-68330353D01*
X194516842Y-68253699D01*
X194642541Y-68150541D01*
X194668398Y-68119034D01*
X196897041Y-65890392D01*
X196928541Y-65864541D01*
X197003852Y-65772774D01*
X197031699Y-65738843D01*
X197061452Y-65683178D01*
X197108353Y-65595434D01*
X197155556Y-65439826D01*
X197167500Y-65318553D01*
X197167500Y-65318551D01*
X197171494Y-65278001D01*
X197167500Y-65237450D01*
X197167500Y-60031932D01*
X197667933Y-59531500D01*
X198174915Y-59531500D01*
X198117463Y-59601506D01*
X198058498Y-59711820D01*
X198022188Y-59831518D01*
X198009928Y-59956000D01*
X198009928Y-61456000D01*
X198021008Y-61568496D01*
X198015234Y-61573234D01*
X197798421Y-61837422D01*
X197637314Y-62138832D01*
X197538105Y-62465881D01*
X197504606Y-62806000D01*
X197538105Y-63146119D01*
X197637314Y-63473168D01*
X197798421Y-63774578D01*
X198015234Y-64038766D01*
X198279422Y-64255579D01*
X198580832Y-64416686D01*
X198907881Y-64515895D01*
X199162775Y-64541000D01*
X200633225Y-64541000D01*
X200888119Y-64515895D01*
X201215168Y-64416686D01*
X201516578Y-64255579D01*
X201780766Y-64038766D01*
X201997579Y-63774578D01*
X202158686Y-63473168D01*
X202257895Y-63146119D01*
X202291394Y-62806000D01*
X202257895Y-62465881D01*
X202158686Y-62138832D01*
X201997579Y-61837422D01*
X201780766Y-61573234D01*
X201774992Y-61568496D01*
X201786072Y-61456000D01*
X201786072Y-59956000D01*
X201773812Y-59831518D01*
X201737502Y-59711820D01*
X201678537Y-59601506D01*
X201599185Y-59504815D01*
X201559060Y-59471886D01*
X201683764Y-59238581D01*
X201762960Y-58977507D01*
X201789701Y-58706000D01*
X201762960Y-58434493D01*
X201683764Y-58173419D01*
X201555157Y-57932812D01*
X201382081Y-57721919D01*
X201362684Y-57706000D01*
X201382081Y-57690081D01*
X201555157Y-57479188D01*
X201683764Y-57238581D01*
X201762960Y-56977507D01*
X201789701Y-56706000D01*
X201762960Y-56434493D01*
X201683764Y-56173419D01*
X201589006Y-55996139D01*
X201780766Y-55838766D01*
X201997579Y-55574578D01*
X202158686Y-55273168D01*
X202257895Y-54946119D01*
X202291394Y-54606000D01*
X202257895Y-54265881D01*
X202158686Y-53938832D01*
X201997579Y-53637422D01*
X201780766Y-53373234D01*
X201516578Y-53156421D01*
X201215168Y-52995314D01*
X200888119Y-52896105D01*
X200633225Y-52871000D01*
X199162775Y-52871000D01*
X198907881Y-52896105D01*
X198580832Y-52995314D01*
X198279422Y-53156421D01*
X198015234Y-53373234D01*
X197798421Y-53637422D01*
X197637314Y-53938832D01*
X197538105Y-54265881D01*
X197504606Y-54606000D01*
X197538105Y-54946119D01*
X197637314Y-55273168D01*
X197798421Y-55574578D01*
X198015234Y-55838766D01*
X198206994Y-55996139D01*
X198112236Y-56173419D01*
X198033040Y-56434493D01*
X198006299Y-56706000D01*
X198033040Y-56977507D01*
X198112236Y-57238581D01*
X198240843Y-57479188D01*
X198413919Y-57690081D01*
X198433316Y-57706000D01*
X198413919Y-57721919D01*
X198283774Y-57880500D01*
X197366550Y-57880500D01*
X197325999Y-57876506D01*
X197285449Y-57880500D01*
X197285447Y-57880500D01*
X197164174Y-57892444D01*
X197008566Y-57939647D01*
X196865157Y-58016301D01*
X196803596Y-58066823D01*
X196739459Y-58119459D01*
X196713606Y-58150961D01*
X195786961Y-59077607D01*
X195755460Y-59103459D01*
X195729609Y-59134959D01*
X195652301Y-59229158D01*
X195575647Y-59372567D01*
X195528445Y-59528174D01*
X195512506Y-59690000D01*
X195516501Y-59730560D01*
X195516500Y-64936067D01*
X193714068Y-66738500D01*
X186730550Y-66738500D01*
X186689999Y-66734506D01*
X186649449Y-66738500D01*
X186649447Y-66738500D01*
X186528174Y-66750444D01*
X186372566Y-66797647D01*
X186229157Y-66874301D01*
X186167596Y-66924823D01*
X186103459Y-66977459D01*
X186077608Y-67008959D01*
X182832961Y-70253607D01*
X182801460Y-70279459D01*
X182775609Y-70310959D01*
X182698301Y-70405158D01*
X182621647Y-70548567D01*
X182574445Y-70704174D01*
X182558506Y-70866000D01*
X182562501Y-70906560D01*
X182562500Y-80303067D01*
X181867868Y-80997700D01*
X170340000Y-80997700D01*
X170340000Y-80974022D01*
X170318151Y-80752188D01*
X170231808Y-80467552D01*
X170091594Y-80205230D01*
X169902897Y-79975303D01*
X169672969Y-79786606D01*
X169410647Y-79646392D01*
X169126011Y-79560049D01*
X168830000Y-79530894D01*
X168533988Y-79560049D01*
X168249352Y-79646392D01*
X167987030Y-79786606D01*
X167757103Y-79975303D01*
X167568406Y-80205231D01*
X167428192Y-80467553D01*
X167341849Y-80752189D01*
X167320000Y-80974023D01*
X167320000Y-82672378D01*
X167341849Y-82894212D01*
X167428193Y-83178848D01*
X167568407Y-83441170D01*
X167757104Y-83671097D01*
X167987031Y-83859794D01*
X168249353Y-84000008D01*
X168533989Y-84086351D01*
X168830000Y-84115506D01*
X169126012Y-84086351D01*
X169410648Y-84000008D01*
X169672970Y-83859794D01*
X169902897Y-83671097D01*
X170091594Y-83441170D01*
X170231808Y-83178848D01*
X170318151Y-82894212D01*
X170340000Y-82672378D01*
X170340000Y-82648700D01*
X182169250Y-82648700D01*
X182209800Y-82652694D01*
X182250350Y-82648700D01*
X182250353Y-82648700D01*
X182371626Y-82636756D01*
X182527234Y-82589553D01*
X182670642Y-82512899D01*
X182796341Y-82409741D01*
X182822198Y-82378234D01*
X183943040Y-81257392D01*
X183974541Y-81231541D01*
X184077699Y-81105842D01*
X184154353Y-80962434D01*
X184201556Y-80806826D01*
X184213500Y-80685553D01*
X184213500Y-80685544D01*
X184217493Y-80645001D01*
X184213500Y-80604458D01*
X184213500Y-77367047D01*
X184248795Y-77452256D01*
X184340500Y-77589503D01*
X184340501Y-85748186D01*
X184187843Y-85519717D01*
X183890463Y-85222337D01*
X183540782Y-84988688D01*
X183152236Y-84827747D01*
X182739759Y-84745700D01*
X182319201Y-84745700D01*
X181906724Y-84827747D01*
X181518178Y-84988688D01*
X181168497Y-85222337D01*
X180871117Y-85519717D01*
X180637468Y-85869398D01*
X180476527Y-86257944D01*
X180394480Y-86670421D01*
X180394480Y-87090979D01*
X180476527Y-87503456D01*
X180637468Y-87892002D01*
X180871117Y-88241683D01*
X181168497Y-88539063D01*
X181518178Y-88772712D01*
X181906724Y-88933653D01*
X182319201Y-89015700D01*
X182739759Y-89015700D01*
X183152236Y-88933653D01*
X183540782Y-88772712D01*
X183890463Y-88539063D01*
X184187843Y-88241683D01*
X184340501Y-88013214D01*
X184340501Y-89320066D01*
X183935067Y-89725500D01*
X157512423Y-89725500D01*
X157829978Y-89593965D01*
X158390123Y-89219688D01*
X158866488Y-88743323D01*
X159240765Y-88183178D01*
X159498571Y-87560777D01*
X159630000Y-86900041D01*
X159630000Y-86226359D01*
X159498571Y-85565623D01*
X159240765Y-84943222D01*
X158866488Y-84383077D01*
X158390123Y-83906712D01*
X157829978Y-83532435D01*
X157207577Y-83274629D01*
X156546841Y-83143200D01*
X155873159Y-83143200D01*
X155212423Y-83274629D01*
X154590022Y-83532435D01*
X154029877Y-83906712D01*
X153553512Y-84383077D01*
X153179235Y-84943222D01*
X152921429Y-85565623D01*
X152790000Y-86226359D01*
X152790000Y-86900041D01*
X152921429Y-87560777D01*
X153179235Y-88183178D01*
X153553512Y-88743323D01*
X154029877Y-89219688D01*
X154590022Y-89593965D01*
X154907577Y-89725500D01*
X142813950Y-89725500D01*
X142773399Y-89721506D01*
X142732849Y-89725500D01*
X142732847Y-89725500D01*
X142611574Y-89737444D01*
X142455966Y-89784647D01*
X142378801Y-89825893D01*
X142312557Y-89861301D01*
X142262157Y-89902664D01*
X142186859Y-89964459D01*
X142161008Y-89995959D01*
X138844839Y-93312128D01*
X138708774Y-93176063D01*
X138539256Y-93062795D01*
X138474501Y-93035972D01*
X138474501Y-86254551D01*
X138478495Y-86214001D01*
X138469729Y-86125000D01*
X138462557Y-86052175D01*
X138415354Y-85896567D01*
X138391532Y-85852000D01*
X138338700Y-85753158D01*
X138261393Y-85658959D01*
X138261390Y-85658956D01*
X138235542Y-85627460D01*
X138204046Y-85601612D01*
X136028428Y-83425996D01*
X135996226Y-83264102D01*
X135918205Y-83075744D01*
X135804937Y-82906226D01*
X135660774Y-82762063D01*
X135491256Y-82648795D01*
X135302898Y-82570774D01*
X135102939Y-82531000D01*
X134899061Y-82531000D01*
X134699102Y-82570774D01*
X134510744Y-82648795D01*
X134341226Y-82762063D01*
X134197063Y-82906226D01*
X134083795Y-83075744D01*
X134005774Y-83264102D01*
X133966000Y-83464061D01*
X133966000Y-83667939D01*
X134005774Y-83867898D01*
X134083795Y-84056256D01*
X134197063Y-84225774D01*
X134341226Y-84369937D01*
X134367078Y-84387211D01*
X134324063Y-84430226D01*
X134210795Y-84599744D01*
X134132774Y-84788102D01*
X134093000Y-84988061D01*
X134093000Y-85191939D01*
X134132774Y-85391898D01*
X134210795Y-85580256D01*
X134324063Y-85749774D01*
X134468226Y-85893937D01*
X134637744Y-86007205D01*
X134826102Y-86085226D01*
X134987996Y-86117428D01*
X135680502Y-86809936D01*
X135680501Y-93920448D01*
X135680501Y-94555451D01*
X135676507Y-94596001D01*
X135680501Y-94636551D01*
X135680501Y-94636553D01*
X135692445Y-94757826D01*
X135733771Y-94894061D01*
X135739648Y-94913434D01*
X135816302Y-95056843D01*
X135850029Y-95097939D01*
X135877709Y-95131668D01*
X135910774Y-95297898D01*
X135988795Y-95486256D01*
X136070107Y-95607948D01*
X135939710Y-95633886D01*
X135685473Y-95739195D01*
X135456665Y-95892080D01*
X135262080Y-96086665D01*
X135109195Y-96315473D01*
X135077200Y-96392715D01*
X135045205Y-96315473D01*
X134892320Y-96086665D01*
X134697735Y-95892080D01*
X134468927Y-95739195D01*
X134214690Y-95633886D01*
X133944792Y-95580200D01*
X133669608Y-95580200D01*
X133399710Y-95633886D01*
X133145473Y-95739195D01*
X132916665Y-95892080D01*
X132722080Y-96086665D01*
X132569195Y-96315473D01*
X132537200Y-96392715D01*
X132505205Y-96315473D01*
X132352320Y-96086665D01*
X132157735Y-95892080D01*
X131928927Y-95739195D01*
X131674690Y-95633886D01*
X131404792Y-95580200D01*
X131129608Y-95580200D01*
X130859710Y-95633886D01*
X130605473Y-95739195D01*
X130376665Y-95892080D01*
X130182080Y-96086665D01*
X130029195Y-96315473D01*
X129997200Y-96392715D01*
X129965205Y-96315473D01*
X129812320Y-96086665D01*
X129617735Y-95892080D01*
X129388927Y-95739195D01*
X129134690Y-95633886D01*
X128864792Y-95580200D01*
X128589608Y-95580200D01*
X128319710Y-95633886D01*
X128065473Y-95739195D01*
X127836665Y-95892080D01*
X127642080Y-96086665D01*
X127489195Y-96315473D01*
X127457200Y-96392715D01*
X127425205Y-96315473D01*
X127272320Y-96086665D01*
X127077735Y-95892080D01*
X126848927Y-95739195D01*
X126594690Y-95633886D01*
X126324792Y-95580200D01*
X126049608Y-95580200D01*
X125779710Y-95633886D01*
X125525473Y-95739195D01*
X125296665Y-95892080D01*
X125102080Y-96086665D01*
X124949195Y-96315473D01*
X124917200Y-96392715D01*
X124885205Y-96315473D01*
X124732320Y-96086665D01*
X124537735Y-95892080D01*
X124308927Y-95739195D01*
X124054690Y-95633886D01*
X123784792Y-95580200D01*
X123509608Y-95580200D01*
X123239710Y-95633886D01*
X122985473Y-95739195D01*
X122756665Y-95892080D01*
X122562080Y-96086665D01*
X122409195Y-96315473D01*
X122377200Y-96392715D01*
X122345205Y-96315473D01*
X122192320Y-96086665D01*
X121997735Y-95892080D01*
X121768927Y-95739195D01*
X121514690Y-95633886D01*
X121244792Y-95580200D01*
X120969608Y-95580200D01*
X120699710Y-95633886D01*
X120445473Y-95739195D01*
X120216665Y-95892080D01*
X120022080Y-96086665D01*
X119869195Y-96315473D01*
X119837200Y-96392715D01*
X119805205Y-96315473D01*
X119652320Y-96086665D01*
X119457735Y-95892080D01*
X119228927Y-95739195D01*
X118974690Y-95633886D01*
X118704792Y-95580200D01*
X118429608Y-95580200D01*
X118159710Y-95633886D01*
X117905473Y-95739195D01*
X117676665Y-95892080D01*
X117482080Y-96086665D01*
X117329195Y-96315473D01*
X117297200Y-96392715D01*
X117265205Y-96315473D01*
X117112320Y-96086665D01*
X116917735Y-95892080D01*
X116688927Y-95739195D01*
X116434690Y-95633886D01*
X116164792Y-95580200D01*
X115889608Y-95580200D01*
X115619710Y-95633886D01*
X115365473Y-95739195D01*
X115136665Y-95892080D01*
X114942080Y-96086665D01*
X114789195Y-96315473D01*
X114757200Y-96392715D01*
X114725205Y-96315473D01*
X114572320Y-96086665D01*
X114377735Y-95892080D01*
X114148927Y-95739195D01*
X113894690Y-95633886D01*
X113624792Y-95580200D01*
X113349608Y-95580200D01*
X113079710Y-95633886D01*
X112825473Y-95739195D01*
X112596665Y-95892080D01*
X112402080Y-96086665D01*
X112249195Y-96315473D01*
X112143886Y-96569710D01*
X112090200Y-96839608D01*
X112090200Y-97114792D01*
X112143886Y-97384690D01*
X112249195Y-97638927D01*
X112402080Y-97867735D01*
X112596665Y-98062320D01*
X112825473Y-98215205D01*
X113079710Y-98320514D01*
X113349608Y-98374200D01*
X113624792Y-98374200D01*
X113894690Y-98320514D01*
X114148927Y-98215205D01*
X114377735Y-98062320D01*
X114572320Y-97867735D01*
X114725205Y-97638927D01*
X114757200Y-97561685D01*
X114789195Y-97638927D01*
X114942080Y-97867735D01*
X115136665Y-98062320D01*
X115365473Y-98215205D01*
X115619710Y-98320514D01*
X115889608Y-98374200D01*
X116164792Y-98374200D01*
X116434690Y-98320514D01*
X116688927Y-98215205D01*
X116917735Y-98062320D01*
X117112320Y-97867735D01*
X117265205Y-97638927D01*
X117297200Y-97561685D01*
X117329195Y-97638927D01*
X117482080Y-97867735D01*
X117676665Y-98062320D01*
X117905473Y-98215205D01*
X118159710Y-98320514D01*
X118429608Y-98374200D01*
X118704792Y-98374200D01*
X118974690Y-98320514D01*
X119228927Y-98215205D01*
X119457735Y-98062320D01*
X119652320Y-97867735D01*
X119805205Y-97638927D01*
X119837200Y-97561685D01*
X119869195Y-97638927D01*
X120022080Y-97867735D01*
X120216665Y-98062320D01*
X120445473Y-98215205D01*
X120699710Y-98320514D01*
X120969608Y-98374200D01*
X121244792Y-98374200D01*
X121514690Y-98320514D01*
X121768927Y-98215205D01*
X121997735Y-98062320D01*
X122192320Y-97867735D01*
X122345205Y-97638927D01*
X122377200Y-97561685D01*
X122409195Y-97638927D01*
X122562080Y-97867735D01*
X122756665Y-98062320D01*
X122985473Y-98215205D01*
X123239710Y-98320514D01*
X123509608Y-98374200D01*
X123784792Y-98374200D01*
X124054690Y-98320514D01*
X124308927Y-98215205D01*
X124537735Y-98062320D01*
X124732320Y-97867735D01*
X124885205Y-97638927D01*
X124917200Y-97561685D01*
X124949195Y-97638927D01*
X125102080Y-97867735D01*
X125296665Y-98062320D01*
X125525473Y-98215205D01*
X125779710Y-98320514D01*
X126049608Y-98374200D01*
X126324792Y-98374200D01*
X126594690Y-98320514D01*
X126848927Y-98215205D01*
X127077735Y-98062320D01*
X127272320Y-97867735D01*
X127425205Y-97638927D01*
X127457200Y-97561685D01*
X127489195Y-97638927D01*
X127642080Y-97867735D01*
X127836665Y-98062320D01*
X128065473Y-98215205D01*
X128319710Y-98320514D01*
X128589608Y-98374200D01*
X128864792Y-98374200D01*
X129134690Y-98320514D01*
X129388927Y-98215205D01*
X129617735Y-98062320D01*
X129812320Y-97867735D01*
X129965205Y-97638927D01*
X129997200Y-97561685D01*
X130029195Y-97638927D01*
X130182080Y-97867735D01*
X130376665Y-98062320D01*
X130605473Y-98215205D01*
X130859710Y-98320514D01*
X131129608Y-98374200D01*
X131404792Y-98374200D01*
X131674690Y-98320514D01*
X131928927Y-98215205D01*
X132157735Y-98062320D01*
X132352320Y-97867735D01*
X132505205Y-97638927D01*
X132537200Y-97561685D01*
X132569195Y-97638927D01*
X132722080Y-97867735D01*
X132916665Y-98062320D01*
X133145473Y-98215205D01*
X133399710Y-98320514D01*
X133669608Y-98374200D01*
X133944792Y-98374200D01*
X134214690Y-98320514D01*
X134468927Y-98215205D01*
X134697735Y-98062320D01*
X134892320Y-97867735D01*
X135045205Y-97638927D01*
X135077200Y-97561685D01*
X135109195Y-97638927D01*
X135262080Y-97867735D01*
X135456665Y-98062320D01*
X135685473Y-98215205D01*
X135939710Y-98320514D01*
X136209608Y-98374200D01*
X136484792Y-98374200D01*
X136754690Y-98320514D01*
X137008927Y-98215205D01*
X137237735Y-98062320D01*
X137432320Y-97867735D01*
X137585205Y-97638927D01*
X137617200Y-97561685D01*
X137649195Y-97638927D01*
X137802080Y-97867735D01*
X137996665Y-98062320D01*
X138225473Y-98215205D01*
X138479710Y-98320514D01*
X138749608Y-98374200D01*
X139024792Y-98374200D01*
X139294690Y-98320514D01*
X139548927Y-98215205D01*
X139777735Y-98062320D01*
X139972320Y-97867735D01*
X140125205Y-97638927D01*
X140157200Y-97561685D01*
X140189195Y-97638927D01*
X140342080Y-97867735D01*
X140536665Y-98062320D01*
X140765473Y-98215205D01*
X141019710Y-98320514D01*
X141289608Y-98374200D01*
X141564792Y-98374200D01*
X141834690Y-98320514D01*
X142088927Y-98215205D01*
X142317735Y-98062320D01*
X142512320Y-97867735D01*
X142665205Y-97638927D01*
X142697200Y-97561685D01*
X142729195Y-97638927D01*
X142882080Y-97867735D01*
X143076665Y-98062320D01*
X143305473Y-98215205D01*
X143559710Y-98320514D01*
X143829608Y-98374200D01*
X144104792Y-98374200D01*
X144374690Y-98320514D01*
X144628927Y-98215205D01*
X144857735Y-98062320D01*
X145052320Y-97867735D01*
X145205205Y-97638927D01*
X145237200Y-97561685D01*
X145269195Y-97638927D01*
X145422080Y-97867735D01*
X145616665Y-98062320D01*
X145845473Y-98215205D01*
X146099710Y-98320514D01*
X146369608Y-98374200D01*
X146644792Y-98374200D01*
X146914690Y-98320514D01*
X147168927Y-98215205D01*
X147397735Y-98062320D01*
X147592320Y-97867735D01*
X147745205Y-97638927D01*
X147850514Y-97384690D01*
X147904200Y-97114792D01*
X147904200Y-96839608D01*
X147850514Y-96569710D01*
X147745205Y-96315473D01*
X147592320Y-96086665D01*
X147397735Y-95892080D01*
X147168927Y-95739195D01*
X146914690Y-95633886D01*
X146644792Y-95580200D01*
X146369608Y-95580200D01*
X146099710Y-95633886D01*
X145845473Y-95739195D01*
X145616665Y-95892080D01*
X145422080Y-96086665D01*
X145269195Y-96315473D01*
X145237200Y-96392715D01*
X145205205Y-96315473D01*
X145052320Y-96086665D01*
X144857735Y-95892080D01*
X144628927Y-95739195D01*
X144374690Y-95633886D01*
X144104792Y-95580200D01*
X143829608Y-95580200D01*
X143559710Y-95633886D01*
X143305473Y-95739195D01*
X143076665Y-95892080D01*
X142882080Y-96086665D01*
X142729195Y-96315473D01*
X142697200Y-96392715D01*
X142665205Y-96315473D01*
X142512320Y-96086665D01*
X142317735Y-95892080D01*
X142088927Y-95739195D01*
X141834690Y-95633886D01*
X141564792Y-95580200D01*
X141451632Y-95580200D01*
X145074323Y-91957510D01*
X154271056Y-91957510D01*
X145962068Y-100266500D01*
X142661550Y-100266500D01*
X142620999Y-100262506D01*
X142580449Y-100266500D01*
X142580447Y-100266500D01*
X142459174Y-100278444D01*
X142303566Y-100325647D01*
X142160157Y-100402301D01*
X142098596Y-100452823D01*
X142034459Y-100505459D01*
X142008608Y-100536959D01*
X135792166Y-106753402D01*
X135760659Y-106779259D01*
X135710675Y-106840166D01*
X135657501Y-106904958D01*
X135630727Y-106955049D01*
X135580847Y-107048367D01*
X135533644Y-107203975D01*
X135522709Y-107315001D01*
X135517706Y-107365800D01*
X135521700Y-107406350D01*
X135521701Y-118708624D01*
X135456665Y-118752080D01*
X135262080Y-118946665D01*
X135109195Y-119175473D01*
X135077200Y-119252715D01*
X135045205Y-119175473D01*
X134892320Y-118946665D01*
X134697735Y-118752080D01*
X134468927Y-118599195D01*
X134214690Y-118493886D01*
X133944792Y-118440200D01*
X133669608Y-118440200D01*
X133399710Y-118493886D01*
X133145473Y-118599195D01*
X132916665Y-118752080D01*
X132722080Y-118946665D01*
X132569195Y-119175473D01*
X132537200Y-119252715D01*
X132505205Y-119175473D01*
X132352320Y-118946665D01*
X132157735Y-118752080D01*
X131928927Y-118599195D01*
X131674690Y-118493886D01*
X131404792Y-118440200D01*
X131129608Y-118440200D01*
X130859710Y-118493886D01*
X130605473Y-118599195D01*
X130376665Y-118752080D01*
X130182080Y-118946665D01*
X130029195Y-119175473D01*
X129997200Y-119252715D01*
X129965205Y-119175473D01*
X129812320Y-118946665D01*
X129617735Y-118752080D01*
X129388927Y-118599195D01*
X129134690Y-118493886D01*
X128864792Y-118440200D01*
X128589608Y-118440200D01*
X128319710Y-118493886D01*
X128065473Y-118599195D01*
X127836665Y-118752080D01*
X127642080Y-118946665D01*
X127489195Y-119175473D01*
X127457200Y-119252715D01*
X127425205Y-119175473D01*
X127272320Y-118946665D01*
X127077735Y-118752080D01*
X126848927Y-118599195D01*
X126594690Y-118493886D01*
X126324792Y-118440200D01*
X126049608Y-118440200D01*
X125779710Y-118493886D01*
X125525473Y-118599195D01*
X125296665Y-118752080D01*
X125102080Y-118946665D01*
X124949195Y-119175473D01*
X124917200Y-119252715D01*
X124885205Y-119175473D01*
X124732320Y-118946665D01*
X124537735Y-118752080D01*
X124308927Y-118599195D01*
X124054690Y-118493886D01*
X123784792Y-118440200D01*
X123509608Y-118440200D01*
X123239710Y-118493886D01*
X122985473Y-118599195D01*
X122756665Y-118752080D01*
X122562080Y-118946665D01*
X122409195Y-119175473D01*
X122377200Y-119252715D01*
X122345205Y-119175473D01*
X122192320Y-118946665D01*
X121997735Y-118752080D01*
X121768927Y-118599195D01*
X121514690Y-118493886D01*
X121244792Y-118440200D01*
X120969608Y-118440200D01*
X120699710Y-118493886D01*
X120445473Y-118599195D01*
X120216665Y-118752080D01*
X120022080Y-118946665D01*
X119869195Y-119175473D01*
X119837200Y-119252715D01*
X119805205Y-119175473D01*
X119652320Y-118946665D01*
X119457735Y-118752080D01*
X119228927Y-118599195D01*
X118974690Y-118493886D01*
X118704792Y-118440200D01*
X118429608Y-118440200D01*
X118159710Y-118493886D01*
X117905473Y-118599195D01*
X117676665Y-118752080D01*
X117482080Y-118946665D01*
X117329195Y-119175473D01*
X117297200Y-119252715D01*
X117265205Y-119175473D01*
X117112320Y-118946665D01*
X116917735Y-118752080D01*
X116688927Y-118599195D01*
X116434690Y-118493886D01*
X116164792Y-118440200D01*
X115889608Y-118440200D01*
X115619710Y-118493886D01*
X115365473Y-118599195D01*
X115136665Y-118752080D01*
X114942080Y-118946665D01*
X114789195Y-119175473D01*
X114757200Y-119252715D01*
X114725205Y-119175473D01*
X114572320Y-118946665D01*
X114377735Y-118752080D01*
X114148927Y-118599195D01*
X113894690Y-118493886D01*
X113624792Y-118440200D01*
X113349608Y-118440200D01*
X113079710Y-118493886D01*
X112825473Y-118599195D01*
X112596665Y-118752080D01*
X112402080Y-118946665D01*
X112249195Y-119175473D01*
X112217200Y-119252715D01*
X112185205Y-119175473D01*
X112032320Y-118946665D01*
X111837735Y-118752080D01*
X111608927Y-118599195D01*
X111354690Y-118493886D01*
X111084792Y-118440200D01*
X110809608Y-118440200D01*
X110539710Y-118493886D01*
X110285473Y-118599195D01*
X110056665Y-118752080D01*
X109862080Y-118946665D01*
X109709195Y-119175473D01*
X109603886Y-119429710D01*
X109550200Y-119699608D01*
X109550200Y-119974792D01*
X109603886Y-120244690D01*
X109709195Y-120498927D01*
X109862080Y-120727735D01*
X110056665Y-120922320D01*
X110285473Y-121075205D01*
X110539710Y-121180514D01*
X110809608Y-121234200D01*
X111084792Y-121234200D01*
X111354690Y-121180514D01*
X111608927Y-121075205D01*
X111837735Y-120922320D01*
X112032320Y-120727735D01*
X112185205Y-120498927D01*
X112217200Y-120421685D01*
X112249195Y-120498927D01*
X112402080Y-120727735D01*
X112596665Y-120922320D01*
X112825473Y-121075205D01*
X113079710Y-121180514D01*
X113349608Y-121234200D01*
X113624792Y-121234200D01*
X113894690Y-121180514D01*
X114148927Y-121075205D01*
X114377735Y-120922320D01*
X114572320Y-120727735D01*
X114725205Y-120498927D01*
X114757200Y-120421685D01*
X114789195Y-120498927D01*
X114942080Y-120727735D01*
X115136665Y-120922320D01*
X115365473Y-121075205D01*
X115619710Y-121180514D01*
X115889608Y-121234200D01*
X116164792Y-121234200D01*
X116434690Y-121180514D01*
X116688927Y-121075205D01*
X116917735Y-120922320D01*
X117112320Y-120727735D01*
X117265205Y-120498927D01*
X117297200Y-120421685D01*
X117329195Y-120498927D01*
X117482080Y-120727735D01*
X117676665Y-120922320D01*
X117905473Y-121075205D01*
X118159710Y-121180514D01*
X118429608Y-121234200D01*
X118704792Y-121234200D01*
X118974690Y-121180514D01*
X119228927Y-121075205D01*
X119457735Y-120922320D01*
X119652320Y-120727735D01*
X119805205Y-120498927D01*
X119837200Y-120421685D01*
X119869195Y-120498927D01*
X120022080Y-120727735D01*
X120216665Y-120922320D01*
X120445473Y-121075205D01*
X120699710Y-121180514D01*
X120969608Y-121234200D01*
X121244792Y-121234200D01*
X121514690Y-121180514D01*
X121768927Y-121075205D01*
X121997735Y-120922320D01*
X122192320Y-120727735D01*
X122345205Y-120498927D01*
X122377200Y-120421685D01*
X122409195Y-120498927D01*
X122562080Y-120727735D01*
X122756665Y-120922320D01*
X122985473Y-121075205D01*
X123239710Y-121180514D01*
X123509608Y-121234200D01*
X123784792Y-121234200D01*
X124054690Y-121180514D01*
X124308927Y-121075205D01*
X124537735Y-120922320D01*
X124732320Y-120727735D01*
X124885205Y-120498927D01*
X124917200Y-120421685D01*
X124949195Y-120498927D01*
X125102080Y-120727735D01*
X125296665Y-120922320D01*
X125525473Y-121075205D01*
X125779710Y-121180514D01*
X126049608Y-121234200D01*
X126324792Y-121234200D01*
X126594690Y-121180514D01*
X126848927Y-121075205D01*
X127077735Y-120922320D01*
X127272320Y-120727735D01*
X127425205Y-120498927D01*
X127457200Y-120421685D01*
X127489195Y-120498927D01*
X127642080Y-120727735D01*
X127836665Y-120922320D01*
X128065473Y-121075205D01*
X128319710Y-121180514D01*
X128589608Y-121234200D01*
X128864792Y-121234200D01*
X129134690Y-121180514D01*
X129388927Y-121075205D01*
X129617735Y-120922320D01*
X129812320Y-120727735D01*
X129965205Y-120498927D01*
X129997200Y-120421685D01*
X130029195Y-120498927D01*
X130182080Y-120727735D01*
X130376665Y-120922320D01*
X130605473Y-121075205D01*
X130859710Y-121180514D01*
X131129608Y-121234200D01*
X131404792Y-121234200D01*
X131674690Y-121180514D01*
X131928927Y-121075205D01*
X132157735Y-120922320D01*
X132352320Y-120727735D01*
X132505205Y-120498927D01*
X132537200Y-120421685D01*
X132569195Y-120498927D01*
X132722080Y-120727735D01*
X132916665Y-120922320D01*
X133145473Y-121075205D01*
X133399710Y-121180514D01*
X133669608Y-121234200D01*
X133944792Y-121234200D01*
X134214690Y-121180514D01*
X134468927Y-121075205D01*
X134697735Y-120922320D01*
X134892320Y-120727735D01*
X135045205Y-120498927D01*
X135077200Y-120421685D01*
X135109195Y-120498927D01*
X135262080Y-120727735D01*
X135456665Y-120922320D01*
X135685473Y-121075205D01*
X135939710Y-121180514D01*
X136209608Y-121234200D01*
X136484792Y-121234200D01*
X136754690Y-121180514D01*
X137008927Y-121075205D01*
X137237735Y-120922320D01*
X137432320Y-120727735D01*
X137585205Y-120498927D01*
X137617200Y-120421685D01*
X137649195Y-120498927D01*
X137802080Y-120727735D01*
X137996665Y-120922320D01*
X138225473Y-121075205D01*
X138479710Y-121180514D01*
X138749608Y-121234200D01*
X139024792Y-121234200D01*
X139294690Y-121180514D01*
X139548927Y-121075205D01*
X139777735Y-120922320D01*
X139972320Y-120727735D01*
X140125205Y-120498927D01*
X140157200Y-120421685D01*
X140189195Y-120498927D01*
X140342080Y-120727735D01*
X140536665Y-120922320D01*
X140765473Y-121075205D01*
X141019710Y-121180514D01*
X141289608Y-121234200D01*
X141564792Y-121234200D01*
X141834690Y-121180514D01*
X142088927Y-121075205D01*
X142317735Y-120922320D01*
X142512320Y-120727735D01*
X142665205Y-120498927D01*
X142697200Y-120421685D01*
X142729195Y-120498927D01*
X142882080Y-120727735D01*
X143076665Y-120922320D01*
X143305473Y-121075205D01*
X143559710Y-121180514D01*
X143829608Y-121234200D01*
X143942768Y-121234200D01*
X143066468Y-122110500D01*
X110450933Y-122110500D01*
X108521500Y-120181068D01*
X108521500Y-97703550D01*
X108525494Y-97662999D01*
X108518220Y-97589144D01*
X108509556Y-97501174D01*
X108462353Y-97345566D01*
X108394470Y-97218567D01*
X108385699Y-97202157D01*
X108308391Y-97107958D01*
X108282541Y-97076459D01*
X108251041Y-97050608D01*
X104076500Y-92876068D01*
X104076500Y-86670421D01*
X105395900Y-86670421D01*
X105395900Y-87090979D01*
X105477947Y-87503456D01*
X105638888Y-87892002D01*
X105872537Y-88241683D01*
X106169917Y-88539063D01*
X106519598Y-88772712D01*
X106908144Y-88933653D01*
X107320621Y-89015700D01*
X107741179Y-89015700D01*
X108153656Y-88933653D01*
X108542202Y-88772712D01*
X108891883Y-88539063D01*
X109189263Y-88241683D01*
X109422912Y-87892002D01*
X109583853Y-87503456D01*
X109665900Y-87090979D01*
X109665900Y-86670421D01*
X109583853Y-86257944D01*
X109570771Y-86226359D01*
X125920000Y-86226359D01*
X125920000Y-86900041D01*
X126051429Y-87560777D01*
X126309235Y-88183178D01*
X126683512Y-88743323D01*
X127159877Y-89219688D01*
X127720022Y-89593965D01*
X128342423Y-89851771D01*
X129003159Y-89983200D01*
X129676841Y-89983200D01*
X130337577Y-89851771D01*
X130959978Y-89593965D01*
X131520123Y-89219688D01*
X131996488Y-88743323D01*
X132370765Y-88183178D01*
X132628571Y-87560777D01*
X132760000Y-86900041D01*
X132760000Y-86226359D01*
X132628571Y-85565623D01*
X132370765Y-84943222D01*
X131996488Y-84383077D01*
X131520123Y-83906712D01*
X130959978Y-83532435D01*
X130337577Y-83274629D01*
X129676841Y-83143200D01*
X129003159Y-83143200D01*
X128342423Y-83274629D01*
X127720022Y-83532435D01*
X127159877Y-83906712D01*
X126683512Y-84383077D01*
X126309235Y-84943222D01*
X126051429Y-85565623D01*
X125920000Y-86226359D01*
X109570771Y-86226359D01*
X109422912Y-85869398D01*
X109189263Y-85519717D01*
X108891883Y-85222337D01*
X108542202Y-84988688D01*
X108153656Y-84827747D01*
X107741179Y-84745700D01*
X107320621Y-84745700D01*
X106908144Y-84827747D01*
X106519598Y-84988688D01*
X106169917Y-85222337D01*
X105872537Y-85519717D01*
X105638888Y-85869398D01*
X105477947Y-86257944D01*
X105395900Y-86670421D01*
X104076500Y-86670421D01*
X104076500Y-72636503D01*
X104168205Y-72499256D01*
X104246226Y-72310898D01*
X104286000Y-72110939D01*
X104286000Y-71907061D01*
X104246226Y-71707102D01*
X104168205Y-71518744D01*
X104054937Y-71349226D01*
X103910774Y-71205063D01*
X103741256Y-71091795D01*
X103552898Y-71013774D01*
X103352939Y-70974000D01*
X103149061Y-70974000D01*
X102949102Y-71013774D01*
X102760744Y-71091795D01*
X102591226Y-71205063D01*
X102447063Y-71349226D01*
X102333795Y-71518744D01*
X102255774Y-71707102D01*
X102216000Y-71907061D01*
X76697278Y-71907061D01*
X76702798Y-65011061D01*
X95739000Y-65011061D01*
X95739000Y-65214939D01*
X95778774Y-65414898D01*
X95856795Y-65603256D01*
X95970063Y-65772774D01*
X96114226Y-65916937D01*
X96283744Y-66030205D01*
X96472102Y-66108226D01*
X96672061Y-66148000D01*
X96875939Y-66148000D01*
X97075898Y-66108226D01*
X97264256Y-66030205D01*
X97433774Y-65916937D01*
X97577937Y-65772774D01*
X97691205Y-65603256D01*
X97716515Y-65542152D01*
X97719999Y-65542495D01*
X97760549Y-65538501D01*
X97760552Y-65538501D01*
X97881825Y-65526557D01*
X98037433Y-65479354D01*
X98180841Y-65402700D01*
X98306540Y-65299542D01*
X98332397Y-65268035D01*
X99073004Y-64527428D01*
X99234898Y-64495226D01*
X99423256Y-64417205D01*
X99592774Y-64303937D01*
X99736937Y-64159774D01*
X99850205Y-63990256D01*
X99928226Y-63801898D01*
X99968000Y-63601939D01*
X99968000Y-63398061D01*
X99928226Y-63198102D01*
X99850205Y-63009744D01*
X99736937Y-62840226D01*
X99592774Y-62696063D01*
X99423256Y-62582795D01*
X99234898Y-62504774D01*
X99034939Y-62465000D01*
X98831061Y-62465000D01*
X98631102Y-62504774D01*
X98442744Y-62582795D01*
X98273226Y-62696063D01*
X98129063Y-62840226D01*
X98015795Y-63009744D01*
X97937774Y-63198102D01*
X97905572Y-63359996D01*
X97378067Y-63887501D01*
X97214549Y-63887501D01*
X97173998Y-63883507D01*
X97133448Y-63887501D01*
X97133446Y-63887501D01*
X97012173Y-63899445D01*
X96856565Y-63946648D01*
X96713157Y-64023302D01*
X96638332Y-64084709D01*
X96472102Y-64117774D01*
X96283744Y-64195795D01*
X96114226Y-64309063D01*
X95970063Y-64453226D01*
X95856795Y-64622744D01*
X95778774Y-64811102D01*
X95739000Y-65011061D01*
X76702798Y-65011061D01*
X76705747Y-61326485D01*
X78327827Y-59709000D01*
X116391506Y-59709000D01*
X116395501Y-59749561D01*
X116395500Y-77175450D01*
X116391506Y-77216000D01*
X116395500Y-77256550D01*
X116395500Y-77256552D01*
X116407444Y-77377825D01*
X116435405Y-77470000D01*
X116454647Y-77533433D01*
X116531301Y-77676842D01*
X116565214Y-77718165D01*
X116634459Y-77802541D01*
X116665965Y-77828397D01*
X117497611Y-78660044D01*
X117523459Y-78691541D01*
X117554955Y-78717389D01*
X117554958Y-78717392D01*
X117649157Y-78794699D01*
X117719268Y-78832174D01*
X117792566Y-78871353D01*
X117948174Y-78918556D01*
X118069447Y-78930500D01*
X118069449Y-78930500D01*
X118110000Y-78934494D01*
X118150550Y-78930500D01*
X122054497Y-78930500D01*
X122191744Y-79022205D01*
X122380102Y-79100226D01*
X122580061Y-79140000D01*
X122783939Y-79140000D01*
X122983898Y-79100226D01*
X123172256Y-79022205D01*
X123341774Y-78908937D01*
X123485937Y-78764774D01*
X123599205Y-78595256D01*
X123677226Y-78406898D01*
X123717000Y-78206939D01*
X123717000Y-78003061D01*
X123677226Y-77803102D01*
X123599205Y-77614744D01*
X123485937Y-77445226D01*
X123341774Y-77301063D01*
X123172256Y-77187795D01*
X122983898Y-77109774D01*
X122783939Y-77070000D01*
X122580061Y-77070000D01*
X122380102Y-77109774D01*
X122191744Y-77187795D01*
X122054497Y-77279500D01*
X118451933Y-77279500D01*
X118046500Y-76874067D01*
X118046500Y-76214923D01*
X118332616Y-76501039D01*
X118358469Y-76532541D01*
X118422606Y-76585177D01*
X118484167Y-76635699D01*
X118529822Y-76660102D01*
X118627576Y-76712353D01*
X118783184Y-76759556D01*
X118904457Y-76771500D01*
X118904459Y-76771500D01*
X118945009Y-76775494D01*
X118985560Y-76771500D01*
X120403497Y-76771500D01*
X120540744Y-76863205D01*
X120729102Y-76941226D01*
X120929061Y-76981000D01*
X121132939Y-76981000D01*
X121332898Y-76941226D01*
X121521256Y-76863205D01*
X121690774Y-76749937D01*
X121834937Y-76605774D01*
X121948205Y-76436256D01*
X122026226Y-76247898D01*
X122066000Y-76047939D01*
X122066000Y-75844061D01*
X122026226Y-75644102D01*
X121948205Y-75455744D01*
X121834937Y-75286226D01*
X121690774Y-75142063D01*
X121521256Y-75028795D01*
X121332898Y-74950774D01*
X121132939Y-74911000D01*
X120929061Y-74911000D01*
X120729102Y-74950774D01*
X120540744Y-75028795D01*
X120403497Y-75120500D01*
X120369920Y-75120500D01*
X120424205Y-75039256D01*
X120502226Y-74850898D01*
X120542000Y-74650939D01*
X120542000Y-74447061D01*
X120502226Y-74247102D01*
X120424205Y-74058744D01*
X120310937Y-73889226D01*
X120166774Y-73745063D01*
X119997256Y-73631795D01*
X119808898Y-73553774D01*
X119642668Y-73520709D01*
X119567843Y-73459302D01*
X119424435Y-73382648D01*
X119268827Y-73335445D01*
X119208520Y-73329505D01*
X119208520Y-63968912D01*
X119451073Y-63726359D01*
X139300000Y-63726359D01*
X139300000Y-64400041D01*
X139431429Y-65060777D01*
X139689235Y-65683178D01*
X140063512Y-66243323D01*
X140539877Y-66719688D01*
X141100022Y-67093965D01*
X141722423Y-67351771D01*
X142383159Y-67483200D01*
X143056841Y-67483200D01*
X143717577Y-67351771D01*
X144339978Y-67093965D01*
X144900123Y-66719688D01*
X145376488Y-66243323D01*
X145750765Y-65683178D01*
X146008571Y-65060777D01*
X146140000Y-64400041D01*
X146140000Y-63726359D01*
X146008571Y-63065623D01*
X145750765Y-62443222D01*
X145376488Y-61883077D01*
X144900123Y-61406712D01*
X144339978Y-61032435D01*
X143717577Y-60774629D01*
X143056841Y-60643200D01*
X142383159Y-60643200D01*
X141722423Y-60774629D01*
X141100022Y-61032435D01*
X140539877Y-61406712D01*
X140063512Y-61883077D01*
X139689235Y-62443222D01*
X139431429Y-63065623D01*
X139300000Y-63726359D01*
X119451073Y-63726359D01*
X125394988Y-57782446D01*
X125429088Y-57792790D01*
X125730000Y-57822427D01*
X126030913Y-57792790D01*
X126320261Y-57705017D01*
X126586927Y-57562481D01*
X126820661Y-57370661D01*
X127000000Y-57152135D01*
X127179339Y-57370661D01*
X127413074Y-57562481D01*
X127679740Y-57705017D01*
X127969088Y-57792790D01*
X128270000Y-57822427D01*
X128570913Y-57792790D01*
X128860261Y-57705017D01*
X129126927Y-57562481D01*
X129360661Y-57370661D01*
X129540000Y-57152135D01*
X129719339Y-57370661D01*
X129953074Y-57562481D01*
X130219740Y-57705017D01*
X130509088Y-57792790D01*
X130810000Y-57822427D01*
X131110913Y-57792790D01*
X131400261Y-57705017D01*
X131666927Y-57562481D01*
X131900661Y-57370661D01*
X132080000Y-57152135D01*
X132259339Y-57370661D01*
X132493074Y-57562481D01*
X132759740Y-57705017D01*
X133049088Y-57792790D01*
X133350000Y-57822427D01*
X133650913Y-57792790D01*
X133940261Y-57705017D01*
X134206927Y-57562481D01*
X134440661Y-57370661D01*
X134620000Y-57152135D01*
X134799339Y-57370661D01*
X135033074Y-57562481D01*
X135299740Y-57705017D01*
X135589088Y-57792790D01*
X135890000Y-57822427D01*
X136190913Y-57792790D01*
X136480261Y-57705017D01*
X136746927Y-57562481D01*
X136980661Y-57370661D01*
X137160000Y-57152135D01*
X137339339Y-57370661D01*
X137573074Y-57562481D01*
X137839740Y-57705017D01*
X138129088Y-57792790D01*
X138430000Y-57822427D01*
X138730913Y-57792790D01*
X139020261Y-57705017D01*
X139286927Y-57562481D01*
X139520661Y-57370661D01*
X139700000Y-57152135D01*
X139879339Y-57370661D01*
X140113074Y-57562481D01*
X140379740Y-57705017D01*
X140669088Y-57792790D01*
X140970000Y-57822427D01*
X141270913Y-57792790D01*
X141560261Y-57705017D01*
X141826927Y-57562481D01*
X142060661Y-57370661D01*
X142240000Y-57152135D01*
X142419339Y-57370661D01*
X142653074Y-57562481D01*
X142919740Y-57705017D01*
X143209088Y-57792790D01*
X143510000Y-57822427D01*
X143810913Y-57792790D01*
X144100261Y-57705017D01*
X144366927Y-57562481D01*
X144600661Y-57370661D01*
X144780000Y-57152135D01*
X144959339Y-57370661D01*
X145193074Y-57562481D01*
X145459740Y-57705017D01*
X145749088Y-57792790D01*
X146050000Y-57822427D01*
X146350913Y-57792790D01*
X146640261Y-57705017D01*
X146906927Y-57562481D01*
X147140661Y-57370661D01*
X147332481Y-57136927D01*
X147475017Y-56870261D01*
X147562790Y-56580913D01*
X147585000Y-56355407D01*
X147585000Y-55404593D01*
X149595000Y-55404593D01*
X149595000Y-56355408D01*
X149617210Y-56580913D01*
X149704983Y-56870261D01*
X149847519Y-57136927D01*
X150039339Y-57370661D01*
X150273074Y-57562481D01*
X150304500Y-57579279D01*
X150304501Y-67396438D01*
X150304500Y-67396448D01*
X150304501Y-79715439D01*
X150300506Y-79756000D01*
X150316445Y-79917826D01*
X150363647Y-80073433D01*
X150440301Y-80216842D01*
X150499570Y-80289061D01*
X150543460Y-80342541D01*
X150574961Y-80368393D01*
X151152610Y-80946044D01*
X151178459Y-80977541D01*
X151209955Y-81003389D01*
X151209958Y-81003392D01*
X151304157Y-81080699D01*
X151445278Y-81156130D01*
X151447566Y-81157353D01*
X151603174Y-81204556D01*
X151724447Y-81216500D01*
X151724449Y-81216500D01*
X151765000Y-81220494D01*
X151805550Y-81216500D01*
X157233497Y-81216500D01*
X157370744Y-81308205D01*
X157559102Y-81386226D01*
X157759061Y-81426000D01*
X157962939Y-81426000D01*
X158162898Y-81386226D01*
X158351256Y-81308205D01*
X158520774Y-81194937D01*
X158664937Y-81050774D01*
X158778205Y-80881256D01*
X158856226Y-80692898D01*
X158896000Y-80492939D01*
X158896000Y-80289061D01*
X158856226Y-80089102D01*
X158778205Y-79900744D01*
X158664937Y-79731226D01*
X158520774Y-79587063D01*
X158351256Y-79473795D01*
X158162898Y-79395774D01*
X157962939Y-79356000D01*
X157759061Y-79356000D01*
X157559102Y-79395774D01*
X157370744Y-79473795D01*
X157233497Y-79565500D01*
X152106933Y-79565500D01*
X151955500Y-79414067D01*
X151955500Y-68024023D01*
X167320000Y-68024023D01*
X167320000Y-69722378D01*
X167341849Y-69944212D01*
X167428193Y-70228848D01*
X167568407Y-70491170D01*
X167757104Y-70721097D01*
X167987031Y-70909794D01*
X168249353Y-71050008D01*
X168533989Y-71136351D01*
X168830000Y-71165506D01*
X169126012Y-71136351D01*
X169410648Y-71050008D01*
X169672970Y-70909794D01*
X169902897Y-70721097D01*
X170091594Y-70491170D01*
X170231808Y-70228848D01*
X170318151Y-69944212D01*
X170340000Y-69722378D01*
X170340000Y-68024022D01*
X170318151Y-67802188D01*
X170231808Y-67517552D01*
X170091594Y-67255230D01*
X169902897Y-67025303D01*
X169672969Y-66836606D01*
X169410647Y-66696392D01*
X169126011Y-66610049D01*
X168830000Y-66580894D01*
X168533988Y-66610049D01*
X168249352Y-66696392D01*
X167987030Y-66836606D01*
X167757103Y-67025303D01*
X167568406Y-67255231D01*
X167428192Y-67517553D01*
X167341849Y-67802189D01*
X167320000Y-68024023D01*
X151955500Y-68024023D01*
X151955500Y-61112061D01*
X188576000Y-61112061D01*
X188576000Y-61315939D01*
X188615774Y-61515898D01*
X188693795Y-61704256D01*
X188807063Y-61873774D01*
X188951226Y-62017937D01*
X189120744Y-62131205D01*
X189309102Y-62209226D01*
X189509061Y-62249000D01*
X189712939Y-62249000D01*
X189912898Y-62209226D01*
X190101256Y-62131205D01*
X190238503Y-62039500D01*
X191015497Y-62039500D01*
X191152744Y-62131205D01*
X191341102Y-62209226D01*
X191541061Y-62249000D01*
X191744939Y-62249000D01*
X191944898Y-62209226D01*
X192133256Y-62131205D01*
X192302774Y-62017937D01*
X192446937Y-61873774D01*
X192560205Y-61704256D01*
X192638226Y-61515898D01*
X192678000Y-61315939D01*
X192678000Y-61112061D01*
X192638226Y-60912102D01*
X192560205Y-60723744D01*
X192446937Y-60554226D01*
X192302774Y-60410063D01*
X192133256Y-60296795D01*
X191944898Y-60218774D01*
X191744939Y-60179000D01*
X191541061Y-60179000D01*
X191341102Y-60218774D01*
X191152744Y-60296795D01*
X191015497Y-60388500D01*
X190238503Y-60388500D01*
X190101256Y-60296795D01*
X189912898Y-60218774D01*
X189712939Y-60179000D01*
X189509061Y-60179000D01*
X189309102Y-60218774D01*
X189120744Y-60296795D01*
X188951226Y-60410063D01*
X188807063Y-60554226D01*
X188693795Y-60723744D01*
X188615774Y-60912102D01*
X188576000Y-61112061D01*
X151955500Y-61112061D01*
X151955500Y-57579279D01*
X151986927Y-57562481D01*
X152220661Y-57370661D01*
X152412481Y-57136927D01*
X152555017Y-56870261D01*
X152642790Y-56580913D01*
X152665000Y-56355407D01*
X152665000Y-55669721D01*
X180395000Y-55669721D01*
X180395000Y-56090279D01*
X180477047Y-56502756D01*
X180637988Y-56891302D01*
X180871637Y-57240983D01*
X181169017Y-57538363D01*
X181518698Y-57772012D01*
X181907244Y-57932953D01*
X182319721Y-58015000D01*
X182740279Y-58015000D01*
X183152756Y-57932953D01*
X183541302Y-57772012D01*
X183890983Y-57538363D01*
X184188363Y-57240983D01*
X184422012Y-56891302D01*
X184582953Y-56502756D01*
X184665000Y-56090279D01*
X184665000Y-55669721D01*
X184582953Y-55257244D01*
X184422012Y-54868698D01*
X184188363Y-54519017D01*
X183890983Y-54221637D01*
X183541302Y-53987988D01*
X183152756Y-53827047D01*
X182740279Y-53745000D01*
X182319721Y-53745000D01*
X181907244Y-53827047D01*
X181518698Y-53987988D01*
X181169017Y-54221637D01*
X180871637Y-54519017D01*
X180637988Y-54868698D01*
X180477047Y-55257244D01*
X180395000Y-55669721D01*
X152665000Y-55669721D01*
X152665000Y-55404592D01*
X152642790Y-55179087D01*
X152555017Y-54889739D01*
X152412481Y-54623073D01*
X152220661Y-54389339D01*
X151986926Y-54197519D01*
X151720260Y-54054983D01*
X151430912Y-53967210D01*
X151130000Y-53937573D01*
X150829087Y-53967210D01*
X150539739Y-54054983D01*
X150273073Y-54197519D01*
X150039339Y-54389339D01*
X149847519Y-54623074D01*
X149704983Y-54889740D01*
X149617210Y-55179088D01*
X149595000Y-55404593D01*
X147585000Y-55404593D01*
X147585000Y-55404592D01*
X147562790Y-55179087D01*
X147475017Y-54889739D01*
X147332481Y-54623073D01*
X147140661Y-54389339D01*
X146906926Y-54197519D01*
X146640260Y-54054983D01*
X146350912Y-53967210D01*
X146050000Y-53937573D01*
X145749087Y-53967210D01*
X145459739Y-54054983D01*
X145193073Y-54197519D01*
X144959339Y-54389339D01*
X144780000Y-54607865D01*
X144600661Y-54389339D01*
X144366926Y-54197519D01*
X144100260Y-54054983D01*
X143810912Y-53967210D01*
X143510000Y-53937573D01*
X143209087Y-53967210D01*
X142919739Y-54054983D01*
X142653073Y-54197519D01*
X142419339Y-54389339D01*
X142240000Y-54607865D01*
X142060661Y-54389339D01*
X141826926Y-54197519D01*
X141560260Y-54054983D01*
X141270912Y-53967210D01*
X140970000Y-53937573D01*
X140669087Y-53967210D01*
X140379739Y-54054983D01*
X140113073Y-54197519D01*
X139879339Y-54389339D01*
X139700000Y-54607865D01*
X139520661Y-54389339D01*
X139286926Y-54197519D01*
X139020260Y-54054983D01*
X138730912Y-53967210D01*
X138430000Y-53937573D01*
X138129087Y-53967210D01*
X137839739Y-54054983D01*
X137573073Y-54197519D01*
X137339339Y-54389339D01*
X137160000Y-54607865D01*
X136980661Y-54389339D01*
X136746926Y-54197519D01*
X136480260Y-54054983D01*
X136190912Y-53967210D01*
X135890000Y-53937573D01*
X135589087Y-53967210D01*
X135299739Y-54054983D01*
X135033073Y-54197519D01*
X134799339Y-54389339D01*
X134620000Y-54607865D01*
X134440661Y-54389339D01*
X134206926Y-54197519D01*
X133940260Y-54054983D01*
X133650912Y-53967210D01*
X133350000Y-53937573D01*
X133049087Y-53967210D01*
X132759739Y-54054983D01*
X132493073Y-54197519D01*
X132259339Y-54389339D01*
X132080000Y-54607865D01*
X131900661Y-54389339D01*
X131666926Y-54197519D01*
X131400260Y-54054983D01*
X131110912Y-53967210D01*
X130810000Y-53937573D01*
X130509087Y-53967210D01*
X130219739Y-54054983D01*
X129953073Y-54197519D01*
X129719339Y-54389339D01*
X129540000Y-54607865D01*
X129360661Y-54389339D01*
X129126926Y-54197519D01*
X128860260Y-54054983D01*
X128570912Y-53967210D01*
X128270000Y-53937573D01*
X127969087Y-53967210D01*
X127679739Y-54054983D01*
X127413073Y-54197519D01*
X127179339Y-54389339D01*
X127000000Y-54607865D01*
X126820661Y-54389339D01*
X126586926Y-54197519D01*
X126320260Y-54054983D01*
X126030912Y-53967210D01*
X125730000Y-53937573D01*
X125429087Y-53967210D01*
X125139739Y-54054983D01*
X124873073Y-54197519D01*
X124639339Y-54389339D01*
X124460000Y-54607865D01*
X124280661Y-54389339D01*
X124046926Y-54197519D01*
X123780260Y-54054983D01*
X123490912Y-53967210D01*
X123190000Y-53937573D01*
X122889087Y-53967210D01*
X122599739Y-54054983D01*
X122333073Y-54197519D01*
X122099339Y-54389339D01*
X121920000Y-54607865D01*
X121740661Y-54389339D01*
X121506926Y-54197519D01*
X121240260Y-54054983D01*
X120950912Y-53967210D01*
X120650000Y-53937573D01*
X120349087Y-53967210D01*
X120059739Y-54054983D01*
X119793073Y-54197519D01*
X119559339Y-54389339D01*
X119380000Y-54607865D01*
X119200661Y-54389339D01*
X118966926Y-54197519D01*
X118700260Y-54054983D01*
X118410912Y-53967210D01*
X118110000Y-53937573D01*
X117809087Y-53967210D01*
X117519739Y-54054983D01*
X117253073Y-54197519D01*
X117019339Y-54389339D01*
X116827519Y-54623074D01*
X116684983Y-54889740D01*
X116597210Y-55179088D01*
X116575000Y-55404593D01*
X116575000Y-56355408D01*
X116597210Y-56580913D01*
X116684983Y-56870261D01*
X116827519Y-57136927D01*
X117019339Y-57370661D01*
X117253074Y-57562481D01*
X117519740Y-57705017D01*
X117809088Y-57792790D01*
X117955370Y-57807197D01*
X116665961Y-59096607D01*
X116634460Y-59122459D01*
X116608609Y-59153959D01*
X116531301Y-59248158D01*
X116454647Y-59391567D01*
X116407445Y-59547174D01*
X116391506Y-59709000D01*
X78327827Y-59709000D01*
X81148819Y-56896000D01*
X94265815Y-56896000D01*
X94294487Y-57187111D01*
X94379401Y-57467034D01*
X94517294Y-57725014D01*
X94702866Y-57951134D01*
X94928986Y-58136706D01*
X95186966Y-58274599D01*
X95466889Y-58359513D01*
X95685050Y-58381000D01*
X95830950Y-58381000D01*
X96049111Y-58359513D01*
X96329034Y-58274599D01*
X96587014Y-58136706D01*
X96813134Y-57951134D01*
X96998706Y-57725014D01*
X97136599Y-57467034D01*
X97221513Y-57187111D01*
X97250185Y-56896000D01*
X97221513Y-56604889D01*
X97136599Y-56324966D01*
X96998706Y-56066986D01*
X96981484Y-56046000D01*
X99349928Y-56046000D01*
X99349928Y-57746000D01*
X99362188Y-57870482D01*
X99398498Y-57990180D01*
X99457463Y-58100494D01*
X99536815Y-58197185D01*
X99633506Y-58276537D01*
X99743820Y-58335502D01*
X99863518Y-58371812D01*
X99988000Y-58384072D01*
X101688000Y-58384072D01*
X101812482Y-58371812D01*
X101932180Y-58335502D01*
X102042494Y-58276537D01*
X102139185Y-58197185D01*
X102218537Y-58100494D01*
X102277502Y-57990180D01*
X102313812Y-57870482D01*
X102326072Y-57746000D01*
X102326072Y-56046000D01*
X102313812Y-55921518D01*
X102277502Y-55801820D01*
X102218537Y-55691506D01*
X102200659Y-55669721D01*
X105395900Y-55669721D01*
X105395900Y-56090279D01*
X105477947Y-56502756D01*
X105638888Y-56891302D01*
X105872537Y-57240983D01*
X106169917Y-57538363D01*
X106519598Y-57772012D01*
X106908144Y-57932953D01*
X107320621Y-58015000D01*
X107741179Y-58015000D01*
X108153656Y-57932953D01*
X108542202Y-57772012D01*
X108891883Y-57538363D01*
X109189263Y-57240983D01*
X109422912Y-56891302D01*
X109583853Y-56502756D01*
X109665900Y-56090279D01*
X109665900Y-55669721D01*
X109583853Y-55257244D01*
X109422912Y-54868698D01*
X109230011Y-54580000D01*
X111491928Y-54580000D01*
X111491928Y-57180000D01*
X111504188Y-57304482D01*
X111540498Y-57424180D01*
X111599463Y-57534494D01*
X111678815Y-57631185D01*
X111775506Y-57710537D01*
X111885820Y-57769502D01*
X112005518Y-57805812D01*
X112130000Y-57818072D01*
X113930000Y-57818072D01*
X114054482Y-57805812D01*
X114174180Y-57769502D01*
X114284494Y-57710537D01*
X114381185Y-57631185D01*
X114460537Y-57534494D01*
X114519502Y-57424180D01*
X114555812Y-57304482D01*
X114568072Y-57180000D01*
X114568072Y-54580000D01*
X114555812Y-54455518D01*
X114519502Y-54335820D01*
X114460537Y-54225506D01*
X114381185Y-54128815D01*
X114284494Y-54049463D01*
X114174180Y-53990498D01*
X114054482Y-53954188D01*
X113930000Y-53941928D01*
X112130000Y-53941928D01*
X112005518Y-53954188D01*
X111885820Y-53990498D01*
X111775506Y-54049463D01*
X111678815Y-54128815D01*
X111599463Y-54225506D01*
X111540498Y-54335820D01*
X111504188Y-54455518D01*
X111491928Y-54580000D01*
X109230011Y-54580000D01*
X109189263Y-54519017D01*
X108891883Y-54221637D01*
X108542202Y-53987988D01*
X108153656Y-53827047D01*
X107741179Y-53745000D01*
X107320621Y-53745000D01*
X106908144Y-53827047D01*
X106519598Y-53987988D01*
X106169917Y-54221637D01*
X105872537Y-54519017D01*
X105638888Y-54868698D01*
X105477947Y-55257244D01*
X105395900Y-55669721D01*
X102200659Y-55669721D01*
X102139185Y-55594815D01*
X102042494Y-55515463D01*
X101932180Y-55456498D01*
X101812482Y-55420188D01*
X101688000Y-55407928D01*
X99988000Y-55407928D01*
X99863518Y-55420188D01*
X99743820Y-55456498D01*
X99633506Y-55515463D01*
X99536815Y-55594815D01*
X99457463Y-55691506D01*
X99398498Y-55801820D01*
X99362188Y-55921518D01*
X99349928Y-56046000D01*
X96981484Y-56046000D01*
X96813134Y-55840866D01*
X96587014Y-55655294D01*
X96329034Y-55517401D01*
X96049111Y-55432487D01*
X95830950Y-55411000D01*
X95685050Y-55411000D01*
X95466889Y-55432487D01*
X95186966Y-55517401D01*
X94928986Y-55655294D01*
X94702866Y-55840866D01*
X94517294Y-56066986D01*
X94379401Y-56324966D01*
X94294487Y-56604889D01*
X94265815Y-56896000D01*
X81148819Y-56896000D01*
X85226371Y-52830000D01*
X204154569Y-52830000D01*
X212676327Y-61375900D01*
X212676327Y-61375900D01*
G37*
X212676327Y-61375900D02*
X212701475Y-124196123D01*
X204129799Y-132767800D01*
X192084802Y-132767800D01*
X183367604Y-124050603D01*
X183343801Y-124021599D01*
X183228076Y-123926626D01*
X183096047Y-123856054D01*
X182952786Y-123812597D01*
X182841133Y-123801600D01*
X182841122Y-123801600D01*
X182803800Y-123797924D01*
X182766478Y-123801600D01*
X182751599Y-123801600D01*
X106614784Y-123776212D01*
X106576236Y-123772526D01*
X106502773Y-123779972D01*
X106429664Y-123787148D01*
X106428505Y-123787499D01*
X106427293Y-123787622D01*
X106356749Y-123809240D01*
X106286389Y-123830557D01*
X106285318Y-123831129D01*
X106284156Y-123831485D01*
X106219271Y-123866404D01*
X106154336Y-123901085D01*
X106153397Y-123901855D01*
X106152327Y-123902431D01*
X106095341Y-123949468D01*
X106038580Y-123996019D01*
X106014015Y-124025931D01*
X97321537Y-132767800D01*
X85227629Y-132767800D01*
X76655451Y-124171475D01*
X76676886Y-97385899D01*
X88646000Y-97385899D01*
X88646000Y-97686101D01*
X88704566Y-97980534D01*
X88819449Y-98257885D01*
X88986232Y-98507493D01*
X89198507Y-98719768D01*
X89448115Y-98886551D01*
X89725466Y-99001434D01*
X90019899Y-99060000D01*
X90320101Y-99060000D01*
X90614534Y-99001434D01*
X90891885Y-98886551D01*
X91141493Y-98719768D01*
X91353768Y-98507493D01*
X91440000Y-98378438D01*
X91526232Y-98507493D01*
X91738507Y-98719768D01*
X91988115Y-98886551D01*
X92265466Y-99001434D01*
X92559899Y-99060000D01*
X92860101Y-99060000D01*
X93154534Y-99001434D01*
X93431885Y-98886551D01*
X93681493Y-98719768D01*
X93893768Y-98507493D01*
X94060551Y-98257885D01*
X94175434Y-97980534D01*
X94234000Y-97686101D01*
X94234000Y-97385899D01*
X94175434Y-97091466D01*
X94060551Y-96814115D01*
X93893768Y-96564507D01*
X93681493Y-96352232D01*
X93431885Y-96185449D01*
X93154534Y-96070566D01*
X92860101Y-96012000D01*
X92559899Y-96012000D01*
X92265466Y-96070566D01*
X91988115Y-96185449D01*
X91738507Y-96352232D01*
X91526232Y-96564507D01*
X91440000Y-96693562D01*
X91353768Y-96564507D01*
X91141493Y-96352232D01*
X90891885Y-96185449D01*
X90614534Y-96070566D01*
X90320101Y-96012000D01*
X90019899Y-96012000D01*
X89725466Y-96070566D01*
X89448115Y-96185449D01*
X89198507Y-96352232D01*
X88986232Y-96564507D01*
X88819449Y-96814115D01*
X88704566Y-97091466D01*
X88646000Y-97385899D01*
X76676886Y-97385899D01*
X76679702Y-93868382D01*
X80772000Y-93868382D01*
X80772000Y-94218618D01*
X80840328Y-94562123D01*
X80974357Y-94885699D01*
X81168937Y-95176909D01*
X81416591Y-95424563D01*
X81707801Y-95619143D01*
X82031377Y-95753172D01*
X82374882Y-95821500D01*
X82725118Y-95821500D01*
X83068623Y-95753172D01*
X83392199Y-95619143D01*
X83683409Y-95424563D01*
X83931063Y-95176909D01*
X84125643Y-94885699D01*
X84259672Y-94562123D01*
X84328000Y-94218618D01*
X84328000Y-93868382D01*
X96012000Y-93868382D01*
X96012000Y-94218618D01*
X96080328Y-94562123D01*
X96214357Y-94885699D01*
X96408937Y-95176909D01*
X96656591Y-95424563D01*
X96947801Y-95619143D01*
X97271377Y-95753172D01*
X97614882Y-95821500D01*
X97965118Y-95821500D01*
X98308623Y-95753172D01*
X98632199Y-95619143D01*
X98923409Y-95424563D01*
X99171063Y-95176909D01*
X99365643Y-94885699D01*
X99499672Y-94562123D01*
X99568000Y-94218618D01*
X99568000Y-93868382D01*
X99499672Y-93524877D01*
X99365643Y-93201301D01*
X99171063Y-92910091D01*
X98923409Y-92662437D01*
X98632199Y-92467857D01*
X98308623Y-92333828D01*
X97965118Y-92265500D01*
X97614882Y-92265500D01*
X97271377Y-92333828D01*
X96947801Y-92467857D01*
X96656591Y-92662437D01*
X96408937Y-92910091D01*
X96214357Y-93201301D01*
X96080328Y-93524877D01*
X96012000Y-93868382D01*
X84328000Y-93868382D01*
X84259672Y-93524877D01*
X84125643Y-93201301D01*
X83931063Y-92910091D01*
X83683409Y-92662437D01*
X83392199Y-92467857D01*
X83068623Y-92333828D01*
X82725118Y-92265500D01*
X82374882Y-92265500D01*
X82031377Y-92333828D01*
X81707801Y-92467857D01*
X81416591Y-92662437D01*
X81168937Y-92910091D01*
X80974357Y-93201301D01*
X80840328Y-93524877D01*
X80772000Y-93868382D01*
X76679702Y-93868382D01*
X76685019Y-87225899D01*
X78486000Y-87225899D01*
X78486000Y-87526101D01*
X78544566Y-87820534D01*
X78659449Y-88097885D01*
X78826232Y-88347493D01*
X79038507Y-88559768D01*
X79167562Y-88646000D01*
X79038507Y-88732232D01*
X78826232Y-88944507D01*
X78659449Y-89194115D01*
X78544566Y-89471466D01*
X78486000Y-89765899D01*
X78486000Y-90066101D01*
X78544566Y-90360534D01*
X78659449Y-90637885D01*
X78826232Y-90887493D01*
X79038507Y-91099768D01*
X79288115Y-91266551D01*
X79565466Y-91381434D01*
X79859899Y-91440000D01*
X80160101Y-91440000D01*
X80454534Y-91381434D01*
X80731885Y-91266551D01*
X80981493Y-91099768D01*
X81193768Y-90887493D01*
X81360551Y-90637885D01*
X81475434Y-90360534D01*
X81534000Y-90066101D01*
X81534000Y-89765899D01*
X81475434Y-89471466D01*
X81360551Y-89194115D01*
X81193768Y-88944507D01*
X80981493Y-88732232D01*
X80852438Y-88646000D01*
X80981493Y-88559768D01*
X81193768Y-88347493D01*
X81360551Y-88097885D01*
X81475434Y-87820534D01*
X81534000Y-87526101D01*
X81534000Y-87225899D01*
X81475434Y-86931466D01*
X81360551Y-86654115D01*
X81193768Y-86404507D01*
X80981493Y-86192232D01*
X80731885Y-86025449D01*
X80454534Y-85910566D01*
X80160101Y-85852000D01*
X79859899Y-85852000D01*
X79565466Y-85910566D01*
X79288115Y-86025449D01*
X79038507Y-86192232D01*
X78826232Y-86404507D01*
X78659449Y-86654115D01*
X78544566Y-86931466D01*
X78486000Y-87225899D01*
X76685019Y-87225899D01*
X76690375Y-80533382D01*
X80772000Y-80533382D01*
X80772000Y-80883618D01*
X80840328Y-81227123D01*
X80974357Y-81550699D01*
X81168937Y-81841909D01*
X81416591Y-82089563D01*
X81707801Y-82284143D01*
X82031377Y-82418172D01*
X82374882Y-82486500D01*
X82725118Y-82486500D01*
X83068623Y-82418172D01*
X83392199Y-82284143D01*
X83683409Y-82089563D01*
X83931063Y-81841909D01*
X84125643Y-81550699D01*
X84259672Y-81227123D01*
X84328000Y-80883618D01*
X84328000Y-80533382D01*
X84259672Y-80189877D01*
X84125643Y-79866301D01*
X83951649Y-79605899D01*
X85471000Y-79605899D01*
X85471000Y-79906101D01*
X85529566Y-80200534D01*
X85644449Y-80477885D01*
X85811232Y-80727493D01*
X86023507Y-80939768D01*
X86273115Y-81106551D01*
X86550466Y-81221434D01*
X86844899Y-81280000D01*
X87145101Y-81280000D01*
X87439534Y-81221434D01*
X87716885Y-81106551D01*
X87966493Y-80939768D01*
X88178768Y-80727493D01*
X88345551Y-80477885D01*
X88460434Y-80200534D01*
X88519000Y-79906101D01*
X88519000Y-79605899D01*
X91821000Y-79605899D01*
X91821000Y-79906101D01*
X91879566Y-80200534D01*
X91994449Y-80477885D01*
X92161232Y-80727493D01*
X92373507Y-80939768D01*
X92623115Y-81106551D01*
X92900466Y-81221434D01*
X93194899Y-81280000D01*
X93495101Y-81280000D01*
X93789534Y-81221434D01*
X94066885Y-81106551D01*
X94316493Y-80939768D01*
X94528768Y-80727493D01*
X94658469Y-80533382D01*
X96012000Y-80533382D01*
X96012000Y-80883618D01*
X96080328Y-81227123D01*
X96214357Y-81550699D01*
X96408937Y-81841909D01*
X96656591Y-82089563D01*
X96947801Y-82284143D01*
X97271377Y-82418172D01*
X97614882Y-82486500D01*
X97965118Y-82486500D01*
X98308623Y-82418172D01*
X98632199Y-82284143D01*
X98923409Y-82089563D01*
X99171063Y-81841909D01*
X99365643Y-81550699D01*
X99499672Y-81227123D01*
X99568000Y-80883618D01*
X99568000Y-80533382D01*
X99499672Y-80189877D01*
X99365643Y-79866301D01*
X99171063Y-79575091D01*
X98923409Y-79327437D01*
X98632199Y-79132857D01*
X98308623Y-78998828D01*
X97965118Y-78930500D01*
X97614882Y-78930500D01*
X97271377Y-78998828D01*
X96947801Y-79132857D01*
X96656591Y-79327437D01*
X96408937Y-79575091D01*
X96214357Y-79866301D01*
X96080328Y-80189877D01*
X96012000Y-80533382D01*
X94658469Y-80533382D01*
X94695551Y-80477885D01*
X94810434Y-80200534D01*
X94869000Y-79906101D01*
X94869000Y-79605899D01*
X94810434Y-79311466D01*
X94695551Y-79034115D01*
X94528768Y-78784507D01*
X94316493Y-78572232D01*
X94066885Y-78405449D01*
X93789534Y-78290566D01*
X93495101Y-78232000D01*
X93194899Y-78232000D01*
X92900466Y-78290566D01*
X92623115Y-78405449D01*
X92373507Y-78572232D01*
X92161232Y-78784507D01*
X91994449Y-79034115D01*
X91879566Y-79311466D01*
X91821000Y-79605899D01*
X88519000Y-79605899D01*
X88460434Y-79311466D01*
X88345551Y-79034115D01*
X88178768Y-78784507D01*
X87966493Y-78572232D01*
X87716885Y-78405449D01*
X87439534Y-78290566D01*
X87145101Y-78232000D01*
X86844899Y-78232000D01*
X86550466Y-78290566D01*
X86273115Y-78405449D01*
X86023507Y-78572232D01*
X85811232Y-78784507D01*
X85644449Y-79034115D01*
X85529566Y-79311466D01*
X85471000Y-79605899D01*
X83951649Y-79605899D01*
X83931063Y-79575091D01*
X83683409Y-79327437D01*
X83392199Y-79132857D01*
X83068623Y-78998828D01*
X82725118Y-78930500D01*
X82374882Y-78930500D01*
X82031377Y-78998828D01*
X81707801Y-79132857D01*
X81416591Y-79327437D01*
X81168937Y-79575091D01*
X80974357Y-79866301D01*
X80840328Y-80189877D01*
X80772000Y-80533382D01*
X76690375Y-80533382D01*
X76695183Y-74525899D01*
X85471000Y-74525899D01*
X85471000Y-74826101D01*
X85529566Y-75120534D01*
X85644449Y-75397885D01*
X85811232Y-75647493D01*
X86023507Y-75859768D01*
X86273115Y-76026551D01*
X86550466Y-76141434D01*
X86844899Y-76200000D01*
X87145101Y-76200000D01*
X87439534Y-76141434D01*
X87716885Y-76026551D01*
X87966493Y-75859768D01*
X88178768Y-75647493D01*
X88345551Y-75397885D01*
X88460434Y-75120534D01*
X88519000Y-74826101D01*
X88519000Y-74525899D01*
X91821000Y-74525899D01*
X91821000Y-74826101D01*
X91879566Y-75120534D01*
X91994449Y-75397885D01*
X92161232Y-75647493D01*
X92373507Y-75859768D01*
X92623115Y-76026551D01*
X92900466Y-76141434D01*
X93194899Y-76200000D01*
X93495101Y-76200000D01*
X93789534Y-76141434D01*
X94066885Y-76026551D01*
X94316493Y-75859768D01*
X94528768Y-75647493D01*
X94695551Y-75397885D01*
X94810434Y-75120534D01*
X94869000Y-74826101D01*
X94869000Y-74525899D01*
X94810434Y-74231466D01*
X94695551Y-73954115D01*
X94528768Y-73704507D01*
X94316493Y-73492232D01*
X94066885Y-73325449D01*
X93789534Y-73210566D01*
X93495101Y-73152000D01*
X93194899Y-73152000D01*
X92900466Y-73210566D01*
X92623115Y-73325449D01*
X92373507Y-73492232D01*
X92161232Y-73704507D01*
X91994449Y-73954115D01*
X91879566Y-74231466D01*
X91821000Y-74525899D01*
X88519000Y-74525899D01*
X88460434Y-74231466D01*
X88345551Y-73954115D01*
X88178768Y-73704507D01*
X87966493Y-73492232D01*
X87716885Y-73325449D01*
X87439534Y-73210566D01*
X87145101Y-73152000D01*
X86844899Y-73152000D01*
X86550466Y-73210566D01*
X86273115Y-73325449D01*
X86023507Y-73492232D01*
X85811232Y-73704507D01*
X85644449Y-73954115D01*
X85529566Y-74231466D01*
X85471000Y-74525899D01*
X76695183Y-74525899D01*
X76697278Y-71907061D01*
X102216000Y-71907061D01*
X102216000Y-72110939D01*
X102255774Y-72310898D01*
X102333795Y-72499256D01*
X102425500Y-72636503D01*
X102425501Y-93177439D01*
X102421506Y-93218000D01*
X102437445Y-93379826D01*
X102484647Y-93535433D01*
X102561301Y-93678842D01*
X102584411Y-93707001D01*
X102664460Y-93804541D01*
X102695961Y-93830393D01*
X106870500Y-98004933D01*
X106870501Y-120482439D01*
X106866506Y-120523000D01*
X106882445Y-120684826D01*
X106929647Y-120840433D01*
X107006301Y-120983842D01*
X107067863Y-121058854D01*
X107109460Y-121109541D01*
X107140961Y-121135393D01*
X109496606Y-123491039D01*
X109522459Y-123522541D01*
X109648158Y-123625699D01*
X109791566Y-123702353D01*
X109947174Y-123749556D01*
X110068447Y-123761500D01*
X110068449Y-123761500D01*
X110108999Y-123765494D01*
X110149550Y-123761500D01*
X143367850Y-123761500D01*
X143408400Y-123765494D01*
X143448950Y-123761500D01*
X143448953Y-123761500D01*
X143570226Y-123749556D01*
X143725834Y-123702353D01*
X143869242Y-123625699D01*
X143994941Y-123522541D01*
X144020798Y-123491034D01*
X146292892Y-121218940D01*
X146369608Y-121234200D01*
X146644792Y-121234200D01*
X146914690Y-121180514D01*
X147168927Y-121075205D01*
X147397735Y-120922320D01*
X147592320Y-120727735D01*
X147745205Y-120498927D01*
X147850514Y-120244690D01*
X147904200Y-119974792D01*
X147904200Y-119699608D01*
X147850514Y-119429710D01*
X147745205Y-119175473D01*
X147686690Y-119087900D01*
X170545850Y-119087900D01*
X170586400Y-119091894D01*
X170626950Y-119087900D01*
X170626953Y-119087900D01*
X170748226Y-119075956D01*
X170903834Y-119028753D01*
X171047242Y-118952099D01*
X171172941Y-118848941D01*
X171198798Y-118817434D01*
X174240733Y-115775499D01*
X197612000Y-115775499D01*
X197612000Y-116075701D01*
X197670566Y-116370134D01*
X197785449Y-116647485D01*
X197952232Y-116897093D01*
X198164507Y-117109368D01*
X198414115Y-117276151D01*
X198691466Y-117391034D01*
X198985899Y-117449600D01*
X199286101Y-117449600D01*
X199580534Y-117391034D01*
X199857885Y-117276151D01*
X200107493Y-117109368D01*
X200319768Y-116897093D01*
X200406000Y-116768038D01*
X200492232Y-116897093D01*
X200704507Y-117109368D01*
X200954115Y-117276151D01*
X201231466Y-117391034D01*
X201525899Y-117449600D01*
X201826101Y-117449600D01*
X202120534Y-117391034D01*
X202397885Y-117276151D01*
X202647493Y-117109368D01*
X202859768Y-116897093D01*
X203026551Y-116647485D01*
X203141434Y-116370134D01*
X203200000Y-116075701D01*
X203200000Y-115775499D01*
X203141434Y-115481066D01*
X203026551Y-115203715D01*
X202859768Y-114954107D01*
X202647493Y-114741832D01*
X202397885Y-114575049D01*
X202120534Y-114460166D01*
X201826101Y-114401600D01*
X201525899Y-114401600D01*
X201231466Y-114460166D01*
X200954115Y-114575049D01*
X200704507Y-114741832D01*
X200492232Y-114954107D01*
X200406000Y-115083162D01*
X200319768Y-114954107D01*
X200107493Y-114741832D01*
X199857885Y-114575049D01*
X199580534Y-114460166D01*
X199286101Y-114401600D01*
X198985899Y-114401600D01*
X198691466Y-114460166D01*
X198414115Y-114575049D01*
X198164507Y-114741832D01*
X197952232Y-114954107D01*
X197785449Y-115203715D01*
X197670566Y-115481066D01*
X197612000Y-115775499D01*
X174240733Y-115775499D01*
X174443439Y-115572794D01*
X174474941Y-115546941D01*
X174529003Y-115481066D01*
X174578099Y-115421243D01*
X174654753Y-115277834D01*
X174668398Y-115232852D01*
X174701956Y-115122226D01*
X174713900Y-115000953D01*
X174713900Y-115000951D01*
X174717894Y-114960401D01*
X174713900Y-114919850D01*
X174713900Y-112257982D01*
X189738000Y-112257982D01*
X189738000Y-112608218D01*
X189806328Y-112951723D01*
X189940357Y-113275299D01*
X190134937Y-113566509D01*
X190382591Y-113814163D01*
X190673801Y-114008743D01*
X190997377Y-114142772D01*
X191340882Y-114211100D01*
X191691118Y-114211100D01*
X192034623Y-114142772D01*
X192358199Y-114008743D01*
X192649409Y-113814163D01*
X192897063Y-113566509D01*
X193091643Y-113275299D01*
X193225672Y-112951723D01*
X193294000Y-112608218D01*
X193294000Y-112257982D01*
X204978000Y-112257982D01*
X204978000Y-112608218D01*
X205046328Y-112951723D01*
X205180357Y-113275299D01*
X205374937Y-113566509D01*
X205622591Y-113814163D01*
X205913801Y-114008743D01*
X206237377Y-114142772D01*
X206580882Y-114211100D01*
X206931118Y-114211100D01*
X207274623Y-114142772D01*
X207598199Y-114008743D01*
X207889409Y-113814163D01*
X208137063Y-113566509D01*
X208331643Y-113275299D01*
X208465672Y-112951723D01*
X208534000Y-112608218D01*
X208534000Y-112257982D01*
X208465672Y-111914477D01*
X208331643Y-111590901D01*
X208137063Y-111299691D01*
X207889409Y-111052037D01*
X207598199Y-110857457D01*
X207274623Y-110723428D01*
X206931118Y-110655100D01*
X206580882Y-110655100D01*
X206237377Y-110723428D01*
X205913801Y-110857457D01*
X205622591Y-111052037D01*
X205374937Y-111299691D01*
X205180357Y-111590901D01*
X205046328Y-111914477D01*
X204978000Y-112257982D01*
X193294000Y-112257982D01*
X193225672Y-111914477D01*
X193091643Y-111590901D01*
X192897063Y-111299691D01*
X192649409Y-111052037D01*
X192358199Y-110857457D01*
X192034623Y-110723428D01*
X191691118Y-110655100D01*
X191340882Y-110655100D01*
X190997377Y-110723428D01*
X190673801Y-110857457D01*
X190382591Y-111052037D01*
X190134937Y-111299691D01*
X189940357Y-111590901D01*
X189806328Y-111914477D01*
X189738000Y-112257982D01*
X174713900Y-112257982D01*
X174713900Y-110834245D01*
X174791815Y-110929185D01*
X174888506Y-111008537D01*
X174998820Y-111067502D01*
X175118518Y-111103812D01*
X175243000Y-111116072D01*
X176293000Y-111116072D01*
X176417482Y-111103812D01*
X176537180Y-111067502D01*
X176601902Y-111032907D01*
X176810601Y-111096215D01*
X177038000Y-111118612D01*
X177265400Y-111096215D01*
X177484060Y-111029885D01*
X177673001Y-110928894D01*
X177861941Y-111029885D01*
X178080601Y-111096215D01*
X178308000Y-111118612D01*
X178535400Y-111096215D01*
X178754060Y-111029885D01*
X178955579Y-110922171D01*
X179132212Y-110777212D01*
X179277171Y-110600579D01*
X179384885Y-110399059D01*
X179451215Y-110180399D01*
X179468000Y-110009978D01*
X179468000Y-109446021D01*
X179451215Y-109275600D01*
X179384885Y-109056940D01*
X179277171Y-108855421D01*
X179132212Y-108678788D01*
X178955578Y-108533829D01*
X178754059Y-108426115D01*
X178535399Y-108359785D01*
X178308000Y-108337388D01*
X178080600Y-108359785D01*
X177861940Y-108426115D01*
X177673000Y-108527106D01*
X177484059Y-108426115D01*
X177265399Y-108359785D01*
X177038000Y-108337388D01*
X176810600Y-108359785D01*
X176601902Y-108423093D01*
X176537180Y-108388498D01*
X176417482Y-108352188D01*
X176293000Y-108339928D01*
X175243000Y-108339928D01*
X175118518Y-108352188D01*
X174998820Y-108388498D01*
X174943210Y-108418223D01*
X176373845Y-106987589D01*
X176405341Y-106961741D01*
X176431189Y-106930245D01*
X176431192Y-106930242D01*
X176508499Y-106836043D01*
X176585153Y-106692634D01*
X176590168Y-106676101D01*
X176632356Y-106537026D01*
X176644300Y-106415753D01*
X176644300Y-106415751D01*
X176648294Y-106375200D01*
X176644300Y-106334650D01*
X176644300Y-105615499D01*
X187452000Y-105615499D01*
X187452000Y-105915701D01*
X187510566Y-106210134D01*
X187625449Y-106487485D01*
X187792232Y-106737093D01*
X188004507Y-106949368D01*
X188133562Y-107035600D01*
X188004507Y-107121832D01*
X187792232Y-107334107D01*
X187625449Y-107583715D01*
X187510566Y-107861066D01*
X187452000Y-108155499D01*
X187452000Y-108455701D01*
X187510566Y-108750134D01*
X187625449Y-109027485D01*
X187792232Y-109277093D01*
X188004507Y-109489368D01*
X188254115Y-109656151D01*
X188531466Y-109771034D01*
X188825899Y-109829600D01*
X189126101Y-109829600D01*
X189420534Y-109771034D01*
X189697885Y-109656151D01*
X189947493Y-109489368D01*
X190159768Y-109277093D01*
X190326551Y-109027485D01*
X190441434Y-108750134D01*
X190500000Y-108455701D01*
X190500000Y-108155499D01*
X190441434Y-107861066D01*
X190326551Y-107583715D01*
X190159768Y-107334107D01*
X189947493Y-107121832D01*
X189818438Y-107035600D01*
X189947493Y-106949368D01*
X190159768Y-106737093D01*
X190326551Y-106487485D01*
X190441434Y-106210134D01*
X190500000Y-105915701D01*
X190500000Y-105615499D01*
X190441434Y-105321066D01*
X190326551Y-105043715D01*
X190159768Y-104794107D01*
X189947493Y-104581832D01*
X189697885Y-104415049D01*
X189420534Y-104300166D01*
X189126101Y-104241600D01*
X188825899Y-104241600D01*
X188531466Y-104300166D01*
X188254115Y-104415049D01*
X188004507Y-104581832D01*
X187792232Y-104794107D01*
X187625449Y-105043715D01*
X187510566Y-105321066D01*
X187452000Y-105615499D01*
X176644300Y-105615499D01*
X176644300Y-99576710D01*
X176794629Y-99576710D01*
X176994588Y-99536936D01*
X177182946Y-99458915D01*
X177352464Y-99345647D01*
X177496627Y-99201484D01*
X177609895Y-99031966D01*
X177655037Y-98922982D01*
X189738000Y-98922982D01*
X189738000Y-99273218D01*
X189806328Y-99616723D01*
X189940357Y-99940299D01*
X190134937Y-100231509D01*
X190382591Y-100479163D01*
X190673801Y-100673743D01*
X190997377Y-100807772D01*
X191340882Y-100876100D01*
X191691118Y-100876100D01*
X192034623Y-100807772D01*
X192358199Y-100673743D01*
X192649409Y-100479163D01*
X192897063Y-100231509D01*
X193091643Y-99940299D01*
X193225672Y-99616723D01*
X193294000Y-99273218D01*
X193294000Y-98922982D01*
X193225672Y-98579477D01*
X193091643Y-98255901D01*
X192917649Y-97995499D01*
X194437000Y-97995499D01*
X194437000Y-98295701D01*
X194495566Y-98590134D01*
X194610449Y-98867485D01*
X194777232Y-99117093D01*
X194989507Y-99329368D01*
X195239115Y-99496151D01*
X195516466Y-99611034D01*
X195810899Y-99669600D01*
X196111101Y-99669600D01*
X196405534Y-99611034D01*
X196682885Y-99496151D01*
X196932493Y-99329368D01*
X197144768Y-99117093D01*
X197311551Y-98867485D01*
X197426434Y-98590134D01*
X197485000Y-98295701D01*
X197485000Y-97995499D01*
X200787000Y-97995499D01*
X200787000Y-98295701D01*
X200845566Y-98590134D01*
X200960449Y-98867485D01*
X201127232Y-99117093D01*
X201339507Y-99329368D01*
X201589115Y-99496151D01*
X201866466Y-99611034D01*
X202160899Y-99669600D01*
X202461101Y-99669600D01*
X202755534Y-99611034D01*
X203032885Y-99496151D01*
X203282493Y-99329368D01*
X203494768Y-99117093D01*
X203624469Y-98922982D01*
X204978000Y-98922982D01*
X204978000Y-99273218D01*
X205046328Y-99616723D01*
X205180357Y-99940299D01*
X205374937Y-100231509D01*
X205622591Y-100479163D01*
X205913801Y-100673743D01*
X206237377Y-100807772D01*
X206580882Y-100876100D01*
X206931118Y-100876100D01*
X207274623Y-100807772D01*
X207598199Y-100673743D01*
X207889409Y-100479163D01*
X208137063Y-100231509D01*
X208331643Y-99940299D01*
X208465672Y-99616723D01*
X208534000Y-99273218D01*
X208534000Y-98922982D01*
X208465672Y-98579477D01*
X208331643Y-98255901D01*
X208137063Y-97964691D01*
X207889409Y-97717037D01*
X207598199Y-97522457D01*
X207274623Y-97388428D01*
X206931118Y-97320100D01*
X206580882Y-97320100D01*
X206237377Y-97388428D01*
X205913801Y-97522457D01*
X205622591Y-97717037D01*
X205374937Y-97964691D01*
X205180357Y-98255901D01*
X205046328Y-98579477D01*
X204978000Y-98922982D01*
X203624469Y-98922982D01*
X203661551Y-98867485D01*
X203776434Y-98590134D01*
X203835000Y-98295701D01*
X203835000Y-97995499D01*
X203776434Y-97701066D01*
X203661551Y-97423715D01*
X203494768Y-97174107D01*
X203282493Y-96961832D01*
X203032885Y-96795049D01*
X202755534Y-96680166D01*
X202461101Y-96621600D01*
X202160899Y-96621600D01*
X201866466Y-96680166D01*
X201589115Y-96795049D01*
X201339507Y-96961832D01*
X201127232Y-97174107D01*
X200960449Y-97423715D01*
X200845566Y-97701066D01*
X200787000Y-97995499D01*
X197485000Y-97995499D01*
X197426434Y-97701066D01*
X197311551Y-97423715D01*
X197144768Y-97174107D01*
X196932493Y-96961832D01*
X196682885Y-96795049D01*
X196405534Y-96680166D01*
X196111101Y-96621600D01*
X195810899Y-96621600D01*
X195516466Y-96680166D01*
X195239115Y-96795049D01*
X194989507Y-96961832D01*
X194777232Y-97174107D01*
X194610449Y-97423715D01*
X194495566Y-97701066D01*
X194437000Y-97995499D01*
X192917649Y-97995499D01*
X192897063Y-97964691D01*
X192649409Y-97717037D01*
X192358199Y-97522457D01*
X192034623Y-97388428D01*
X191691118Y-97320100D01*
X191340882Y-97320100D01*
X190997377Y-97388428D01*
X190673801Y-97522457D01*
X190382591Y-97717037D01*
X190134937Y-97964691D01*
X189940357Y-98255901D01*
X189806328Y-98579477D01*
X189738000Y-98922982D01*
X177655037Y-98922982D01*
X177687916Y-98843608D01*
X177727690Y-98643649D01*
X177727690Y-98439771D01*
X177687916Y-98239812D01*
X177609895Y-98051454D01*
X177496627Y-97881936D01*
X177486021Y-97871330D01*
X177559095Y-97761966D01*
X177637116Y-97573608D01*
X177676890Y-97373649D01*
X177676890Y-97169771D01*
X177637116Y-96969812D01*
X177559095Y-96781454D01*
X177445827Y-96611936D01*
X177301664Y-96467773D01*
X177132146Y-96354505D01*
X176943788Y-96276484D01*
X176743829Y-96236710D01*
X176539951Y-96236710D01*
X176339992Y-96276484D01*
X176151634Y-96354505D01*
X176010711Y-96448666D01*
X175914379Y-96458154D01*
X175773134Y-96501000D01*
X175758771Y-96505357D01*
X175615362Y-96582011D01*
X175578899Y-96611936D01*
X175489664Y-96685169D01*
X175463811Y-96716671D01*
X174958965Y-97221517D01*
X174927459Y-97247374D01*
X174867775Y-97320100D01*
X174824301Y-97373073D01*
X174782682Y-97450937D01*
X174747647Y-97516482D01*
X174700444Y-97672090D01*
X174689840Y-97779759D01*
X174684506Y-97833915D01*
X174688500Y-97874465D01*
X174688500Y-97991111D01*
X174682755Y-97996856D01*
X174651249Y-98022712D01*
X174599913Y-98085266D01*
X174548091Y-98148411D01*
X174535901Y-98171217D01*
X174471437Y-98291820D01*
X174424234Y-98447428D01*
X174412290Y-98568700D01*
X174408296Y-98609253D01*
X174412290Y-98649804D01*
X174412291Y-105792603D01*
X172752356Y-107452540D01*
X172720849Y-107478397D01*
X172651604Y-107562773D01*
X172617691Y-107604096D01*
X172602545Y-107632433D01*
X172541037Y-107747505D01*
X172493834Y-107903113D01*
X172484268Y-108000241D01*
X172477896Y-108064938D01*
X172481890Y-108105489D01*
X172481891Y-114335875D01*
X169961878Y-116855890D01*
X143623560Y-116855890D01*
X143583010Y-116851896D01*
X143542459Y-116855890D01*
X143542457Y-116855890D01*
X143421184Y-116867834D01*
X143265576Y-116915037D01*
X143122167Y-116991691D01*
X143027968Y-117068998D01*
X143027965Y-117069001D01*
X142996469Y-117094849D01*
X142970621Y-117126345D01*
X141641508Y-118455460D01*
X141564792Y-118440200D01*
X141289608Y-118440200D01*
X141019710Y-118493886D01*
X140765473Y-118599195D01*
X140536665Y-118752080D01*
X140342080Y-118946665D01*
X140189195Y-119175473D01*
X140157200Y-119252715D01*
X140125205Y-119175473D01*
X139972320Y-118946665D01*
X139777735Y-118752080D01*
X139712700Y-118708625D01*
X139712700Y-112039061D01*
X140443000Y-112039061D01*
X140443000Y-112242939D01*
X140482774Y-112442898D01*
X140560795Y-112631256D01*
X140674063Y-112800774D01*
X140818226Y-112944937D01*
X140987744Y-113058205D01*
X141176102Y-113136226D01*
X141376061Y-113176000D01*
X141579939Y-113176000D01*
X141779898Y-113136226D01*
X141968256Y-113058205D01*
X142105503Y-112966500D01*
X147914450Y-112966500D01*
X147955000Y-112970494D01*
X147995550Y-112966500D01*
X147995553Y-112966500D01*
X148116826Y-112954556D01*
X148272434Y-112907353D01*
X148415842Y-112830699D01*
X148541541Y-112727541D01*
X148567398Y-112696034D01*
X151014732Y-110248700D01*
X156930828Y-110248700D01*
X156930828Y-111594900D01*
X156943088Y-111719382D01*
X156979398Y-111839080D01*
X157038363Y-111949394D01*
X157117715Y-112046085D01*
X157214406Y-112125437D01*
X157324720Y-112184402D01*
X157444418Y-112220712D01*
X157568900Y-112232972D01*
X158915100Y-112232972D01*
X159039582Y-112220712D01*
X159159280Y-112184402D01*
X159269594Y-112125437D01*
X159366285Y-112046085D01*
X159445637Y-111949394D01*
X159504602Y-111839080D01*
X159540912Y-111719382D01*
X159553172Y-111594900D01*
X159553172Y-110248700D01*
X159540912Y-110124218D01*
X159504602Y-110004520D01*
X159445637Y-109894206D01*
X159366285Y-109797515D01*
X159269594Y-109718163D01*
X159159280Y-109659198D01*
X159039582Y-109622888D01*
X158915100Y-109610628D01*
X157568900Y-109610628D01*
X157444418Y-109622888D01*
X157324720Y-109659198D01*
X157214406Y-109718163D01*
X157117715Y-109797515D01*
X157038363Y-109894206D01*
X156979398Y-110004520D01*
X156943088Y-110124218D01*
X156930828Y-110248700D01*
X151014732Y-110248700D01*
X153010469Y-108252963D01*
X159473900Y-108252963D01*
X159473900Y-108510637D01*
X159524170Y-108763359D01*
X159622777Y-109001418D01*
X159765933Y-109215665D01*
X159948135Y-109397867D01*
X160162382Y-109541023D01*
X160400441Y-109639630D01*
X160653163Y-109689900D01*
X160910837Y-109689900D01*
X161163559Y-109639630D01*
X161401618Y-109541023D01*
X161615865Y-109397867D01*
X161641671Y-109372061D01*
X166732000Y-109372061D01*
X166732000Y-109575939D01*
X166771774Y-109775898D01*
X166849795Y-109964256D01*
X166963063Y-110133774D01*
X167107226Y-110277937D01*
X167276744Y-110391205D01*
X167465102Y-110469226D01*
X167665061Y-110509000D01*
X167868939Y-110509000D01*
X168068898Y-110469226D01*
X168257256Y-110391205D01*
X168426774Y-110277937D01*
X168570937Y-110133774D01*
X168684205Y-109964256D01*
X168762226Y-109775898D01*
X168794429Y-109614004D01*
X170066005Y-108342428D01*
X170227898Y-108310226D01*
X170416256Y-108232205D01*
X170585774Y-108118937D01*
X170729937Y-107974774D01*
X170843205Y-107805256D01*
X170921226Y-107616898D01*
X170953429Y-107455004D01*
X172640039Y-105768394D01*
X172671541Y-105742541D01*
X172733296Y-105667292D01*
X172774699Y-105616843D01*
X172851353Y-105473434D01*
X172860027Y-105444839D01*
X172898556Y-105317826D01*
X172910500Y-105196553D01*
X172910500Y-105196551D01*
X172914494Y-105156001D01*
X172910500Y-105115450D01*
X172910500Y-103751503D01*
X173002205Y-103614256D01*
X173080226Y-103425898D01*
X173120000Y-103225939D01*
X173120000Y-103022061D01*
X173080226Y-102822102D01*
X173002205Y-102633744D01*
X172888937Y-102464226D01*
X172744774Y-102320063D01*
X172575256Y-102206795D01*
X172386898Y-102128774D01*
X172186939Y-102089000D01*
X171983061Y-102089000D01*
X171783102Y-102128774D01*
X171594744Y-102206795D01*
X171425226Y-102320063D01*
X171281063Y-102464226D01*
X171167795Y-102633744D01*
X171089774Y-102822102D01*
X171050000Y-103022061D01*
X171050000Y-103225939D01*
X171089774Y-103425898D01*
X171167795Y-103614256D01*
X171259500Y-103751503D01*
X171259501Y-104814066D01*
X169785996Y-106287571D01*
X169624102Y-106319774D01*
X169435744Y-106397795D01*
X169266226Y-106511063D01*
X169122063Y-106655226D01*
X169008795Y-106824744D01*
X168930774Y-107013102D01*
X168898572Y-107174995D01*
X167626996Y-108446571D01*
X167465102Y-108478774D01*
X167276744Y-108556795D01*
X167107226Y-108670063D01*
X166963063Y-108814226D01*
X166849795Y-108983744D01*
X166771774Y-109172102D01*
X166732000Y-109372061D01*
X161641671Y-109372061D01*
X161798067Y-109215665D01*
X161805713Y-109204222D01*
X161895733Y-109195356D01*
X162051341Y-109148153D01*
X162194749Y-109071499D01*
X162320448Y-108968341D01*
X162346305Y-108936834D01*
X165756180Y-105526961D01*
X165861804Y-105440278D01*
X165887660Y-105408772D01*
X166129004Y-105167428D01*
X166290898Y-105135226D01*
X166479256Y-105057205D01*
X166648774Y-104943937D01*
X166792937Y-104799774D01*
X166906205Y-104630256D01*
X166984226Y-104441898D01*
X167024000Y-104241939D01*
X167024000Y-104038061D01*
X166984226Y-103838102D01*
X166906205Y-103649744D01*
X166792937Y-103480226D01*
X166648774Y-103336063D01*
X166479256Y-103222795D01*
X166290898Y-103144774D01*
X166090939Y-103105000D01*
X165887061Y-103105000D01*
X165687102Y-103144774D01*
X165498744Y-103222795D01*
X165329226Y-103336063D01*
X165185063Y-103480226D01*
X165071795Y-103649744D01*
X164993774Y-103838102D01*
X164961572Y-103999996D01*
X164781066Y-104180501D01*
X164706928Y-104241345D01*
X164706925Y-104241348D01*
X164675429Y-104267196D01*
X164649581Y-104298692D01*
X161595889Y-107352386D01*
X161401618Y-107222577D01*
X161163559Y-107123970D01*
X160910837Y-107073700D01*
X160653163Y-107073700D01*
X160400441Y-107123970D01*
X160162382Y-107222577D01*
X159948135Y-107365733D01*
X159765933Y-107547935D01*
X159622777Y-107762182D01*
X159524170Y-108000241D01*
X159473900Y-108252963D01*
X153010469Y-108252963D01*
X157040935Y-104222499D01*
X160976451Y-104222499D01*
X161017001Y-104226493D01*
X161057551Y-104222499D01*
X161057554Y-104222499D01*
X161178827Y-104210555D01*
X161334435Y-104163352D01*
X161477843Y-104086698D01*
X161552668Y-104025291D01*
X161718898Y-103992226D01*
X161907256Y-103914205D01*
X162076774Y-103800937D01*
X162220937Y-103656774D01*
X162334205Y-103487256D01*
X162412226Y-103298898D01*
X162452000Y-103098939D01*
X162452000Y-102895061D01*
X162412226Y-102695102D01*
X162334205Y-102506744D01*
X162237490Y-102362000D01*
X162334205Y-102217256D01*
X162412226Y-102028898D01*
X162452000Y-101828939D01*
X162452000Y-101625061D01*
X162412226Y-101425102D01*
X162334205Y-101236744D01*
X162237490Y-101092000D01*
X162334205Y-100947256D01*
X162412226Y-100758898D01*
X162452000Y-100558939D01*
X162452000Y-100355061D01*
X162412226Y-100155102D01*
X162334205Y-99966744D01*
X162237490Y-99822000D01*
X162334205Y-99677256D01*
X162412226Y-99488898D01*
X162452000Y-99288939D01*
X162452000Y-99085061D01*
X162412226Y-98885102D01*
X162334205Y-98696744D01*
X162220937Y-98527226D01*
X162076774Y-98383063D01*
X161907256Y-98269795D01*
X161718898Y-98191774D01*
X161518939Y-98152000D01*
X161315061Y-98152000D01*
X161115102Y-98191774D01*
X160926744Y-98269795D01*
X160757226Y-98383063D01*
X160613063Y-98527226D01*
X160499795Y-98696744D01*
X160421774Y-98885102D01*
X160389572Y-99046996D01*
X158608096Y-100828472D01*
X156017562Y-100828472D01*
X155977012Y-100824478D01*
X155936461Y-100828472D01*
X155936459Y-100828472D01*
X155815186Y-100840416D01*
X155659578Y-100887619D01*
X155516169Y-100964273D01*
X155421970Y-101041580D01*
X155421967Y-101041583D01*
X155390471Y-101067431D01*
X155364623Y-101098927D01*
X148042690Y-108420862D01*
X147875898Y-108351774D01*
X147675939Y-108312000D01*
X147472061Y-108312000D01*
X147272102Y-108351774D01*
X147083744Y-108429795D01*
X146914226Y-108543063D01*
X146770063Y-108687226D01*
X146656795Y-108856744D01*
X146578774Y-109045102D01*
X146539000Y-109245061D01*
X146539000Y-109410500D01*
X146042503Y-109410500D01*
X145905256Y-109318795D01*
X145716898Y-109240774D01*
X145516939Y-109201000D01*
X145313061Y-109201000D01*
X145113102Y-109240774D01*
X144924744Y-109318795D01*
X144755226Y-109432063D01*
X144611063Y-109576226D01*
X144497795Y-109745744D01*
X144419774Y-109934102D01*
X144380000Y-110134061D01*
X144380000Y-110337939D01*
X144397616Y-110426500D01*
X144137503Y-110426500D01*
X144000256Y-110334795D01*
X143811898Y-110256774D01*
X143611939Y-110217000D01*
X143408061Y-110217000D01*
X143208102Y-110256774D01*
X143019744Y-110334795D01*
X142850226Y-110448063D01*
X142706063Y-110592226D01*
X142592795Y-110761744D01*
X142514774Y-110950102D01*
X142475000Y-111150061D01*
X142475000Y-111315500D01*
X142105503Y-111315500D01*
X141968256Y-111223795D01*
X141779898Y-111145774D01*
X141579939Y-111106000D01*
X141376061Y-111106000D01*
X141176102Y-111145774D01*
X140987744Y-111223795D01*
X140818226Y-111337063D01*
X140674063Y-111481226D01*
X140560795Y-111650744D01*
X140482774Y-111839102D01*
X140443000Y-112039061D01*
X139712700Y-112039061D01*
X139712700Y-106056732D01*
X143270923Y-102498510D01*
X146504112Y-102498510D01*
X146544662Y-102502504D01*
X146585212Y-102498510D01*
X146585215Y-102498510D01*
X146706488Y-102486566D01*
X146862096Y-102439363D01*
X147005504Y-102362709D01*
X147131203Y-102259551D01*
X147157060Y-102228044D01*
X152552294Y-96832811D01*
X152625795Y-97010256D01*
X152637651Y-97028000D01*
X152625795Y-97045744D01*
X152547774Y-97234102D01*
X152508000Y-97434061D01*
X152508000Y-97637939D01*
X152547774Y-97837898D01*
X152625795Y-98026256D01*
X152739063Y-98195774D01*
X152883226Y-98339937D01*
X153052744Y-98453205D01*
X153241102Y-98531226D01*
X153441061Y-98571000D01*
X153644939Y-98571000D01*
X153844898Y-98531226D01*
X154033256Y-98453205D01*
X154170503Y-98361500D01*
X154393437Y-98361500D01*
X154433987Y-98365494D01*
X154474537Y-98361500D01*
X154474540Y-98361500D01*
X154595813Y-98349556D01*
X154751421Y-98302353D01*
X154894829Y-98225699D01*
X155020528Y-98122541D01*
X155046385Y-98091035D01*
X155264921Y-97872499D01*
X156023451Y-97872499D01*
X156064001Y-97876493D01*
X156104551Y-97872499D01*
X156104554Y-97872499D01*
X156225827Y-97860555D01*
X156381435Y-97813352D01*
X156524843Y-97736698D01*
X156599668Y-97675291D01*
X156765898Y-97642226D01*
X156954256Y-97564205D01*
X157123774Y-97450937D01*
X157267937Y-97306774D01*
X157381205Y-97137256D01*
X157459226Y-96948898D01*
X157499000Y-96748939D01*
X157499000Y-96545061D01*
X157459226Y-96345102D01*
X157381205Y-96156744D01*
X157267937Y-95987226D01*
X157170484Y-95889773D01*
X157205226Y-95805898D01*
X157245000Y-95605939D01*
X157245000Y-95402061D01*
X157218485Y-95268758D01*
X157323540Y-95182542D01*
X157349397Y-95151035D01*
X158799893Y-93700540D01*
X162922000Y-93700540D01*
X162922000Y-93827939D01*
X162961774Y-94027898D01*
X163039795Y-94216256D01*
X163153063Y-94385774D01*
X163297226Y-94529937D01*
X163466744Y-94643205D01*
X163655102Y-94721226D01*
X163855061Y-94761000D01*
X164058939Y-94761000D01*
X164258898Y-94721226D01*
X164447256Y-94643205D01*
X164616774Y-94529937D01*
X164760937Y-94385774D01*
X164819920Y-94297500D01*
X167892616Y-94297500D01*
X167914774Y-94408898D01*
X167992795Y-94597256D01*
X168106063Y-94766774D01*
X168250226Y-94910937D01*
X168419744Y-95024205D01*
X168608102Y-95102226D01*
X168808061Y-95142000D01*
X169011939Y-95142000D01*
X169211898Y-95102226D01*
X169400256Y-95024205D01*
X169569774Y-94910937D01*
X169713937Y-94766774D01*
X169827205Y-94597256D01*
X169905226Y-94408898D01*
X169945000Y-94208939D01*
X169945000Y-94005061D01*
X169905226Y-93805102D01*
X169861915Y-93700540D01*
X193426954Y-93700540D01*
X193493678Y-93755299D01*
X193637086Y-93831953D01*
X193792694Y-93879156D01*
X193913967Y-93891100D01*
X193913969Y-93891100D01*
X193954520Y-93895094D01*
X193995070Y-93891100D01*
X194679682Y-93891100D01*
X194777232Y-94037093D01*
X194989507Y-94249368D01*
X195239115Y-94416151D01*
X195516466Y-94531034D01*
X195810899Y-94589600D01*
X196111101Y-94589600D01*
X196405534Y-94531034D01*
X196682885Y-94416151D01*
X196932493Y-94249368D01*
X197144768Y-94037093D01*
X197311551Y-93787485D01*
X197426434Y-93510134D01*
X197485000Y-93215701D01*
X197485000Y-92915499D01*
X200787000Y-92915499D01*
X200787000Y-93215701D01*
X200845566Y-93510134D01*
X200960449Y-93787485D01*
X201127232Y-94037093D01*
X201339507Y-94249368D01*
X201589115Y-94416151D01*
X201866466Y-94531034D01*
X202160899Y-94589600D01*
X202461101Y-94589600D01*
X202755534Y-94531034D01*
X203032885Y-94416151D01*
X203282493Y-94249368D01*
X203494768Y-94037093D01*
X203661551Y-93787485D01*
X203776434Y-93510134D01*
X203835000Y-93215701D01*
X203835000Y-92915499D01*
X203776434Y-92621066D01*
X203661551Y-92343715D01*
X203494768Y-92094107D01*
X203282493Y-91881832D01*
X203032885Y-91715049D01*
X202755534Y-91600166D01*
X202461101Y-91541600D01*
X202160899Y-91541600D01*
X201866466Y-91600166D01*
X201589115Y-91715049D01*
X201339507Y-91881832D01*
X201127232Y-92094107D01*
X200960449Y-92343715D01*
X200845566Y-92621066D01*
X200787000Y-92915499D01*
X197485000Y-92915499D01*
X197426434Y-92621066D01*
X197311551Y-92343715D01*
X197144768Y-92094107D01*
X196932493Y-91881832D01*
X196682885Y-91715049D01*
X196405534Y-91600166D01*
X196111101Y-91541600D01*
X195810899Y-91541600D01*
X195516466Y-91600166D01*
X195239115Y-91715049D01*
X194989507Y-91881832D01*
X194777232Y-92094107D01*
X194679682Y-92240100D01*
X194291526Y-92240100D01*
X194224802Y-92185341D01*
X194081394Y-92108687D01*
X193925786Y-92061484D01*
X193804513Y-92049540D01*
X193804510Y-92049540D01*
X193763960Y-92045546D01*
X193723410Y-92049540D01*
X186410909Y-92049540D01*
X187464077Y-90996373D01*
X187495566Y-90970531D01*
X187521411Y-90939039D01*
X187521419Y-90939031D01*
X187598726Y-90844832D01*
X187675380Y-90701423D01*
X187722582Y-90545816D01*
X187738521Y-90383989D01*
X187734526Y-90343430D01*
X187734530Y-88732449D01*
X187734530Y-87324520D01*
X187738524Y-87283970D01*
X187734528Y-87243399D01*
X187734528Y-81958904D01*
X188124004Y-81569428D01*
X188285898Y-81537226D01*
X188474256Y-81459205D01*
X188643774Y-81345937D01*
X188787937Y-81201774D01*
X188901205Y-81032256D01*
X188979226Y-80843898D01*
X189019000Y-80643939D01*
X189019000Y-80440061D01*
X188979226Y-80240102D01*
X188901205Y-80051744D01*
X188787937Y-79882226D01*
X188725211Y-79819500D01*
X190713450Y-79819500D01*
X190754000Y-79823494D01*
X190794550Y-79819500D01*
X190794553Y-79819500D01*
X190915826Y-79807556D01*
X191071434Y-79760353D01*
X191214842Y-79683699D01*
X191340541Y-79580541D01*
X191366397Y-79549035D01*
X192071044Y-78844389D01*
X192102541Y-78818541D01*
X192128389Y-78787045D01*
X192128392Y-78787042D01*
X192205699Y-78692843D01*
X192282353Y-78549434D01*
X192320549Y-78423517D01*
X192329556Y-78393826D01*
X192341500Y-78272553D01*
X192341500Y-78272551D01*
X192345494Y-78232000D01*
X192341500Y-78191450D01*
X192341500Y-77589503D01*
X192433205Y-77452256D01*
X192468079Y-77368061D01*
X203943000Y-77368061D01*
X203943000Y-77571939D01*
X203982774Y-77771898D01*
X204060795Y-77960256D01*
X204174063Y-78129774D01*
X204318226Y-78273937D01*
X204487744Y-78387205D01*
X204676102Y-78465226D01*
X204876061Y-78505000D01*
X205079939Y-78505000D01*
X205279898Y-78465226D01*
X205468256Y-78387205D01*
X205605503Y-78295500D01*
X209430497Y-78295500D01*
X209567744Y-78387205D01*
X209756102Y-78465226D01*
X209956061Y-78505000D01*
X210159939Y-78505000D01*
X210359898Y-78465226D01*
X210548256Y-78387205D01*
X210717774Y-78273937D01*
X210861937Y-78129774D01*
X210975205Y-77960256D01*
X211053226Y-77771898D01*
X211093000Y-77571939D01*
X211093000Y-77368061D01*
X211053226Y-77168102D01*
X210975205Y-76979744D01*
X210861937Y-76810226D01*
X210717774Y-76666063D01*
X210548256Y-76552795D01*
X210359898Y-76474774D01*
X210159939Y-76435000D01*
X209956061Y-76435000D01*
X209756102Y-76474774D01*
X209567744Y-76552795D01*
X209430497Y-76644500D01*
X205605503Y-76644500D01*
X205468256Y-76552795D01*
X205279898Y-76474774D01*
X205079939Y-76435000D01*
X204876061Y-76435000D01*
X204676102Y-76474774D01*
X204487744Y-76552795D01*
X204318226Y-76666063D01*
X204174063Y-76810226D01*
X204060795Y-76979744D01*
X203982774Y-77168102D01*
X203943000Y-77368061D01*
X192468079Y-77368061D01*
X192511226Y-77263898D01*
X192551000Y-77063939D01*
X192551000Y-76860061D01*
X192511226Y-76660102D01*
X192433205Y-76471744D01*
X192319937Y-76302226D01*
X192175774Y-76158063D01*
X192006256Y-76044795D01*
X191817898Y-75966774D01*
X191617939Y-75927000D01*
X191414061Y-75927000D01*
X191214102Y-75966774D01*
X191025744Y-76044795D01*
X190856226Y-76158063D01*
X190712063Y-76302226D01*
X190598795Y-76471744D01*
X190520774Y-76660102D01*
X190481000Y-76860061D01*
X190481000Y-77063939D01*
X190520774Y-77263898D01*
X190598795Y-77452256D01*
X190690500Y-77589503D01*
X190690501Y-77890066D01*
X190412067Y-78168500D01*
X187238550Y-78168500D01*
X187198000Y-78164506D01*
X187157449Y-78168500D01*
X187157447Y-78168500D01*
X187036174Y-78180444D01*
X186914399Y-78217384D01*
X186880566Y-78227647D01*
X186737157Y-78304301D01*
X186692146Y-78341241D01*
X186611459Y-78407459D01*
X186585608Y-78438959D01*
X186572510Y-78452057D01*
X186572510Y-78304608D01*
X186737039Y-78140079D01*
X186768541Y-78114226D01*
X186871699Y-77988527D01*
X186948353Y-77845119D01*
X186995556Y-77689511D01*
X187005044Y-77593179D01*
X187099205Y-77452256D01*
X187177226Y-77263898D01*
X187217000Y-77063939D01*
X187217000Y-76860061D01*
X187177226Y-76660102D01*
X187099205Y-76471744D01*
X186985937Y-76302226D01*
X186841774Y-76158063D01*
X186672256Y-76044795D01*
X186483898Y-75966774D01*
X186283939Y-75927000D01*
X186080061Y-75927000D01*
X185880102Y-75966774D01*
X185691744Y-76044795D01*
X185674000Y-76056651D01*
X185656256Y-76044795D01*
X185467898Y-75966774D01*
X185267939Y-75927000D01*
X185064061Y-75927000D01*
X184864102Y-75966774D01*
X184675744Y-76044795D01*
X184506226Y-76158063D01*
X184362063Y-76302226D01*
X184248795Y-76471744D01*
X184213500Y-76556953D01*
X184213500Y-71207932D01*
X187031933Y-68389500D01*
X194015450Y-68389500D01*
X194056000Y-68393494D01*
X194096550Y-68389500D01*
X194096553Y-68389500D01*
X194217826Y-68377556D01*
X194373434Y-68330353D01*
X194516842Y-68253699D01*
X194642541Y-68150541D01*
X194668398Y-68119034D01*
X196897041Y-65890392D01*
X196928541Y-65864541D01*
X197003852Y-65772774D01*
X197031699Y-65738843D01*
X197061452Y-65683178D01*
X197108353Y-65595434D01*
X197155556Y-65439826D01*
X197167500Y-65318553D01*
X197167500Y-65318551D01*
X197171494Y-65278001D01*
X197167500Y-65237450D01*
X197167500Y-60031932D01*
X197667933Y-59531500D01*
X198174915Y-59531500D01*
X198117463Y-59601506D01*
X198058498Y-59711820D01*
X198022188Y-59831518D01*
X198009928Y-59956000D01*
X198009928Y-61456000D01*
X198021008Y-61568496D01*
X198015234Y-61573234D01*
X197798421Y-61837422D01*
X197637314Y-62138832D01*
X197538105Y-62465881D01*
X197504606Y-62806000D01*
X197538105Y-63146119D01*
X197637314Y-63473168D01*
X197798421Y-63774578D01*
X198015234Y-64038766D01*
X198279422Y-64255579D01*
X198580832Y-64416686D01*
X198907881Y-64515895D01*
X199162775Y-64541000D01*
X200633225Y-64541000D01*
X200888119Y-64515895D01*
X201215168Y-64416686D01*
X201516578Y-64255579D01*
X201780766Y-64038766D01*
X201997579Y-63774578D01*
X202158686Y-63473168D01*
X202257895Y-63146119D01*
X202291394Y-62806000D01*
X202257895Y-62465881D01*
X202158686Y-62138832D01*
X201997579Y-61837422D01*
X201780766Y-61573234D01*
X201774992Y-61568496D01*
X201786072Y-61456000D01*
X201786072Y-59956000D01*
X201773812Y-59831518D01*
X201737502Y-59711820D01*
X201678537Y-59601506D01*
X201599185Y-59504815D01*
X201559060Y-59471886D01*
X201683764Y-59238581D01*
X201762960Y-58977507D01*
X201789701Y-58706000D01*
X201762960Y-58434493D01*
X201683764Y-58173419D01*
X201555157Y-57932812D01*
X201382081Y-57721919D01*
X201362684Y-57706000D01*
X201382081Y-57690081D01*
X201555157Y-57479188D01*
X201683764Y-57238581D01*
X201762960Y-56977507D01*
X201789701Y-56706000D01*
X201762960Y-56434493D01*
X201683764Y-56173419D01*
X201589006Y-55996139D01*
X201780766Y-55838766D01*
X201997579Y-55574578D01*
X202158686Y-55273168D01*
X202257895Y-54946119D01*
X202291394Y-54606000D01*
X202257895Y-54265881D01*
X202158686Y-53938832D01*
X201997579Y-53637422D01*
X201780766Y-53373234D01*
X201516578Y-53156421D01*
X201215168Y-52995314D01*
X200888119Y-52896105D01*
X200633225Y-52871000D01*
X199162775Y-52871000D01*
X198907881Y-52896105D01*
X198580832Y-52995314D01*
X198279422Y-53156421D01*
X198015234Y-53373234D01*
X197798421Y-53637422D01*
X197637314Y-53938832D01*
X197538105Y-54265881D01*
X197504606Y-54606000D01*
X197538105Y-54946119D01*
X197637314Y-55273168D01*
X197798421Y-55574578D01*
X198015234Y-55838766D01*
X198206994Y-55996139D01*
X198112236Y-56173419D01*
X198033040Y-56434493D01*
X198006299Y-56706000D01*
X198033040Y-56977507D01*
X198112236Y-57238581D01*
X198240843Y-57479188D01*
X198413919Y-57690081D01*
X198433316Y-57706000D01*
X198413919Y-57721919D01*
X198283774Y-57880500D01*
X197366550Y-57880500D01*
X197325999Y-57876506D01*
X197285449Y-57880500D01*
X197285447Y-57880500D01*
X197164174Y-57892444D01*
X197008566Y-57939647D01*
X196865157Y-58016301D01*
X196803596Y-58066823D01*
X196739459Y-58119459D01*
X196713606Y-58150961D01*
X195786961Y-59077607D01*
X195755460Y-59103459D01*
X195729609Y-59134959D01*
X195652301Y-59229158D01*
X195575647Y-59372567D01*
X195528445Y-59528174D01*
X195512506Y-59690000D01*
X195516501Y-59730560D01*
X195516500Y-64936067D01*
X193714068Y-66738500D01*
X186730550Y-66738500D01*
X186689999Y-66734506D01*
X186649449Y-66738500D01*
X186649447Y-66738500D01*
X186528174Y-66750444D01*
X186372566Y-66797647D01*
X186229157Y-66874301D01*
X186167596Y-66924823D01*
X186103459Y-66977459D01*
X186077608Y-67008959D01*
X182832961Y-70253607D01*
X182801460Y-70279459D01*
X182775609Y-70310959D01*
X182698301Y-70405158D01*
X182621647Y-70548567D01*
X182574445Y-70704174D01*
X182558506Y-70866000D01*
X182562501Y-70906560D01*
X182562500Y-80303067D01*
X181867868Y-80997700D01*
X170340000Y-80997700D01*
X170340000Y-80974022D01*
X170318151Y-80752188D01*
X170231808Y-80467552D01*
X170091594Y-80205230D01*
X169902897Y-79975303D01*
X169672969Y-79786606D01*
X169410647Y-79646392D01*
X169126011Y-79560049D01*
X168830000Y-79530894D01*
X168533988Y-79560049D01*
X168249352Y-79646392D01*
X167987030Y-79786606D01*
X167757103Y-79975303D01*
X167568406Y-80205231D01*
X167428192Y-80467553D01*
X167341849Y-80752189D01*
X167320000Y-80974023D01*
X167320000Y-82672378D01*
X167341849Y-82894212D01*
X167428193Y-83178848D01*
X167568407Y-83441170D01*
X167757104Y-83671097D01*
X167987031Y-83859794D01*
X168249353Y-84000008D01*
X168533989Y-84086351D01*
X168830000Y-84115506D01*
X169126012Y-84086351D01*
X169410648Y-84000008D01*
X169672970Y-83859794D01*
X169902897Y-83671097D01*
X170091594Y-83441170D01*
X170231808Y-83178848D01*
X170318151Y-82894212D01*
X170340000Y-82672378D01*
X170340000Y-82648700D01*
X182169250Y-82648700D01*
X182209800Y-82652694D01*
X182250350Y-82648700D01*
X182250353Y-82648700D01*
X182371626Y-82636756D01*
X182527234Y-82589553D01*
X182670642Y-82512899D01*
X182796341Y-82409741D01*
X182822198Y-82378234D01*
X183943040Y-81257392D01*
X183974541Y-81231541D01*
X184077699Y-81105842D01*
X184154353Y-80962434D01*
X184201556Y-80806826D01*
X184213500Y-80685553D01*
X184213500Y-80685544D01*
X184217493Y-80645001D01*
X184213500Y-80604458D01*
X184213500Y-77367047D01*
X184248795Y-77452256D01*
X184340500Y-77589503D01*
X184340501Y-85748186D01*
X184187843Y-85519717D01*
X183890463Y-85222337D01*
X183540782Y-84988688D01*
X183152236Y-84827747D01*
X182739759Y-84745700D01*
X182319201Y-84745700D01*
X181906724Y-84827747D01*
X181518178Y-84988688D01*
X181168497Y-85222337D01*
X180871117Y-85519717D01*
X180637468Y-85869398D01*
X180476527Y-86257944D01*
X180394480Y-86670421D01*
X180394480Y-87090979D01*
X180476527Y-87503456D01*
X180637468Y-87892002D01*
X180871117Y-88241683D01*
X181168497Y-88539063D01*
X181518178Y-88772712D01*
X181906724Y-88933653D01*
X182319201Y-89015700D01*
X182739759Y-89015700D01*
X183152236Y-88933653D01*
X183540782Y-88772712D01*
X183890463Y-88539063D01*
X184187843Y-88241683D01*
X184340501Y-88013214D01*
X184340501Y-89320066D01*
X183935067Y-89725500D01*
X157512423Y-89725500D01*
X157829978Y-89593965D01*
X158390123Y-89219688D01*
X158866488Y-88743323D01*
X159240765Y-88183178D01*
X159498571Y-87560777D01*
X159630000Y-86900041D01*
X159630000Y-86226359D01*
X159498571Y-85565623D01*
X159240765Y-84943222D01*
X158866488Y-84383077D01*
X158390123Y-83906712D01*
X157829978Y-83532435D01*
X157207577Y-83274629D01*
X156546841Y-83143200D01*
X155873159Y-83143200D01*
X155212423Y-83274629D01*
X154590022Y-83532435D01*
X154029877Y-83906712D01*
X153553512Y-84383077D01*
X153179235Y-84943222D01*
X152921429Y-85565623D01*
X152790000Y-86226359D01*
X152790000Y-86900041D01*
X152921429Y-87560777D01*
X153179235Y-88183178D01*
X153553512Y-88743323D01*
X154029877Y-89219688D01*
X154590022Y-89593965D01*
X154907577Y-89725500D01*
X142813950Y-89725500D01*
X142773399Y-89721506D01*
X142732849Y-89725500D01*
X142732847Y-89725500D01*
X142611574Y-89737444D01*
X142455966Y-89784647D01*
X142378801Y-89825893D01*
X142312557Y-89861301D01*
X142262157Y-89902664D01*
X142186859Y-89964459D01*
X142161008Y-89995959D01*
X138844839Y-93312128D01*
X138708774Y-93176063D01*
X138539256Y-93062795D01*
X138474501Y-93035972D01*
X138474501Y-86254551D01*
X138478495Y-86214001D01*
X138469729Y-86125000D01*
X138462557Y-86052175D01*
X138415354Y-85896567D01*
X138391532Y-85852000D01*
X138338700Y-85753158D01*
X138261393Y-85658959D01*
X138261390Y-85658956D01*
X138235542Y-85627460D01*
X138204046Y-85601612D01*
X136028428Y-83425996D01*
X135996226Y-83264102D01*
X135918205Y-83075744D01*
X135804937Y-82906226D01*
X135660774Y-82762063D01*
X135491256Y-82648795D01*
X135302898Y-82570774D01*
X135102939Y-82531000D01*
X134899061Y-82531000D01*
X134699102Y-82570774D01*
X134510744Y-82648795D01*
X134341226Y-82762063D01*
X134197063Y-82906226D01*
X134083795Y-83075744D01*
X134005774Y-83264102D01*
X133966000Y-83464061D01*
X133966000Y-83667939D01*
X134005774Y-83867898D01*
X134083795Y-84056256D01*
X134197063Y-84225774D01*
X134341226Y-84369937D01*
X134367078Y-84387211D01*
X134324063Y-84430226D01*
X134210795Y-84599744D01*
X134132774Y-84788102D01*
X134093000Y-84988061D01*
X134093000Y-85191939D01*
X134132774Y-85391898D01*
X134210795Y-85580256D01*
X134324063Y-85749774D01*
X134468226Y-85893937D01*
X134637744Y-86007205D01*
X134826102Y-86085226D01*
X134987996Y-86117428D01*
X135680502Y-86809936D01*
X135680501Y-93920448D01*
X135680501Y-94555451D01*
X135676507Y-94596001D01*
X135680501Y-94636551D01*
X135680501Y-94636553D01*
X135692445Y-94757826D01*
X135733771Y-94894061D01*
X135739648Y-94913434D01*
X135816302Y-95056843D01*
X135850029Y-95097939D01*
X135877709Y-95131668D01*
X135910774Y-95297898D01*
X135988795Y-95486256D01*
X136070107Y-95607948D01*
X135939710Y-95633886D01*
X135685473Y-95739195D01*
X135456665Y-95892080D01*
X135262080Y-96086665D01*
X135109195Y-96315473D01*
X135077200Y-96392715D01*
X135045205Y-96315473D01*
X134892320Y-96086665D01*
X134697735Y-95892080D01*
X134468927Y-95739195D01*
X134214690Y-95633886D01*
X133944792Y-95580200D01*
X133669608Y-95580200D01*
X133399710Y-95633886D01*
X133145473Y-95739195D01*
X132916665Y-95892080D01*
X132722080Y-96086665D01*
X132569195Y-96315473D01*
X132537200Y-96392715D01*
X132505205Y-96315473D01*
X132352320Y-96086665D01*
X132157735Y-95892080D01*
X131928927Y-95739195D01*
X131674690Y-95633886D01*
X131404792Y-95580200D01*
X131129608Y-95580200D01*
X130859710Y-95633886D01*
X130605473Y-95739195D01*
X130376665Y-95892080D01*
X130182080Y-96086665D01*
X130029195Y-96315473D01*
X129997200Y-96392715D01*
X129965205Y-96315473D01*
X129812320Y-96086665D01*
X129617735Y-95892080D01*
X129388927Y-95739195D01*
X129134690Y-95633886D01*
X128864792Y-95580200D01*
X128589608Y-95580200D01*
X128319710Y-95633886D01*
X128065473Y-95739195D01*
X127836665Y-95892080D01*
X127642080Y-96086665D01*
X127489195Y-96315473D01*
X127457200Y-96392715D01*
X127425205Y-96315473D01*
X127272320Y-96086665D01*
X127077735Y-95892080D01*
X126848927Y-95739195D01*
X126594690Y-95633886D01*
X126324792Y-95580200D01*
X126049608Y-95580200D01*
X125779710Y-95633886D01*
X125525473Y-95739195D01*
X125296665Y-95892080D01*
X125102080Y-96086665D01*
X124949195Y-96315473D01*
X124917200Y-96392715D01*
X124885205Y-96315473D01*
X124732320Y-96086665D01*
X124537735Y-95892080D01*
X124308927Y-95739195D01*
X124054690Y-95633886D01*
X123784792Y-95580200D01*
X123509608Y-95580200D01*
X123239710Y-95633886D01*
X122985473Y-95739195D01*
X122756665Y-95892080D01*
X122562080Y-96086665D01*
X122409195Y-96315473D01*
X122377200Y-96392715D01*
X122345205Y-96315473D01*
X122192320Y-96086665D01*
X121997735Y-95892080D01*
X121768927Y-95739195D01*
X121514690Y-95633886D01*
X121244792Y-95580200D01*
X120969608Y-95580200D01*
X120699710Y-95633886D01*
X120445473Y-95739195D01*
X120216665Y-95892080D01*
X120022080Y-96086665D01*
X119869195Y-96315473D01*
X119837200Y-96392715D01*
X119805205Y-96315473D01*
X119652320Y-96086665D01*
X119457735Y-95892080D01*
X119228927Y-95739195D01*
X118974690Y-95633886D01*
X118704792Y-95580200D01*
X118429608Y-95580200D01*
X118159710Y-95633886D01*
X117905473Y-95739195D01*
X117676665Y-95892080D01*
X117482080Y-96086665D01*
X117329195Y-96315473D01*
X117297200Y-96392715D01*
X117265205Y-96315473D01*
X117112320Y-96086665D01*
X116917735Y-95892080D01*
X116688927Y-95739195D01*
X116434690Y-95633886D01*
X116164792Y-95580200D01*
X115889608Y-95580200D01*
X115619710Y-95633886D01*
X115365473Y-95739195D01*
X115136665Y-95892080D01*
X114942080Y-96086665D01*
X114789195Y-96315473D01*
X114757200Y-96392715D01*
X114725205Y-96315473D01*
X114572320Y-96086665D01*
X114377735Y-95892080D01*
X114148927Y-95739195D01*
X113894690Y-95633886D01*
X113624792Y-95580200D01*
X113349608Y-95580200D01*
X113079710Y-95633886D01*
X112825473Y-95739195D01*
X112596665Y-95892080D01*
X112402080Y-96086665D01*
X112249195Y-96315473D01*
X112143886Y-96569710D01*
X112090200Y-96839608D01*
X112090200Y-97114792D01*
X112143886Y-97384690D01*
X112249195Y-97638927D01*
X112402080Y-97867735D01*
X112596665Y-98062320D01*
X112825473Y-98215205D01*
X113079710Y-98320514D01*
X113349608Y-98374200D01*
X113624792Y-98374200D01*
X113894690Y-98320514D01*
X114148927Y-98215205D01*
X114377735Y-98062320D01*
X114572320Y-97867735D01*
X114725205Y-97638927D01*
X114757200Y-97561685D01*
X114789195Y-97638927D01*
X114942080Y-97867735D01*
X115136665Y-98062320D01*
X115365473Y-98215205D01*
X115619710Y-98320514D01*
X115889608Y-98374200D01*
X116164792Y-98374200D01*
X116434690Y-98320514D01*
X116688927Y-98215205D01*
X116917735Y-98062320D01*
X117112320Y-97867735D01*
X117265205Y-97638927D01*
X117297200Y-97561685D01*
X117329195Y-97638927D01*
X117482080Y-97867735D01*
X117676665Y-98062320D01*
X117905473Y-98215205D01*
X118159710Y-98320514D01*
X118429608Y-98374200D01*
X118704792Y-98374200D01*
X118974690Y-98320514D01*
X119228927Y-98215205D01*
X119457735Y-98062320D01*
X119652320Y-97867735D01*
X119805205Y-97638927D01*
X119837200Y-97561685D01*
X119869195Y-97638927D01*
X120022080Y-97867735D01*
X120216665Y-98062320D01*
X120445473Y-98215205D01*
X120699710Y-98320514D01*
X120969608Y-98374200D01*
X121244792Y-98374200D01*
X121514690Y-98320514D01*
X121768927Y-98215205D01*
X121997735Y-98062320D01*
X122192320Y-97867735D01*
X122345205Y-97638927D01*
X122377200Y-97561685D01*
X122409195Y-97638927D01*
X122562080Y-97867735D01*
X122756665Y-98062320D01*
X122985473Y-98215205D01*
X123239710Y-98320514D01*
X123509608Y-98374200D01*
X123784792Y-98374200D01*
X124054690Y-98320514D01*
X124308927Y-98215205D01*
X124537735Y-98062320D01*
X124732320Y-97867735D01*
X124885205Y-97638927D01*
X124917200Y-97561685D01*
X124949195Y-97638927D01*
X125102080Y-97867735D01*
X125296665Y-98062320D01*
X125525473Y-98215205D01*
X125779710Y-98320514D01*
X126049608Y-98374200D01*
X126324792Y-98374200D01*
X126594690Y-98320514D01*
X126848927Y-98215205D01*
X127077735Y-98062320D01*
X127272320Y-97867735D01*
X127425205Y-97638927D01*
X127457200Y-97561685D01*
X127489195Y-97638927D01*
X127642080Y-97867735D01*
X127836665Y-98062320D01*
X128065473Y-98215205D01*
X128319710Y-98320514D01*
X128589608Y-98374200D01*
X128864792Y-98374200D01*
X129134690Y-98320514D01*
X129388927Y-98215205D01*
X129617735Y-98062320D01*
X129812320Y-97867735D01*
X129965205Y-97638927D01*
X129997200Y-97561685D01*
X130029195Y-97638927D01*
X130182080Y-97867735D01*
X130376665Y-98062320D01*
X130605473Y-98215205D01*
X130859710Y-98320514D01*
X131129608Y-98374200D01*
X131404792Y-98374200D01*
X131674690Y-98320514D01*
X131928927Y-98215205D01*
X132157735Y-98062320D01*
X132352320Y-97867735D01*
X132505205Y-97638927D01*
X132537200Y-97561685D01*
X132569195Y-97638927D01*
X132722080Y-97867735D01*
X132916665Y-98062320D01*
X133145473Y-98215205D01*
X133399710Y-98320514D01*
X133669608Y-98374200D01*
X133944792Y-98374200D01*
X134214690Y-98320514D01*
X134468927Y-98215205D01*
X134697735Y-98062320D01*
X134892320Y-97867735D01*
X135045205Y-97638927D01*
X135077200Y-97561685D01*
X135109195Y-97638927D01*
X135262080Y-97867735D01*
X135456665Y-98062320D01*
X135685473Y-98215205D01*
X135939710Y-98320514D01*
X136209608Y-98374200D01*
X136484792Y-98374200D01*
X136754690Y-98320514D01*
X137008927Y-98215205D01*
X137237735Y-98062320D01*
X137432320Y-97867735D01*
X137585205Y-97638927D01*
X137617200Y-97561685D01*
X137649195Y-97638927D01*
X137802080Y-97867735D01*
X137996665Y-98062320D01*
X138225473Y-98215205D01*
X138479710Y-98320514D01*
X138749608Y-98374200D01*
X139024792Y-98374200D01*
X139294690Y-98320514D01*
X139548927Y-98215205D01*
X139777735Y-98062320D01*
X139972320Y-97867735D01*
X140125205Y-97638927D01*
X140157200Y-97561685D01*
X140189195Y-97638927D01*
X140342080Y-97867735D01*
X140536665Y-98062320D01*
X140765473Y-98215205D01*
X141019710Y-98320514D01*
X141289608Y-98374200D01*
X141564792Y-98374200D01*
X141834690Y-98320514D01*
X142088927Y-98215205D01*
X142317735Y-98062320D01*
X142512320Y-97867735D01*
X142665205Y-97638927D01*
X142697200Y-97561685D01*
X142729195Y-97638927D01*
X142882080Y-97867735D01*
X143076665Y-98062320D01*
X143305473Y-98215205D01*
X143559710Y-98320514D01*
X143829608Y-98374200D01*
X144104792Y-98374200D01*
X144374690Y-98320514D01*
X144628927Y-98215205D01*
X144857735Y-98062320D01*
X145052320Y-97867735D01*
X145205205Y-97638927D01*
X145237200Y-97561685D01*
X145269195Y-97638927D01*
X145422080Y-97867735D01*
X145616665Y-98062320D01*
X145845473Y-98215205D01*
X146099710Y-98320514D01*
X146369608Y-98374200D01*
X146644792Y-98374200D01*
X146914690Y-98320514D01*
X147168927Y-98215205D01*
X147397735Y-98062320D01*
X147592320Y-97867735D01*
X147745205Y-97638927D01*
X147850514Y-97384690D01*
X147904200Y-97114792D01*
X147904200Y-96839608D01*
X147850514Y-96569710D01*
X147745205Y-96315473D01*
X147592320Y-96086665D01*
X147397735Y-95892080D01*
X147168927Y-95739195D01*
X146914690Y-95633886D01*
X146644792Y-95580200D01*
X146369608Y-95580200D01*
X146099710Y-95633886D01*
X145845473Y-95739195D01*
X145616665Y-95892080D01*
X145422080Y-96086665D01*
X145269195Y-96315473D01*
X145237200Y-96392715D01*
X145205205Y-96315473D01*
X145052320Y-96086665D01*
X144857735Y-95892080D01*
X144628927Y-95739195D01*
X144374690Y-95633886D01*
X144104792Y-95580200D01*
X143829608Y-95580200D01*
X143559710Y-95633886D01*
X143305473Y-95739195D01*
X143076665Y-95892080D01*
X142882080Y-96086665D01*
X142729195Y-96315473D01*
X142697200Y-96392715D01*
X142665205Y-96315473D01*
X142512320Y-96086665D01*
X142317735Y-95892080D01*
X142088927Y-95739195D01*
X141834690Y-95633886D01*
X141564792Y-95580200D01*
X141451632Y-95580200D01*
X145074323Y-91957510D01*
X154271056Y-91957510D01*
X145962068Y-100266500D01*
X142661550Y-100266500D01*
X142620999Y-100262506D01*
X142580449Y-100266500D01*
X142580447Y-100266500D01*
X142459174Y-100278444D01*
X142303566Y-100325647D01*
X142160157Y-100402301D01*
X142098596Y-100452823D01*
X142034459Y-100505459D01*
X142008608Y-100536959D01*
X135792166Y-106753402D01*
X135760659Y-106779259D01*
X135710675Y-106840166D01*
X135657501Y-106904958D01*
X135630727Y-106955049D01*
X135580847Y-107048367D01*
X135533644Y-107203975D01*
X135522709Y-107315001D01*
X135517706Y-107365800D01*
X135521700Y-107406350D01*
X135521701Y-118708624D01*
X135456665Y-118752080D01*
X135262080Y-118946665D01*
X135109195Y-119175473D01*
X135077200Y-119252715D01*
X135045205Y-119175473D01*
X134892320Y-118946665D01*
X134697735Y-118752080D01*
X134468927Y-118599195D01*
X134214690Y-118493886D01*
X133944792Y-118440200D01*
X133669608Y-118440200D01*
X133399710Y-118493886D01*
X133145473Y-118599195D01*
X132916665Y-118752080D01*
X132722080Y-118946665D01*
X132569195Y-119175473D01*
X132537200Y-119252715D01*
X132505205Y-119175473D01*
X132352320Y-118946665D01*
X132157735Y-118752080D01*
X131928927Y-118599195D01*
X131674690Y-118493886D01*
X131404792Y-118440200D01*
X131129608Y-118440200D01*
X130859710Y-118493886D01*
X130605473Y-118599195D01*
X130376665Y-118752080D01*
X130182080Y-118946665D01*
X130029195Y-119175473D01*
X129997200Y-119252715D01*
X129965205Y-119175473D01*
X129812320Y-118946665D01*
X129617735Y-118752080D01*
X129388927Y-118599195D01*
X129134690Y-118493886D01*
X128864792Y-118440200D01*
X128589608Y-118440200D01*
X128319710Y-118493886D01*
X128065473Y-118599195D01*
X127836665Y-118752080D01*
X127642080Y-118946665D01*
X127489195Y-119175473D01*
X127457200Y-119252715D01*
X127425205Y-119175473D01*
X127272320Y-118946665D01*
X127077735Y-118752080D01*
X126848927Y-118599195D01*
X126594690Y-118493886D01*
X126324792Y-118440200D01*
X126049608Y-118440200D01*
X125779710Y-118493886D01*
X125525473Y-118599195D01*
X125296665Y-118752080D01*
X125102080Y-118946665D01*
X124949195Y-119175473D01*
X124917200Y-119252715D01*
X124885205Y-119175473D01*
X124732320Y-118946665D01*
X124537735Y-118752080D01*
X124308927Y-118599195D01*
X124054690Y-118493886D01*
X123784792Y-118440200D01*
X123509608Y-118440200D01*
X123239710Y-118493886D01*
X122985473Y-118599195D01*
X122756665Y-118752080D01*
X122562080Y-118946665D01*
X122409195Y-119175473D01*
X122377200Y-119252715D01*
X122345205Y-119175473D01*
X122192320Y-118946665D01*
X121997735Y-118752080D01*
X121768927Y-118599195D01*
X121514690Y-118493886D01*
X121244792Y-118440200D01*
X120969608Y-118440200D01*
X120699710Y-118493886D01*
X120445473Y-118599195D01*
X120216665Y-118752080D01*
X120022080Y-118946665D01*
X119869195Y-119175473D01*
X119837200Y-119252715D01*
X119805205Y-119175473D01*
X119652320Y-118946665D01*
X119457735Y-118752080D01*
X119228927Y-118599195D01*
X118974690Y-118493886D01*
X118704792Y-118440200D01*
X118429608Y-118440200D01*
X118159710Y-118493886D01*
X117905473Y-118599195D01*
X117676665Y-118752080D01*
X117482080Y-118946665D01*
X117329195Y-119175473D01*
X117297200Y-119252715D01*
X117265205Y-119175473D01*
X117112320Y-118946665D01*
X116917735Y-118752080D01*
X116688927Y-118599195D01*
X116434690Y-118493886D01*
X116164792Y-118440200D01*
X115889608Y-118440200D01*
X115619710Y-118493886D01*
X115365473Y-118599195D01*
X115136665Y-118752080D01*
X114942080Y-118946665D01*
X114789195Y-119175473D01*
X114757200Y-119252715D01*
X114725205Y-119175473D01*
X114572320Y-118946665D01*
X114377735Y-118752080D01*
X114148927Y-118599195D01*
X113894690Y-118493886D01*
X113624792Y-118440200D01*
X113349608Y-118440200D01*
X113079710Y-118493886D01*
X112825473Y-118599195D01*
X112596665Y-118752080D01*
X112402080Y-118946665D01*
X112249195Y-119175473D01*
X112217200Y-119252715D01*
X112185205Y-119175473D01*
X112032320Y-118946665D01*
X111837735Y-118752080D01*
X111608927Y-118599195D01*
X111354690Y-118493886D01*
X111084792Y-118440200D01*
X110809608Y-118440200D01*
X110539710Y-118493886D01*
X110285473Y-118599195D01*
X110056665Y-118752080D01*
X109862080Y-118946665D01*
X109709195Y-119175473D01*
X109603886Y-119429710D01*
X109550200Y-119699608D01*
X109550200Y-119974792D01*
X109603886Y-120244690D01*
X109709195Y-120498927D01*
X109862080Y-120727735D01*
X110056665Y-120922320D01*
X110285473Y-121075205D01*
X110539710Y-121180514D01*
X110809608Y-121234200D01*
X111084792Y-121234200D01*
X111354690Y-121180514D01*
X111608927Y-121075205D01*
X111837735Y-120922320D01*
X112032320Y-120727735D01*
X112185205Y-120498927D01*
X112217200Y-120421685D01*
X112249195Y-120498927D01*
X112402080Y-120727735D01*
X112596665Y-120922320D01*
X112825473Y-121075205D01*
X113079710Y-121180514D01*
X113349608Y-121234200D01*
X113624792Y-121234200D01*
X113894690Y-121180514D01*
X114148927Y-121075205D01*
X114377735Y-120922320D01*
X114572320Y-120727735D01*
X114725205Y-120498927D01*
X114757200Y-120421685D01*
X114789195Y-120498927D01*
X114942080Y-120727735D01*
X115136665Y-120922320D01*
X115365473Y-121075205D01*
X115619710Y-121180514D01*
X115889608Y-121234200D01*
X116164792Y-121234200D01*
X116434690Y-121180514D01*
X116688927Y-121075205D01*
X116917735Y-120922320D01*
X117112320Y-120727735D01*
X117265205Y-120498927D01*
X117297200Y-120421685D01*
X117329195Y-120498927D01*
X117482080Y-120727735D01*
X117676665Y-120922320D01*
X117905473Y-121075205D01*
X118159710Y-121180514D01*
X118429608Y-121234200D01*
X118704792Y-121234200D01*
X118974690Y-121180514D01*
X119228927Y-121075205D01*
X119457735Y-120922320D01*
X119652320Y-120727735D01*
X119805205Y-120498927D01*
X119837200Y-120421685D01*
X119869195Y-120498927D01*
X120022080Y-120727735D01*
X120216665Y-120922320D01*
X120445473Y-121075205D01*
X120699710Y-121180514D01*
X120969608Y-121234200D01*
X121244792Y-121234200D01*
X121514690Y-121180514D01*
X121768927Y-121075205D01*
X121997735Y-120922320D01*
X122192320Y-120727735D01*
X122345205Y-120498927D01*
X122377200Y-120421685D01*
X122409195Y-120498927D01*
X122562080Y-120727735D01*
X122756665Y-120922320D01*
X122985473Y-121075205D01*
X123239710Y-121180514D01*
X123509608Y-121234200D01*
X123784792Y-121234200D01*
X124054690Y-121180514D01*
X124308927Y-121075205D01*
X124537735Y-120922320D01*
X124732320Y-120727735D01*
X124885205Y-120498927D01*
X124917200Y-120421685D01*
X124949195Y-120498927D01*
X125102080Y-120727735D01*
X125296665Y-120922320D01*
X125525473Y-121075205D01*
X125779710Y-121180514D01*
X126049608Y-121234200D01*
X126324792Y-121234200D01*
X126594690Y-121180514D01*
X126848927Y-121075205D01*
X127077735Y-120922320D01*
X127272320Y-120727735D01*
X127425205Y-120498927D01*
X127457200Y-120421685D01*
X127489195Y-120498927D01*
X127642080Y-120727735D01*
X127836665Y-120922320D01*
X128065473Y-121075205D01*
X128319710Y-121180514D01*
X128589608Y-121234200D01*
X128864792Y-121234200D01*
X129134690Y-121180514D01*
X129388927Y-121075205D01*
X129617735Y-120922320D01*
X129812320Y-120727735D01*
X129965205Y-120498927D01*
X129997200Y-120421685D01*
X130029195Y-120498927D01*
X130182080Y-120727735D01*
X130376665Y-120922320D01*
X130605473Y-121075205D01*
X130859710Y-121180514D01*
X131129608Y-121234200D01*
X131404792Y-121234200D01*
X131674690Y-121180514D01*
X131928927Y-121075205D01*
X132157735Y-120922320D01*
X132352320Y-120727735D01*
X132505205Y-120498927D01*
X132537200Y-120421685D01*
X132569195Y-120498927D01*
X132722080Y-120727735D01*
X132916665Y-120922320D01*
X133145473Y-121075205D01*
X133399710Y-121180514D01*
X133669608Y-121234200D01*
X133944792Y-121234200D01*
X134214690Y-121180514D01*
X134468927Y-121075205D01*
X134697735Y-120922320D01*
X134892320Y-120727735D01*
X135045205Y-120498927D01*
X135077200Y-120421685D01*
X135109195Y-120498927D01*
X135262080Y-120727735D01*
X135456665Y-120922320D01*
X135685473Y-121075205D01*
X135939710Y-121180514D01*
X136209608Y-121234200D01*
X136484792Y-121234200D01*
X136754690Y-121180514D01*
X137008927Y-121075205D01*
X137237735Y-120922320D01*
X137432320Y-120727735D01*
X137585205Y-120498927D01*
X137617200Y-120421685D01*
X137649195Y-120498927D01*
X137802080Y-120727735D01*
X137996665Y-120922320D01*
X138225473Y-121075205D01*
X138479710Y-121180514D01*
X138749608Y-121234200D01*
X139024792Y-121234200D01*
X139294690Y-121180514D01*
X139548927Y-121075205D01*
X139777735Y-120922320D01*
X139972320Y-120727735D01*
X140125205Y-120498927D01*
X140157200Y-120421685D01*
X140189195Y-120498927D01*
X140342080Y-120727735D01*
X140536665Y-120922320D01*
X140765473Y-121075205D01*
X141019710Y-121180514D01*
X141289608Y-121234200D01*
X141564792Y-121234200D01*
X141834690Y-121180514D01*
X142088927Y-121075205D01*
X142317735Y-120922320D01*
X142512320Y-120727735D01*
X142665205Y-120498927D01*
X142697200Y-120421685D01*
X142729195Y-120498927D01*
X142882080Y-120727735D01*
X143076665Y-120922320D01*
X143305473Y-121075205D01*
X143559710Y-121180514D01*
X143829608Y-121234200D01*
X143942768Y-121234200D01*
X143066468Y-122110500D01*
X110450933Y-122110500D01*
X108521500Y-120181068D01*
X108521500Y-97703550D01*
X108525494Y-97662999D01*
X108518220Y-97589144D01*
X108509556Y-97501174D01*
X108462353Y-97345566D01*
X108394470Y-97218567D01*
X108385699Y-97202157D01*
X108308391Y-97107958D01*
X108282541Y-97076459D01*
X108251041Y-97050608D01*
X104076500Y-92876068D01*
X104076500Y-86670421D01*
X105395900Y-86670421D01*
X105395900Y-87090979D01*
X105477947Y-87503456D01*
X105638888Y-87892002D01*
X105872537Y-88241683D01*
X106169917Y-88539063D01*
X106519598Y-88772712D01*
X106908144Y-88933653D01*
X107320621Y-89015700D01*
X107741179Y-89015700D01*
X108153656Y-88933653D01*
X108542202Y-88772712D01*
X108891883Y-88539063D01*
X109189263Y-88241683D01*
X109422912Y-87892002D01*
X109583853Y-87503456D01*
X109665900Y-87090979D01*
X109665900Y-86670421D01*
X109583853Y-86257944D01*
X109570771Y-86226359D01*
X125920000Y-86226359D01*
X125920000Y-86900041D01*
X126051429Y-87560777D01*
X126309235Y-88183178D01*
X126683512Y-88743323D01*
X127159877Y-89219688D01*
X127720022Y-89593965D01*
X128342423Y-89851771D01*
X129003159Y-89983200D01*
X129676841Y-89983200D01*
X130337577Y-89851771D01*
X130959978Y-89593965D01*
X131520123Y-89219688D01*
X131996488Y-88743323D01*
X132370765Y-88183178D01*
X132628571Y-87560777D01*
X132760000Y-86900041D01*
X132760000Y-86226359D01*
X132628571Y-85565623D01*
X132370765Y-84943222D01*
X131996488Y-84383077D01*
X131520123Y-83906712D01*
X130959978Y-83532435D01*
X130337577Y-83274629D01*
X129676841Y-83143200D01*
X129003159Y-83143200D01*
X128342423Y-83274629D01*
X127720022Y-83532435D01*
X127159877Y-83906712D01*
X126683512Y-84383077D01*
X126309235Y-84943222D01*
X126051429Y-85565623D01*
X125920000Y-86226359D01*
X109570771Y-86226359D01*
X109422912Y-85869398D01*
X109189263Y-85519717D01*
X108891883Y-85222337D01*
X108542202Y-84988688D01*
X108153656Y-84827747D01*
X107741179Y-84745700D01*
X107320621Y-84745700D01*
X106908144Y-84827747D01*
X106519598Y-84988688D01*
X106169917Y-85222337D01*
X105872537Y-85519717D01*
X105638888Y-85869398D01*
X105477947Y-86257944D01*
X105395900Y-86670421D01*
X104076500Y-86670421D01*
X104076500Y-72636503D01*
X104168205Y-72499256D01*
X104246226Y-72310898D01*
X104286000Y-72110939D01*
X104286000Y-71907061D01*
X104246226Y-71707102D01*
X104168205Y-71518744D01*
X104054937Y-71349226D01*
X103910774Y-71205063D01*
X103741256Y-71091795D01*
X103552898Y-71013774D01*
X103352939Y-70974000D01*
X103149061Y-70974000D01*
X102949102Y-71013774D01*
X102760744Y-71091795D01*
X102591226Y-71205063D01*
X102447063Y-71349226D01*
X102333795Y-71518744D01*
X102255774Y-71707102D01*
X102216000Y-71907061D01*
X76697278Y-71907061D01*
X76702798Y-65011061D01*
X95739000Y-65011061D01*
X95739000Y-65214939D01*
X95778774Y-65414898D01*
X95856795Y-65603256D01*
X95970063Y-65772774D01*
X96114226Y-65916937D01*
X96283744Y-66030205D01*
X96472102Y-66108226D01*
X96672061Y-66148000D01*
X96875939Y-66148000D01*
X97075898Y-66108226D01*
X97264256Y-66030205D01*
X97433774Y-65916937D01*
X97577937Y-65772774D01*
X97691205Y-65603256D01*
X97716515Y-65542152D01*
X97719999Y-65542495D01*
X97760549Y-65538501D01*
X97760552Y-65538501D01*
X97881825Y-65526557D01*
X98037433Y-65479354D01*
X98180841Y-65402700D01*
X98306540Y-65299542D01*
X98332397Y-65268035D01*
X99073004Y-64527428D01*
X99234898Y-64495226D01*
X99423256Y-64417205D01*
X99592774Y-64303937D01*
X99736937Y-64159774D01*
X99850205Y-63990256D01*
X99928226Y-63801898D01*
X99968000Y-63601939D01*
X99968000Y-63398061D01*
X99928226Y-63198102D01*
X99850205Y-63009744D01*
X99736937Y-62840226D01*
X99592774Y-62696063D01*
X99423256Y-62582795D01*
X99234898Y-62504774D01*
X99034939Y-62465000D01*
X98831061Y-62465000D01*
X98631102Y-62504774D01*
X98442744Y-62582795D01*
X98273226Y-62696063D01*
X98129063Y-62840226D01*
X98015795Y-63009744D01*
X97937774Y-63198102D01*
X97905572Y-63359996D01*
X97378067Y-63887501D01*
X97214549Y-63887501D01*
X97173998Y-63883507D01*
X97133448Y-63887501D01*
X97133446Y-63887501D01*
X97012173Y-63899445D01*
X96856565Y-63946648D01*
X96713157Y-64023302D01*
X96638332Y-64084709D01*
X96472102Y-64117774D01*
X96283744Y-64195795D01*
X96114226Y-64309063D01*
X95970063Y-64453226D01*
X95856795Y-64622744D01*
X95778774Y-64811102D01*
X95739000Y-65011061D01*
X76702798Y-65011061D01*
X76705747Y-61326485D01*
X78327827Y-59709000D01*
X116391506Y-59709000D01*
X116395501Y-59749561D01*
X116395500Y-77175450D01*
X116391506Y-77216000D01*
X116395500Y-77256550D01*
X116395500Y-77256552D01*
X116407444Y-77377825D01*
X116435405Y-77470000D01*
X116454647Y-77533433D01*
X116531301Y-77676842D01*
X116565214Y-77718165D01*
X116634459Y-77802541D01*
X116665965Y-77828397D01*
X117497611Y-78660044D01*
X117523459Y-78691541D01*
X117554955Y-78717389D01*
X117554958Y-78717392D01*
X117649157Y-78794699D01*
X117719268Y-78832174D01*
X117792566Y-78871353D01*
X117948174Y-78918556D01*
X118069447Y-78930500D01*
X118069449Y-78930500D01*
X118110000Y-78934494D01*
X118150550Y-78930500D01*
X122054497Y-78930500D01*
X122191744Y-79022205D01*
X122380102Y-79100226D01*
X122580061Y-79140000D01*
X122783939Y-79140000D01*
X122983898Y-79100226D01*
X123172256Y-79022205D01*
X123341774Y-78908937D01*
X123485937Y-78764774D01*
X123599205Y-78595256D01*
X123677226Y-78406898D01*
X123717000Y-78206939D01*
X123717000Y-78003061D01*
X123677226Y-77803102D01*
X123599205Y-77614744D01*
X123485937Y-77445226D01*
X123341774Y-77301063D01*
X123172256Y-77187795D01*
X122983898Y-77109774D01*
X122783939Y-77070000D01*
X122580061Y-77070000D01*
X122380102Y-77109774D01*
X122191744Y-77187795D01*
X122054497Y-77279500D01*
X118451933Y-77279500D01*
X118046500Y-76874067D01*
X118046500Y-76214923D01*
X118332616Y-76501039D01*
X118358469Y-76532541D01*
X118422606Y-76585177D01*
X118484167Y-76635699D01*
X118529822Y-76660102D01*
X118627576Y-76712353D01*
X118783184Y-76759556D01*
X118904457Y-76771500D01*
X118904459Y-76771500D01*
X118945009Y-76775494D01*
X118985560Y-76771500D01*
X120403497Y-76771500D01*
X120540744Y-76863205D01*
X120729102Y-76941226D01*
X120929061Y-76981000D01*
X121132939Y-76981000D01*
X121332898Y-76941226D01*
X121521256Y-76863205D01*
X121690774Y-76749937D01*
X121834937Y-76605774D01*
X121948205Y-76436256D01*
X122026226Y-76247898D01*
X122066000Y-76047939D01*
X122066000Y-75844061D01*
X122026226Y-75644102D01*
X121948205Y-75455744D01*
X121834937Y-75286226D01*
X121690774Y-75142063D01*
X121521256Y-75028795D01*
X121332898Y-74950774D01*
X121132939Y-74911000D01*
X120929061Y-74911000D01*
X120729102Y-74950774D01*
X120540744Y-75028795D01*
X120403497Y-75120500D01*
X120369920Y-75120500D01*
X120424205Y-75039256D01*
X120502226Y-74850898D01*
X120542000Y-74650939D01*
X120542000Y-74447061D01*
X120502226Y-74247102D01*
X120424205Y-74058744D01*
X120310937Y-73889226D01*
X120166774Y-73745063D01*
X119997256Y-73631795D01*
X119808898Y-73553774D01*
X119642668Y-73520709D01*
X119567843Y-73459302D01*
X119424435Y-73382648D01*
X119268827Y-73335445D01*
X119208520Y-73329505D01*
X119208520Y-63968912D01*
X119451073Y-63726359D01*
X139300000Y-63726359D01*
X139300000Y-64400041D01*
X139431429Y-65060777D01*
X139689235Y-65683178D01*
X140063512Y-66243323D01*
X140539877Y-66719688D01*
X141100022Y-67093965D01*
X141722423Y-67351771D01*
X142383159Y-67483200D01*
X143056841Y-67483200D01*
X143717577Y-67351771D01*
X144339978Y-67093965D01*
X144900123Y-66719688D01*
X145376488Y-66243323D01*
X145750765Y-65683178D01*
X146008571Y-65060777D01*
X146140000Y-64400041D01*
X146140000Y-63726359D01*
X146008571Y-63065623D01*
X145750765Y-62443222D01*
X145376488Y-61883077D01*
X144900123Y-61406712D01*
X144339978Y-61032435D01*
X143717577Y-60774629D01*
X143056841Y-60643200D01*
X142383159Y-60643200D01*
X141722423Y-60774629D01*
X141100022Y-61032435D01*
X140539877Y-61406712D01*
X140063512Y-61883077D01*
X139689235Y-62443222D01*
X139431429Y-63065623D01*
X139300000Y-63726359D01*
X119451073Y-63726359D01*
X125394988Y-57782446D01*
X125429088Y-57792790D01*
X125730000Y-57822427D01*
X126030913Y-57792790D01*
X126320261Y-57705017D01*
X126586927Y-57562481D01*
X126820661Y-57370661D01*
X127000000Y-57152135D01*
X127179339Y-57370661D01*
X127413074Y-57562481D01*
X127679740Y-57705017D01*
X127969088Y-57792790D01*
X128270000Y-57822427D01*
X128570913Y-57792790D01*
X128860261Y-57705017D01*
X129126927Y-57562481D01*
X129360661Y-57370661D01*
X129540000Y-57152135D01*
X129719339Y-57370661D01*
X129953074Y-57562481D01*
X130219740Y-57705017D01*
X130509088Y-57792790D01*
X130810000Y-57822427D01*
X131110913Y-57792790D01*
X131400261Y-57705017D01*
X131666927Y-57562481D01*
X131900661Y-57370661D01*
X132080000Y-57152135D01*
X132259339Y-57370661D01*
X132493074Y-57562481D01*
X132759740Y-57705017D01*
X133049088Y-57792790D01*
X133350000Y-57822427D01*
X133650913Y-57792790D01*
X133940261Y-57705017D01*
X134206927Y-57562481D01*
X134440661Y-57370661D01*
X134620000Y-57152135D01*
X134799339Y-57370661D01*
X135033074Y-57562481D01*
X135299740Y-57705017D01*
X135589088Y-57792790D01*
X135890000Y-57822427D01*
X136190913Y-57792790D01*
X136480261Y-57705017D01*
X136746927Y-57562481D01*
X136980661Y-57370661D01*
X137160000Y-57152135D01*
X137339339Y-57370661D01*
X137573074Y-57562481D01*
X137839740Y-57705017D01*
X138129088Y-57792790D01*
X138430000Y-57822427D01*
X138730913Y-57792790D01*
X139020261Y-57705017D01*
X139286927Y-57562481D01*
X139520661Y-57370661D01*
X139700000Y-57152135D01*
X139879339Y-57370661D01*
X140113074Y-57562481D01*
X140379740Y-57705017D01*
X140669088Y-57792790D01*
X140970000Y-57822427D01*
X141270913Y-57792790D01*
X141560261Y-57705017D01*
X141826927Y-57562481D01*
X142060661Y-57370661D01*
X142240000Y-57152135D01*
X142419339Y-57370661D01*
X142653074Y-57562481D01*
X142919740Y-57705017D01*
X143209088Y-57792790D01*
X143510000Y-57822427D01*
X143810913Y-57792790D01*
X144100261Y-57705017D01*
X144366927Y-57562481D01*
X144600661Y-57370661D01*
X144780000Y-57152135D01*
X144959339Y-57370661D01*
X145193074Y-57562481D01*
X145459740Y-57705017D01*
X145749088Y-57792790D01*
X146050000Y-57822427D01*
X146350913Y-57792790D01*
X146640261Y-57705017D01*
X146906927Y-57562481D01*
X147140661Y-57370661D01*
X147332481Y-57136927D01*
X147475017Y-56870261D01*
X147562790Y-56580913D01*
X147585000Y-56355407D01*
X147585000Y-55404593D01*
X149595000Y-55404593D01*
X149595000Y-56355408D01*
X149617210Y-56580913D01*
X149704983Y-56870261D01*
X149847519Y-57136927D01*
X150039339Y-57370661D01*
X150273074Y-57562481D01*
X150304500Y-57579279D01*
X150304501Y-67396438D01*
X150304500Y-67396448D01*
X150304501Y-79715439D01*
X150300506Y-79756000D01*
X150316445Y-79917826D01*
X150363647Y-80073433D01*
X150440301Y-80216842D01*
X150499570Y-80289061D01*
X150543460Y-80342541D01*
X150574961Y-80368393D01*
X151152610Y-80946044D01*
X151178459Y-80977541D01*
X151209955Y-81003389D01*
X151209958Y-81003392D01*
X151304157Y-81080699D01*
X151445278Y-81156130D01*
X151447566Y-81157353D01*
X151603174Y-81204556D01*
X151724447Y-81216500D01*
X151724449Y-81216500D01*
X151765000Y-81220494D01*
X151805550Y-81216500D01*
X157233497Y-81216500D01*
X157370744Y-81308205D01*
X157559102Y-81386226D01*
X157759061Y-81426000D01*
X157962939Y-81426000D01*
X158162898Y-81386226D01*
X158351256Y-81308205D01*
X158520774Y-81194937D01*
X158664937Y-81050774D01*
X158778205Y-80881256D01*
X158856226Y-80692898D01*
X158896000Y-80492939D01*
X158896000Y-80289061D01*
X158856226Y-80089102D01*
X158778205Y-79900744D01*
X158664937Y-79731226D01*
X158520774Y-79587063D01*
X158351256Y-79473795D01*
X158162898Y-79395774D01*
X157962939Y-79356000D01*
X157759061Y-79356000D01*
X157559102Y-79395774D01*
X157370744Y-79473795D01*
X157233497Y-79565500D01*
X152106933Y-79565500D01*
X151955500Y-79414067D01*
X151955500Y-68024023D01*
X167320000Y-68024023D01*
X167320000Y-69722378D01*
X167341849Y-69944212D01*
X167428193Y-70228848D01*
X167568407Y-70491170D01*
X167757104Y-70721097D01*
X167987031Y-70909794D01*
X168249353Y-71050008D01*
X168533989Y-71136351D01*
X168830000Y-71165506D01*
X169126012Y-71136351D01*
X169410648Y-71050008D01*
X169672970Y-70909794D01*
X169902897Y-70721097D01*
X170091594Y-70491170D01*
X170231808Y-70228848D01*
X170318151Y-69944212D01*
X170340000Y-69722378D01*
X170340000Y-68024022D01*
X170318151Y-67802188D01*
X170231808Y-67517552D01*
X170091594Y-67255230D01*
X169902897Y-67025303D01*
X169672969Y-66836606D01*
X169410647Y-66696392D01*
X169126011Y-66610049D01*
X168830000Y-66580894D01*
X168533988Y-66610049D01*
X168249352Y-66696392D01*
X167987030Y-66836606D01*
X167757103Y-67025303D01*
X167568406Y-67255231D01*
X167428192Y-67517553D01*
X167341849Y-67802189D01*
X167320000Y-68024023D01*
X151955500Y-68024023D01*
X151955500Y-61112061D01*
X188576000Y-61112061D01*
X188576000Y-61315939D01*
X188615774Y-61515898D01*
X188693795Y-61704256D01*
X188807063Y-61873774D01*
X188951226Y-62017937D01*
X189120744Y-62131205D01*
X189309102Y-62209226D01*
X189509061Y-62249000D01*
X189712939Y-62249000D01*
X189912898Y-62209226D01*
X190101256Y-62131205D01*
X190238503Y-62039500D01*
X191015497Y-62039500D01*
X191152744Y-62131205D01*
X191341102Y-62209226D01*
X191541061Y-62249000D01*
X191744939Y-62249000D01*
X191944898Y-62209226D01*
X192133256Y-62131205D01*
X192302774Y-62017937D01*
X192446937Y-61873774D01*
X192560205Y-61704256D01*
X192638226Y-61515898D01*
X192678000Y-61315939D01*
X192678000Y-61112061D01*
X192638226Y-60912102D01*
X192560205Y-60723744D01*
X192446937Y-60554226D01*
X192302774Y-60410063D01*
X192133256Y-60296795D01*
X191944898Y-60218774D01*
X191744939Y-60179000D01*
X191541061Y-60179000D01*
X191341102Y-60218774D01*
X191152744Y-60296795D01*
X191015497Y-60388500D01*
X190238503Y-60388500D01*
X190101256Y-60296795D01*
X189912898Y-60218774D01*
X189712939Y-60179000D01*
X189509061Y-60179000D01*
X189309102Y-60218774D01*
X189120744Y-60296795D01*
X188951226Y-60410063D01*
X188807063Y-60554226D01*
X188693795Y-60723744D01*
X188615774Y-60912102D01*
X188576000Y-61112061D01*
X151955500Y-61112061D01*
X151955500Y-57579279D01*
X151986927Y-57562481D01*
X152220661Y-57370661D01*
X152412481Y-57136927D01*
X152555017Y-56870261D01*
X152642790Y-56580913D01*
X152665000Y-56355407D01*
X152665000Y-55669721D01*
X180395000Y-55669721D01*
X180395000Y-56090279D01*
X180477047Y-56502756D01*
X180637988Y-56891302D01*
X180871637Y-57240983D01*
X181169017Y-57538363D01*
X181518698Y-57772012D01*
X181907244Y-57932953D01*
X182319721Y-58015000D01*
X182740279Y-58015000D01*
X183152756Y-57932953D01*
X183541302Y-57772012D01*
X183890983Y-57538363D01*
X184188363Y-57240983D01*
X184422012Y-56891302D01*
X184582953Y-56502756D01*
X184665000Y-56090279D01*
X184665000Y-55669721D01*
X184582953Y-55257244D01*
X184422012Y-54868698D01*
X184188363Y-54519017D01*
X183890983Y-54221637D01*
X183541302Y-53987988D01*
X183152756Y-53827047D01*
X182740279Y-53745000D01*
X182319721Y-53745000D01*
X181907244Y-53827047D01*
X181518698Y-53987988D01*
X181169017Y-54221637D01*
X180871637Y-54519017D01*
X180637988Y-54868698D01*
X180477047Y-55257244D01*
X180395000Y-55669721D01*
X152665000Y-55669721D01*
X152665000Y-55404592D01*
X152642790Y-55179087D01*
X152555017Y-54889739D01*
X152412481Y-54623073D01*
X152220661Y-54389339D01*
X151986926Y-54197519D01*
X151720260Y-54054983D01*
X151430912Y-53967210D01*
X151130000Y-53937573D01*
X150829087Y-53967210D01*
X150539739Y-54054983D01*
X150273073Y-54197519D01*
X150039339Y-54389339D01*
X149847519Y-54623074D01*
X149704983Y-54889740D01*
X149617210Y-55179088D01*
X149595000Y-55404593D01*
X147585000Y-55404593D01*
X147585000Y-55404592D01*
X147562790Y-55179087D01*
X147475017Y-54889739D01*
X147332481Y-54623073D01*
X147140661Y-54389339D01*
X146906926Y-54197519D01*
X146640260Y-54054983D01*
X146350912Y-53967210D01*
X146050000Y-53937573D01*
X145749087Y-53967210D01*
X145459739Y-54054983D01*
X145193073Y-54197519D01*
X144959339Y-54389339D01*
X144780000Y-54607865D01*
X144600661Y-54389339D01*
X144366926Y-54197519D01*
X144100260Y-54054983D01*
X143810912Y-53967210D01*
X143510000Y-53937573D01*
X143209087Y-53967210D01*
X142919739Y-54054983D01*
X142653073Y-54197519D01*
X142419339Y-54389339D01*
X142240000Y-54607865D01*
X142060661Y-54389339D01*
X141826926Y-54197519D01*
X141560260Y-54054983D01*
X141270912Y-53967210D01*
X140970000Y-53937573D01*
X140669087Y-53967210D01*
X140379739Y-54054983D01*
X140113073Y-54197519D01*
X139879339Y-54389339D01*
X139700000Y-54607865D01*
X139520661Y-54389339D01*
X139286926Y-54197519D01*
X139020260Y-54054983D01*
X138730912Y-53967210D01*
X138430000Y-53937573D01*
X138129087Y-53967210D01*
X137839739Y-54054983D01*
X137573073Y-54197519D01*
X137339339Y-54389339D01*
X137160000Y-54607865D01*
X136980661Y-54389339D01*
X136746926Y-54197519D01*
X136480260Y-54054983D01*
X136190912Y-53967210D01*
X135890000Y-53937573D01*
X135589087Y-53967210D01*
X135299739Y-54054983D01*
X135033073Y-54197519D01*
X134799339Y-54389339D01*
X134620000Y-54607865D01*
X134440661Y-54389339D01*
X134206926Y-54197519D01*
X133940260Y-54054983D01*
X133650912Y-53967210D01*
X133350000Y-53937573D01*
X133049087Y-53967210D01*
X132759739Y-54054983D01*
X132493073Y-54197519D01*
X132259339Y-54389339D01*
X132080000Y-54607865D01*
X131900661Y-54389339D01*
X131666926Y-54197519D01*
X131400260Y-54054983D01*
X131110912Y-53967210D01*
X130810000Y-53937573D01*
X130509087Y-53967210D01*
X130219739Y-54054983D01*
X129953073Y-54197519D01*
X129719339Y-54389339D01*
X129540000Y-54607865D01*
X129360661Y-54389339D01*
X129126926Y-54197519D01*
X128860260Y-54054983D01*
X128570912Y-53967210D01*
X128270000Y-53937573D01*
X127969087Y-53967210D01*
X127679739Y-54054983D01*
X127413073Y-54197519D01*
X127179339Y-54389339D01*
X127000000Y-54607865D01*
X126820661Y-54389339D01*
X126586926Y-54197519D01*
X126320260Y-54054983D01*
X126030912Y-53967210D01*
X125730000Y-53937573D01*
X125429087Y-53967210D01*
X125139739Y-54054983D01*
X124873073Y-54197519D01*
X124639339Y-54389339D01*
X124460000Y-54607865D01*
X124280661Y-54389339D01*
X124046926Y-54197519D01*
X123780260Y-54054983D01*
X123490912Y-53967210D01*
X123190000Y-53937573D01*
X122889087Y-53967210D01*
X122599739Y-54054983D01*
X122333073Y-54197519D01*
X122099339Y-54389339D01*
X121920000Y-54607865D01*
X121740661Y-54389339D01*
X121506926Y-54197519D01*
X121240260Y-54054983D01*
X120950912Y-53967210D01*
X120650000Y-53937573D01*
X120349087Y-53967210D01*
X120059739Y-54054983D01*
X119793073Y-54197519D01*
X119559339Y-54389339D01*
X119380000Y-54607865D01*
X119200661Y-54389339D01*
X118966926Y-54197519D01*
X118700260Y-54054983D01*
X118410912Y-53967210D01*
X118110000Y-53937573D01*
X117809087Y-53967210D01*
X117519739Y-54054983D01*
X117253073Y-54197519D01*
X117019339Y-54389339D01*
X116827519Y-54623074D01*
X116684983Y-54889740D01*
X116597210Y-55179088D01*
X116575000Y-55404593D01*
X116575000Y-56355408D01*
X116597210Y-56580913D01*
X116684983Y-56870261D01*
X116827519Y-57136927D01*
X117019339Y-57370661D01*
X117253074Y-57562481D01*
X117519740Y-57705017D01*
X117809088Y-57792790D01*
X117955370Y-57807197D01*
X116665961Y-59096607D01*
X116634460Y-59122459D01*
X116608609Y-59153959D01*
X116531301Y-59248158D01*
X116454647Y-59391567D01*
X116407445Y-59547174D01*
X116391506Y-59709000D01*
X78327827Y-59709000D01*
X81148819Y-56896000D01*
X94265815Y-56896000D01*
X94294487Y-57187111D01*
X94379401Y-57467034D01*
X94517294Y-57725014D01*
X94702866Y-57951134D01*
X94928986Y-58136706D01*
X95186966Y-58274599D01*
X95466889Y-58359513D01*
X95685050Y-58381000D01*
X95830950Y-58381000D01*
X96049111Y-58359513D01*
X96329034Y-58274599D01*
X96587014Y-58136706D01*
X96813134Y-57951134D01*
X96998706Y-57725014D01*
X97136599Y-57467034D01*
X97221513Y-57187111D01*
X97250185Y-56896000D01*
X97221513Y-56604889D01*
X97136599Y-56324966D01*
X96998706Y-56066986D01*
X96981484Y-56046000D01*
X99349928Y-56046000D01*
X99349928Y-57746000D01*
X99362188Y-57870482D01*
X99398498Y-57990180D01*
X99457463Y-58100494D01*
X99536815Y-58197185D01*
X99633506Y-58276537D01*
X99743820Y-58335502D01*
X99863518Y-58371812D01*
X99988000Y-58384072D01*
X101688000Y-58384072D01*
X101812482Y-58371812D01*
X101932180Y-58335502D01*
X102042494Y-58276537D01*
X102139185Y-58197185D01*
X102218537Y-58100494D01*
X102277502Y-57990180D01*
X102313812Y-57870482D01*
X102326072Y-57746000D01*
X102326072Y-56046000D01*
X102313812Y-55921518D01*
X102277502Y-55801820D01*
X102218537Y-55691506D01*
X102200659Y-55669721D01*
X105395900Y-55669721D01*
X105395900Y-56090279D01*
X105477947Y-56502756D01*
X105638888Y-56891302D01*
X105872537Y-57240983D01*
X106169917Y-57538363D01*
X106519598Y-57772012D01*
X106908144Y-57932953D01*
X107320621Y-58015000D01*
X107741179Y-58015000D01*
X108153656Y-57932953D01*
X108542202Y-57772012D01*
X108891883Y-57538363D01*
X109189263Y-57240983D01*
X109422912Y-56891302D01*
X109583853Y-56502756D01*
X109665900Y-56090279D01*
X109665900Y-55669721D01*
X109583853Y-55257244D01*
X109422912Y-54868698D01*
X109230011Y-54580000D01*
X111491928Y-54580000D01*
X111491928Y-57180000D01*
X111504188Y-57304482D01*
X111540498Y-57424180D01*
X111599463Y-57534494D01*
X111678815Y-57631185D01*
X111775506Y-57710537D01*
X111885820Y-57769502D01*
X112005518Y-57805812D01*
X112130000Y-57818072D01*
X113930000Y-57818072D01*
X114054482Y-57805812D01*
X114174180Y-57769502D01*
X114284494Y-57710537D01*
X114381185Y-57631185D01*
X114460537Y-57534494D01*
X114519502Y-57424180D01*
X114555812Y-57304482D01*
X114568072Y-57180000D01*
X114568072Y-54580000D01*
X114555812Y-54455518D01*
X114519502Y-54335820D01*
X114460537Y-54225506D01*
X114381185Y-54128815D01*
X114284494Y-54049463D01*
X114174180Y-53990498D01*
X114054482Y-53954188D01*
X113930000Y-53941928D01*
X112130000Y-53941928D01*
X112005518Y-53954188D01*
X111885820Y-53990498D01*
X111775506Y-54049463D01*
X111678815Y-54128815D01*
X111599463Y-54225506D01*
X111540498Y-54335820D01*
X111504188Y-54455518D01*
X111491928Y-54580000D01*
X109230011Y-54580000D01*
X109189263Y-54519017D01*
X108891883Y-54221637D01*
X108542202Y-53987988D01*
X108153656Y-53827047D01*
X107741179Y-53745000D01*
X107320621Y-53745000D01*
X106908144Y-53827047D01*
X106519598Y-53987988D01*
X106169917Y-54221637D01*
X105872537Y-54519017D01*
X105638888Y-54868698D01*
X105477947Y-55257244D01*
X105395900Y-55669721D01*
X102200659Y-55669721D01*
X102139185Y-55594815D01*
X102042494Y-55515463D01*
X101932180Y-55456498D01*
X101812482Y-55420188D01*
X101688000Y-55407928D01*
X99988000Y-55407928D01*
X99863518Y-55420188D01*
X99743820Y-55456498D01*
X99633506Y-55515463D01*
X99536815Y-55594815D01*
X99457463Y-55691506D01*
X99398498Y-55801820D01*
X99362188Y-55921518D01*
X99349928Y-56046000D01*
X96981484Y-56046000D01*
X96813134Y-55840866D01*
X96587014Y-55655294D01*
X96329034Y-55517401D01*
X96049111Y-55432487D01*
X95830950Y-55411000D01*
X95685050Y-55411000D01*
X95466889Y-55432487D01*
X95186966Y-55517401D01*
X94928986Y-55655294D01*
X94702866Y-55840866D01*
X94517294Y-56066986D01*
X94379401Y-56324966D01*
X94294487Y-56604889D01*
X94265815Y-56896000D01*
X81148819Y-56896000D01*
X85226371Y-52830000D01*
X204154569Y-52830000D01*
X212676327Y-61375900D01*
M02*
