M48
; DRILL file {KiCad (5.1.4)-1} date 12/11/2019 1:43:34 PM
; FORMAT={-:-/ absolute / inch / decimal}
; #@! TF.CreationDate,2019-12-11T13:43:34-06:00
; #@! TF.GenerationSoftware,Kicad,Pcbnew,(5.1.4)-1
; #@! TF.FileFunction,Plated,1,2,PTH
FMAT,2
INCH
T1C0.0157
T2C0.0295
T3C0.0300
T4C0.0330
T5C0.0350
T6C0.0354
T7C0.0394
T8C0.0472
T9C0.0550
T10C0.0591
T11C0.0984
%
G90
G05
T1
X3.3304Y-2.145
X3.81Y-2.5635
X3.895Y-2.5
X4.065Y-2.835
X4.705Y-2.935
X4.765Y-2.99
X4.83Y-3.075
X5.315Y-3.29
X5.32Y-3.35
X5.39Y-3.74
X5.435Y-3.7
X5.57Y-4.415
X5.65Y-4.38
X5.725Y-4.34
X5.81Y-4.305
X6.0224Y-3.64
X6.045Y-3.8
X6.045Y-3.84
X6.085Y-3.74
X6.15Y-3.76
X6.16Y-3.805
X6.215Y-3.165
X6.355Y-3.805
X6.355Y-3.905
X6.355Y-3.955
X6.355Y-4.005
X6.355Y-4.055
X6.455Y-3.69
X6.535Y-4.1
X6.605Y-4.31
X6.65Y-3.705
X6.69Y-4.225
X6.775Y-4.06
X6.78Y-4.4
X6.9544Y-3.8296
X6.9564Y-3.8796
X6.96Y-3.765
X7.29Y-3.03
X7.315Y-3.81
X7.33Y-3.03
X7.4009Y-3.1709
X7.465Y-2.41
X7.54Y-3.03
X7.545Y-2.41
X7.6344Y-2.8256
X7.67Y-2.5167
X8.07Y-3.05
X8.13Y-2.76
X8.27Y-3.05
X8.3Y-2.64
T2
X6.92Y-4.32
X6.97Y-4.32
X7.02Y-4.32
T3
X4.368Y-3.818
X4.368Y-4.718
X4.468Y-3.818
X4.468Y-4.718
X4.568Y-3.818
X4.568Y-4.718
X4.668Y-3.818
X4.668Y-4.718
X4.768Y-3.818
X4.768Y-4.718
X4.868Y-3.818
X4.868Y-4.718
X4.968Y-3.818
X4.968Y-4.718
X5.068Y-3.818
X5.068Y-4.718
X5.168Y-3.818
X5.168Y-4.718
X5.268Y-3.818
X5.268Y-4.718
X5.368Y-3.818
X5.368Y-4.718
X5.468Y-3.818
X5.468Y-4.718
X5.568Y-3.818
X5.568Y-4.718
X5.668Y-3.818
X5.668Y-4.718
X5.768Y-3.818
X5.768Y-4.718
T4
X6.23Y-4.367
X6.33Y-4.267
X6.43Y-4.367
T5
X7.44Y-4.064
X7.44Y-4.164
X7.44Y-4.264
X7.74Y-4.564
X7.84Y-4.564
X7.94Y-4.564
X3.15Y-3.34
X3.15Y-3.44
X3.15Y-3.54
X3.45Y-3.84
X3.55Y-3.84
X3.65Y-3.84
T6
X7.715Y-3.664
X7.715Y-3.864
X7.965Y-3.664
X7.965Y-3.864
X3.425Y-2.94
X3.425Y-3.14
X3.675Y-2.94
X3.675Y-3.14
X7.87Y-2.2325
X7.87Y-2.3113
X7.87Y-2.39
T7
X3.77Y-2.24
X3.87Y-2.24
X3.97Y-2.24
T8
X4.45Y-2.2
X4.55Y-2.2
X4.65Y-2.2
X4.75Y-2.2
X4.85Y-2.2
X4.95Y-2.2
X5.05Y-2.2
X5.15Y-2.2
X5.25Y-2.2
X5.35Y-2.2
X5.45Y-2.2
X5.55Y-2.2
X5.65Y-2.2
X5.75Y-2.2
X5.85Y-2.2
X5.95Y-2.2
T9
X7.54Y-3.9015
X7.54Y-4.4265
X8.14Y-3.9015
X8.14Y-4.4265
X3.25Y-3.1775
X3.25Y-3.7025
X3.85Y-3.1775
X3.85Y-3.7025
T10
X7.87Y-2.1498
X7.87Y-2.4727
T11
X4.2335Y-2.2
X4.2335Y-3.4205
X7.1862Y-3.4205
X7.1862Y-2.2
T2
G00X6.6469Y-2.681
M15
G01X6.6469Y-2.7421
M16
G05
G00X6.6469Y-3.1909
M15
G01X6.6469Y-3.2519
M16
G05
T0
M30
