G04 #@! TF.GenerationSoftware,KiCad,Pcbnew,(5.1.4)-1*
G04 #@! TF.CreationDate,2019-12-11T13:43:38-06:00*
G04 #@! TF.ProjectId,Rover_Controller,526f7665-725f-4436-9f6e-74726f6c6c65,rev?*
G04 #@! TF.SameCoordinates,Original*
G04 #@! TF.FileFunction,Legend,Bot*
G04 #@! TF.FilePolarity,Positive*
%FSLAX46Y46*%
G04 Gerber Fmt 4.6, Leading zero omitted, Abs format (unit mm)*
G04 Created by KiCad (PCBNEW (5.1.4)-1) date 2019-12-11 13:43:38*
%MOMM*%
%LPD*%
G04 APERTURE LIST*
%ADD10C,0.100000*%
%ADD11C,0.150000*%
G04 APERTURE END LIST*
D10*
X170580000Y-90463200D02*
X169830000Y-90463200D01*
X170580000Y-90463200D02*
X170580000Y-89713200D01*
X115260000Y-90463200D02*
X115260000Y-89713200D01*
X116010000Y-90463200D02*
X115260000Y-90463200D01*
X116010000Y-60163200D02*
X115260000Y-60163200D01*
X170580000Y-60163200D02*
X169830000Y-60163200D01*
X115260000Y-60913200D02*
X115260000Y-60163200D01*
X170580000Y-60913200D02*
X170580000Y-60163200D01*
D11*
X144455714Y-91401771D02*
X144312857Y-91449390D01*
X144265238Y-91497009D01*
X144217619Y-91592247D01*
X144217619Y-91735104D01*
X144265238Y-91830342D01*
X144312857Y-91877961D01*
X144408095Y-91925580D01*
X144789047Y-91925580D01*
X144789047Y-90925580D01*
X144455714Y-90925580D01*
X144360476Y-90973200D01*
X144312857Y-91020819D01*
X144265238Y-91116057D01*
X144265238Y-91211295D01*
X144312857Y-91306533D01*
X144360476Y-91354152D01*
X144455714Y-91401771D01*
X144789047Y-91401771D01*
X143931904Y-90925580D02*
X143360476Y-90925580D01*
X143646190Y-91925580D02*
X143646190Y-90925580D01*
X142503333Y-91925580D02*
X143074761Y-91925580D01*
X142789047Y-91925580D02*
X142789047Y-90925580D01*
X142884285Y-91068438D01*
X142979523Y-91163676D01*
X143074761Y-91211295D01*
M02*
