G04 #@! TF.GenerationSoftware,KiCad,Pcbnew,(5.1.4)-1*
G04 #@! TF.CreationDate,2019-12-11T13:43:38-06:00*
G04 #@! TF.ProjectId,Rover_Controller,526f7665-725f-4436-9f6e-74726f6c6c65,rev?*
G04 #@! TF.SameCoordinates,Original*
G04 #@! TF.FileFunction,Soldermask,Bot*
G04 #@! TF.FilePolarity,Negative*
%FSLAX46Y46*%
G04 Gerber Fmt 4.6, Leading zero omitted, Abs format (unit mm)*
G04 Created by KiCad (PCBNEW (5.1.4)-1) date 2019-12-11 13:43:38*
%MOMM*%
%LPD*%
G04 APERTURE LIST*
%ADD10C,0.100000*%
G04 APERTURE END LIST*
D10*
G36*
X111184342Y-119055442D02*
G01*
X111332301Y-119116729D01*
X111465455Y-119205699D01*
X111578701Y-119318945D01*
X111667671Y-119452099D01*
X111728958Y-119600058D01*
X111760200Y-119757125D01*
X111760200Y-119917275D01*
X111728958Y-120074342D01*
X111667671Y-120222301D01*
X111578701Y-120355455D01*
X111465455Y-120468701D01*
X111332301Y-120557671D01*
X111184342Y-120618958D01*
X111027275Y-120650200D01*
X110867125Y-120650200D01*
X110710058Y-120618958D01*
X110562099Y-120557671D01*
X110428945Y-120468701D01*
X110315699Y-120355455D01*
X110226729Y-120222301D01*
X110165442Y-120074342D01*
X110134200Y-119917275D01*
X110134200Y-119757125D01*
X110165442Y-119600058D01*
X110226729Y-119452099D01*
X110315699Y-119318945D01*
X110428945Y-119205699D01*
X110562099Y-119116729D01*
X110710058Y-119055442D01*
X110867125Y-119024200D01*
X111027275Y-119024200D01*
X111184342Y-119055442D01*
X111184342Y-119055442D01*
G37*
G36*
X146744342Y-119055442D02*
G01*
X146892301Y-119116729D01*
X147025455Y-119205699D01*
X147138701Y-119318945D01*
X147227671Y-119452099D01*
X147288958Y-119600058D01*
X147320200Y-119757125D01*
X147320200Y-119917275D01*
X147288958Y-120074342D01*
X147227671Y-120222301D01*
X147138701Y-120355455D01*
X147025455Y-120468701D01*
X146892301Y-120557671D01*
X146744342Y-120618958D01*
X146587275Y-120650200D01*
X146427125Y-120650200D01*
X146270058Y-120618958D01*
X146122099Y-120557671D01*
X145988945Y-120468701D01*
X145875699Y-120355455D01*
X145786729Y-120222301D01*
X145725442Y-120074342D01*
X145694200Y-119917275D01*
X145694200Y-119757125D01*
X145725442Y-119600058D01*
X145786729Y-119452099D01*
X145875699Y-119318945D01*
X145988945Y-119205699D01*
X146122099Y-119116729D01*
X146270058Y-119055442D01*
X146427125Y-119024200D01*
X146587275Y-119024200D01*
X146744342Y-119055442D01*
X146744342Y-119055442D01*
G37*
G36*
X131504342Y-119055442D02*
G01*
X131652301Y-119116729D01*
X131785455Y-119205699D01*
X131898701Y-119318945D01*
X131987671Y-119452099D01*
X132048958Y-119600058D01*
X132080200Y-119757125D01*
X132080200Y-119917275D01*
X132048958Y-120074342D01*
X131987671Y-120222301D01*
X131898701Y-120355455D01*
X131785455Y-120468701D01*
X131652301Y-120557671D01*
X131504342Y-120618958D01*
X131347275Y-120650200D01*
X131187125Y-120650200D01*
X131030058Y-120618958D01*
X130882099Y-120557671D01*
X130748945Y-120468701D01*
X130635699Y-120355455D01*
X130546729Y-120222301D01*
X130485442Y-120074342D01*
X130454200Y-119917275D01*
X130454200Y-119757125D01*
X130485442Y-119600058D01*
X130546729Y-119452099D01*
X130635699Y-119318945D01*
X130748945Y-119205699D01*
X130882099Y-119116729D01*
X131030058Y-119055442D01*
X131187125Y-119024200D01*
X131347275Y-119024200D01*
X131504342Y-119055442D01*
X131504342Y-119055442D01*
G37*
G36*
X134044342Y-119055442D02*
G01*
X134192301Y-119116729D01*
X134325455Y-119205699D01*
X134438701Y-119318945D01*
X134527671Y-119452099D01*
X134588958Y-119600058D01*
X134620200Y-119757125D01*
X134620200Y-119917275D01*
X134588958Y-120074342D01*
X134527671Y-120222301D01*
X134438701Y-120355455D01*
X134325455Y-120468701D01*
X134192301Y-120557671D01*
X134044342Y-120618958D01*
X133887275Y-120650200D01*
X133727125Y-120650200D01*
X133570058Y-120618958D01*
X133422099Y-120557671D01*
X133288945Y-120468701D01*
X133175699Y-120355455D01*
X133086729Y-120222301D01*
X133025442Y-120074342D01*
X132994200Y-119917275D01*
X132994200Y-119757125D01*
X133025442Y-119600058D01*
X133086729Y-119452099D01*
X133175699Y-119318945D01*
X133288945Y-119205699D01*
X133422099Y-119116729D01*
X133570058Y-119055442D01*
X133727125Y-119024200D01*
X133887275Y-119024200D01*
X134044342Y-119055442D01*
X134044342Y-119055442D01*
G37*
G36*
X136584342Y-119055442D02*
G01*
X136732301Y-119116729D01*
X136865455Y-119205699D01*
X136978701Y-119318945D01*
X137067671Y-119452099D01*
X137128958Y-119600058D01*
X137160200Y-119757125D01*
X137160200Y-119917275D01*
X137128958Y-120074342D01*
X137067671Y-120222301D01*
X136978701Y-120355455D01*
X136865455Y-120468701D01*
X136732301Y-120557671D01*
X136584342Y-120618958D01*
X136427275Y-120650200D01*
X136267125Y-120650200D01*
X136110058Y-120618958D01*
X135962099Y-120557671D01*
X135828945Y-120468701D01*
X135715699Y-120355455D01*
X135626729Y-120222301D01*
X135565442Y-120074342D01*
X135534200Y-119917275D01*
X135534200Y-119757125D01*
X135565442Y-119600058D01*
X135626729Y-119452099D01*
X135715699Y-119318945D01*
X135828945Y-119205699D01*
X135962099Y-119116729D01*
X136110058Y-119055442D01*
X136267125Y-119024200D01*
X136427275Y-119024200D01*
X136584342Y-119055442D01*
X136584342Y-119055442D01*
G37*
G36*
X139124342Y-119055442D02*
G01*
X139272301Y-119116729D01*
X139405455Y-119205699D01*
X139518701Y-119318945D01*
X139607671Y-119452099D01*
X139668958Y-119600058D01*
X139700200Y-119757125D01*
X139700200Y-119917275D01*
X139668958Y-120074342D01*
X139607671Y-120222301D01*
X139518701Y-120355455D01*
X139405455Y-120468701D01*
X139272301Y-120557671D01*
X139124342Y-120618958D01*
X138967275Y-120650200D01*
X138807125Y-120650200D01*
X138650058Y-120618958D01*
X138502099Y-120557671D01*
X138368945Y-120468701D01*
X138255699Y-120355455D01*
X138166729Y-120222301D01*
X138105442Y-120074342D01*
X138074200Y-119917275D01*
X138074200Y-119757125D01*
X138105442Y-119600058D01*
X138166729Y-119452099D01*
X138255699Y-119318945D01*
X138368945Y-119205699D01*
X138502099Y-119116729D01*
X138650058Y-119055442D01*
X138807125Y-119024200D01*
X138967275Y-119024200D01*
X139124342Y-119055442D01*
X139124342Y-119055442D01*
G37*
G36*
X141664342Y-119055442D02*
G01*
X141812301Y-119116729D01*
X141945455Y-119205699D01*
X142058701Y-119318945D01*
X142147671Y-119452099D01*
X142208958Y-119600058D01*
X142240200Y-119757125D01*
X142240200Y-119917275D01*
X142208958Y-120074342D01*
X142147671Y-120222301D01*
X142058701Y-120355455D01*
X141945455Y-120468701D01*
X141812301Y-120557671D01*
X141664342Y-120618958D01*
X141507275Y-120650200D01*
X141347125Y-120650200D01*
X141190058Y-120618958D01*
X141042099Y-120557671D01*
X140908945Y-120468701D01*
X140795699Y-120355455D01*
X140706729Y-120222301D01*
X140645442Y-120074342D01*
X140614200Y-119917275D01*
X140614200Y-119757125D01*
X140645442Y-119600058D01*
X140706729Y-119452099D01*
X140795699Y-119318945D01*
X140908945Y-119205699D01*
X141042099Y-119116729D01*
X141190058Y-119055442D01*
X141347125Y-119024200D01*
X141507275Y-119024200D01*
X141664342Y-119055442D01*
X141664342Y-119055442D01*
G37*
G36*
X144204342Y-119055442D02*
G01*
X144352301Y-119116729D01*
X144485455Y-119205699D01*
X144598701Y-119318945D01*
X144687671Y-119452099D01*
X144748958Y-119600058D01*
X144780200Y-119757125D01*
X144780200Y-119917275D01*
X144748958Y-120074342D01*
X144687671Y-120222301D01*
X144598701Y-120355455D01*
X144485455Y-120468701D01*
X144352301Y-120557671D01*
X144204342Y-120618958D01*
X144047275Y-120650200D01*
X143887125Y-120650200D01*
X143730058Y-120618958D01*
X143582099Y-120557671D01*
X143448945Y-120468701D01*
X143335699Y-120355455D01*
X143246729Y-120222301D01*
X143185442Y-120074342D01*
X143154200Y-119917275D01*
X143154200Y-119757125D01*
X143185442Y-119600058D01*
X143246729Y-119452099D01*
X143335699Y-119318945D01*
X143448945Y-119205699D01*
X143582099Y-119116729D01*
X143730058Y-119055442D01*
X143887125Y-119024200D01*
X144047275Y-119024200D01*
X144204342Y-119055442D01*
X144204342Y-119055442D01*
G37*
G36*
X126424342Y-119055442D02*
G01*
X126572301Y-119116729D01*
X126705455Y-119205699D01*
X126818701Y-119318945D01*
X126907671Y-119452099D01*
X126968958Y-119600058D01*
X127000200Y-119757125D01*
X127000200Y-119917275D01*
X126968958Y-120074342D01*
X126907671Y-120222301D01*
X126818701Y-120355455D01*
X126705455Y-120468701D01*
X126572301Y-120557671D01*
X126424342Y-120618958D01*
X126267275Y-120650200D01*
X126107125Y-120650200D01*
X125950058Y-120618958D01*
X125802099Y-120557671D01*
X125668945Y-120468701D01*
X125555699Y-120355455D01*
X125466729Y-120222301D01*
X125405442Y-120074342D01*
X125374200Y-119917275D01*
X125374200Y-119757125D01*
X125405442Y-119600058D01*
X125466729Y-119452099D01*
X125555699Y-119318945D01*
X125668945Y-119205699D01*
X125802099Y-119116729D01*
X125950058Y-119055442D01*
X126107125Y-119024200D01*
X126267275Y-119024200D01*
X126424342Y-119055442D01*
X126424342Y-119055442D01*
G37*
G36*
X123884342Y-119055442D02*
G01*
X124032301Y-119116729D01*
X124165455Y-119205699D01*
X124278701Y-119318945D01*
X124367671Y-119452099D01*
X124428958Y-119600058D01*
X124460200Y-119757125D01*
X124460200Y-119917275D01*
X124428958Y-120074342D01*
X124367671Y-120222301D01*
X124278701Y-120355455D01*
X124165455Y-120468701D01*
X124032301Y-120557671D01*
X123884342Y-120618958D01*
X123727275Y-120650200D01*
X123567125Y-120650200D01*
X123410058Y-120618958D01*
X123262099Y-120557671D01*
X123128945Y-120468701D01*
X123015699Y-120355455D01*
X122926729Y-120222301D01*
X122865442Y-120074342D01*
X122834200Y-119917275D01*
X122834200Y-119757125D01*
X122865442Y-119600058D01*
X122926729Y-119452099D01*
X123015699Y-119318945D01*
X123128945Y-119205699D01*
X123262099Y-119116729D01*
X123410058Y-119055442D01*
X123567125Y-119024200D01*
X123727275Y-119024200D01*
X123884342Y-119055442D01*
X123884342Y-119055442D01*
G37*
G36*
X121344342Y-119055442D02*
G01*
X121492301Y-119116729D01*
X121625455Y-119205699D01*
X121738701Y-119318945D01*
X121827671Y-119452099D01*
X121888958Y-119600058D01*
X121920200Y-119757125D01*
X121920200Y-119917275D01*
X121888958Y-120074342D01*
X121827671Y-120222301D01*
X121738701Y-120355455D01*
X121625455Y-120468701D01*
X121492301Y-120557671D01*
X121344342Y-120618958D01*
X121187275Y-120650200D01*
X121027125Y-120650200D01*
X120870058Y-120618958D01*
X120722099Y-120557671D01*
X120588945Y-120468701D01*
X120475699Y-120355455D01*
X120386729Y-120222301D01*
X120325442Y-120074342D01*
X120294200Y-119917275D01*
X120294200Y-119757125D01*
X120325442Y-119600058D01*
X120386729Y-119452099D01*
X120475699Y-119318945D01*
X120588945Y-119205699D01*
X120722099Y-119116729D01*
X120870058Y-119055442D01*
X121027125Y-119024200D01*
X121187275Y-119024200D01*
X121344342Y-119055442D01*
X121344342Y-119055442D01*
G37*
G36*
X118804342Y-119055442D02*
G01*
X118952301Y-119116729D01*
X119085455Y-119205699D01*
X119198701Y-119318945D01*
X119287671Y-119452099D01*
X119348958Y-119600058D01*
X119380200Y-119757125D01*
X119380200Y-119917275D01*
X119348958Y-120074342D01*
X119287671Y-120222301D01*
X119198701Y-120355455D01*
X119085455Y-120468701D01*
X118952301Y-120557671D01*
X118804342Y-120618958D01*
X118647275Y-120650200D01*
X118487125Y-120650200D01*
X118330058Y-120618958D01*
X118182099Y-120557671D01*
X118048945Y-120468701D01*
X117935699Y-120355455D01*
X117846729Y-120222301D01*
X117785442Y-120074342D01*
X117754200Y-119917275D01*
X117754200Y-119757125D01*
X117785442Y-119600058D01*
X117846729Y-119452099D01*
X117935699Y-119318945D01*
X118048945Y-119205699D01*
X118182099Y-119116729D01*
X118330058Y-119055442D01*
X118487125Y-119024200D01*
X118647275Y-119024200D01*
X118804342Y-119055442D01*
X118804342Y-119055442D01*
G37*
G36*
X116264342Y-119055442D02*
G01*
X116412301Y-119116729D01*
X116545455Y-119205699D01*
X116658701Y-119318945D01*
X116747671Y-119452099D01*
X116808958Y-119600058D01*
X116840200Y-119757125D01*
X116840200Y-119917275D01*
X116808958Y-120074342D01*
X116747671Y-120222301D01*
X116658701Y-120355455D01*
X116545455Y-120468701D01*
X116412301Y-120557671D01*
X116264342Y-120618958D01*
X116107275Y-120650200D01*
X115947125Y-120650200D01*
X115790058Y-120618958D01*
X115642099Y-120557671D01*
X115508945Y-120468701D01*
X115395699Y-120355455D01*
X115306729Y-120222301D01*
X115245442Y-120074342D01*
X115214200Y-119917275D01*
X115214200Y-119757125D01*
X115245442Y-119600058D01*
X115306729Y-119452099D01*
X115395699Y-119318945D01*
X115508945Y-119205699D01*
X115642099Y-119116729D01*
X115790058Y-119055442D01*
X115947125Y-119024200D01*
X116107275Y-119024200D01*
X116264342Y-119055442D01*
X116264342Y-119055442D01*
G37*
G36*
X113724342Y-119055442D02*
G01*
X113872301Y-119116729D01*
X114005455Y-119205699D01*
X114118701Y-119318945D01*
X114207671Y-119452099D01*
X114268958Y-119600058D01*
X114300200Y-119757125D01*
X114300200Y-119917275D01*
X114268958Y-120074342D01*
X114207671Y-120222301D01*
X114118701Y-120355455D01*
X114005455Y-120468701D01*
X113872301Y-120557671D01*
X113724342Y-120618958D01*
X113567275Y-120650200D01*
X113407125Y-120650200D01*
X113250058Y-120618958D01*
X113102099Y-120557671D01*
X112968945Y-120468701D01*
X112855699Y-120355455D01*
X112766729Y-120222301D01*
X112705442Y-120074342D01*
X112674200Y-119917275D01*
X112674200Y-119757125D01*
X112705442Y-119600058D01*
X112766729Y-119452099D01*
X112855699Y-119318945D01*
X112968945Y-119205699D01*
X113102099Y-119116729D01*
X113250058Y-119055442D01*
X113407125Y-119024200D01*
X113567275Y-119024200D01*
X113724342Y-119055442D01*
X113724342Y-119055442D01*
G37*
G36*
X128964342Y-119055442D02*
G01*
X129112301Y-119116729D01*
X129245455Y-119205699D01*
X129358701Y-119318945D01*
X129447671Y-119452099D01*
X129508958Y-119600058D01*
X129540200Y-119757125D01*
X129540200Y-119917275D01*
X129508958Y-120074342D01*
X129447671Y-120222301D01*
X129358701Y-120355455D01*
X129245455Y-120468701D01*
X129112301Y-120557671D01*
X128964342Y-120618958D01*
X128807275Y-120650200D01*
X128647125Y-120650200D01*
X128490058Y-120618958D01*
X128342099Y-120557671D01*
X128208945Y-120468701D01*
X128095699Y-120355455D01*
X128006729Y-120222301D01*
X127945442Y-120074342D01*
X127914200Y-119917275D01*
X127914200Y-119757125D01*
X127945442Y-119600058D01*
X128006729Y-119452099D01*
X128095699Y-119318945D01*
X128208945Y-119205699D01*
X128342099Y-119116729D01*
X128490058Y-119055442D01*
X128647125Y-119024200D01*
X128807275Y-119024200D01*
X128964342Y-119055442D01*
X128964342Y-119055442D01*
G37*
G36*
X201950187Y-115021723D02*
G01*
X202121255Y-115092582D01*
X202121257Y-115092583D01*
X202198758Y-115144368D01*
X202275214Y-115195454D01*
X202406146Y-115326386D01*
X202509018Y-115480345D01*
X202579877Y-115651413D01*
X202616000Y-115833017D01*
X202616000Y-116018183D01*
X202579877Y-116199787D01*
X202509018Y-116370855D01*
X202509017Y-116370857D01*
X202406145Y-116524815D01*
X202275215Y-116655745D01*
X202121257Y-116758617D01*
X202121256Y-116758618D01*
X202121255Y-116758618D01*
X201950187Y-116829477D01*
X201768583Y-116865600D01*
X201583417Y-116865600D01*
X201401813Y-116829477D01*
X201230745Y-116758618D01*
X201230744Y-116758618D01*
X201230743Y-116758617D01*
X201076785Y-116655745D01*
X200945855Y-116524815D01*
X200842983Y-116370857D01*
X200842982Y-116370855D01*
X200772123Y-116199787D01*
X200736000Y-116018183D01*
X200736000Y-115833017D01*
X200772123Y-115651413D01*
X200842982Y-115480345D01*
X200945854Y-115326386D01*
X201076786Y-115195454D01*
X201153242Y-115144368D01*
X201230743Y-115092583D01*
X201230745Y-115092582D01*
X201401813Y-115021723D01*
X201583417Y-114985600D01*
X201768583Y-114985600D01*
X201950187Y-115021723D01*
X201950187Y-115021723D01*
G37*
G36*
X199410187Y-115021723D02*
G01*
X199581255Y-115092582D01*
X199581257Y-115092583D01*
X199658758Y-115144368D01*
X199735214Y-115195454D01*
X199866146Y-115326386D01*
X199969018Y-115480345D01*
X200039877Y-115651413D01*
X200076000Y-115833017D01*
X200076000Y-116018183D01*
X200039877Y-116199787D01*
X199969018Y-116370855D01*
X199969017Y-116370857D01*
X199866145Y-116524815D01*
X199735215Y-116655745D01*
X199581257Y-116758617D01*
X199581256Y-116758618D01*
X199581255Y-116758618D01*
X199410187Y-116829477D01*
X199228583Y-116865600D01*
X199043417Y-116865600D01*
X198861813Y-116829477D01*
X198690745Y-116758618D01*
X198690744Y-116758618D01*
X198690743Y-116758617D01*
X198536785Y-116655745D01*
X198405855Y-116524815D01*
X198302983Y-116370857D01*
X198302982Y-116370855D01*
X198232123Y-116199787D01*
X198196000Y-116018183D01*
X198196000Y-115833017D01*
X198232123Y-115651413D01*
X198302982Y-115480345D01*
X198405854Y-115326386D01*
X198536786Y-115195454D01*
X198613242Y-115144368D01*
X198690743Y-115092583D01*
X198690745Y-115092582D01*
X198861813Y-115021723D01*
X199043417Y-114985600D01*
X199228583Y-114985600D01*
X199410187Y-115021723D01*
X199410187Y-115021723D01*
G37*
G36*
X196870187Y-115021723D02*
G01*
X197041255Y-115092582D01*
X197041257Y-115092583D01*
X197118758Y-115144368D01*
X197195214Y-115195454D01*
X197326146Y-115326386D01*
X197429018Y-115480345D01*
X197499877Y-115651413D01*
X197536000Y-115833017D01*
X197536000Y-116018183D01*
X197499877Y-116199787D01*
X197429018Y-116370855D01*
X197429017Y-116370857D01*
X197326145Y-116524815D01*
X197195215Y-116655745D01*
X197041257Y-116758617D01*
X197041256Y-116758618D01*
X197041255Y-116758618D01*
X196870187Y-116829477D01*
X196688583Y-116865600D01*
X196503417Y-116865600D01*
X196321813Y-116829477D01*
X196150745Y-116758618D01*
X196150744Y-116758618D01*
X196150743Y-116758617D01*
X195996785Y-116655745D01*
X195865855Y-116524815D01*
X195762983Y-116370857D01*
X195762982Y-116370855D01*
X195692123Y-116199787D01*
X195656000Y-116018183D01*
X195656000Y-115833017D01*
X195692123Y-115651413D01*
X195762982Y-115480345D01*
X195865854Y-115326386D01*
X195996786Y-115195454D01*
X196073242Y-115144368D01*
X196150743Y-115092583D01*
X196150745Y-115092582D01*
X196321813Y-115021723D01*
X196503417Y-114985600D01*
X196688583Y-114985600D01*
X196870187Y-115021723D01*
X196870187Y-115021723D01*
G37*
G36*
X191864276Y-111284984D02*
G01*
X192081569Y-111374990D01*
X192081571Y-111374991D01*
X192094136Y-111383387D01*
X192277130Y-111505660D01*
X192443440Y-111671970D01*
X192574110Y-111867531D01*
X192664116Y-112084824D01*
X192710000Y-112315500D01*
X192710000Y-112550700D01*
X192664116Y-112781376D01*
X192574110Y-112998669D01*
X192574109Y-112998671D01*
X192443440Y-113194230D01*
X192277130Y-113360540D01*
X192081571Y-113491209D01*
X192081570Y-113491210D01*
X192081569Y-113491210D01*
X191864276Y-113581216D01*
X191633600Y-113627100D01*
X191398400Y-113627100D01*
X191167724Y-113581216D01*
X190950431Y-113491210D01*
X190950430Y-113491210D01*
X190950429Y-113491209D01*
X190754870Y-113360540D01*
X190588560Y-113194230D01*
X190457891Y-112998671D01*
X190457890Y-112998669D01*
X190367884Y-112781376D01*
X190322000Y-112550700D01*
X190322000Y-112315500D01*
X190367884Y-112084824D01*
X190457890Y-111867531D01*
X190588560Y-111671970D01*
X190754870Y-111505660D01*
X190937864Y-111383387D01*
X190950429Y-111374991D01*
X190950431Y-111374990D01*
X191167724Y-111284984D01*
X191398400Y-111239100D01*
X191633600Y-111239100D01*
X191864276Y-111284984D01*
X191864276Y-111284984D01*
G37*
G36*
X207104276Y-111284984D02*
G01*
X207321569Y-111374990D01*
X207321571Y-111374991D01*
X207334136Y-111383387D01*
X207517130Y-111505660D01*
X207683440Y-111671970D01*
X207814110Y-111867531D01*
X207904116Y-112084824D01*
X207950000Y-112315500D01*
X207950000Y-112550700D01*
X207904116Y-112781376D01*
X207814110Y-112998669D01*
X207814109Y-112998671D01*
X207683440Y-113194230D01*
X207517130Y-113360540D01*
X207321571Y-113491209D01*
X207321570Y-113491210D01*
X207321569Y-113491210D01*
X207104276Y-113581216D01*
X206873600Y-113627100D01*
X206638400Y-113627100D01*
X206407724Y-113581216D01*
X206190431Y-113491210D01*
X206190430Y-113491210D01*
X206190429Y-113491209D01*
X205994870Y-113360540D01*
X205828560Y-113194230D01*
X205697891Y-112998671D01*
X205697890Y-112998669D01*
X205607884Y-112781376D01*
X205562000Y-112550700D01*
X205562000Y-112315500D01*
X205607884Y-112084824D01*
X205697890Y-111867531D01*
X205828560Y-111671970D01*
X205994870Y-111505660D01*
X206177864Y-111383387D01*
X206190429Y-111374991D01*
X206190431Y-111374990D01*
X206407724Y-111284984D01*
X206638400Y-111239100D01*
X206873600Y-111239100D01*
X207104276Y-111284984D01*
X207104276Y-111284984D01*
G37*
G36*
X158966100Y-111645900D02*
G01*
X157517900Y-111645900D01*
X157517900Y-110197700D01*
X158966100Y-110197700D01*
X158966100Y-111645900D01*
X158966100Y-111645900D01*
G37*
G36*
X163533212Y-110225526D02*
G01*
X163664990Y-110280111D01*
X163783587Y-110359355D01*
X163884445Y-110460213D01*
X163963689Y-110578810D01*
X164018274Y-110710588D01*
X164046100Y-110850482D01*
X164046100Y-110993118D01*
X164018274Y-111133012D01*
X163963689Y-111264790D01*
X163884445Y-111383387D01*
X163783587Y-111484245D01*
X163664990Y-111563489D01*
X163533212Y-111618074D01*
X163393318Y-111645900D01*
X163250682Y-111645900D01*
X163110788Y-111618074D01*
X162979010Y-111563489D01*
X162860413Y-111484245D01*
X162759555Y-111383387D01*
X162680311Y-111264790D01*
X162625726Y-111133012D01*
X162597900Y-110993118D01*
X162597900Y-110850482D01*
X162625726Y-110710588D01*
X162680311Y-110578810D01*
X162759555Y-110460213D01*
X162860413Y-110359355D01*
X162979010Y-110280111D01*
X163110788Y-110225526D01*
X163250682Y-110197700D01*
X163393318Y-110197700D01*
X163533212Y-110225526D01*
X163533212Y-110225526D01*
G37*
G36*
X178420915Y-108935334D02*
G01*
X178529491Y-108968271D01*
X178529494Y-108968272D01*
X178565600Y-108987571D01*
X178629556Y-109021756D01*
X178717264Y-109093736D01*
X178789244Y-109181443D01*
X178823429Y-109245399D01*
X178842728Y-109281505D01*
X178842729Y-109281508D01*
X178875666Y-109390084D01*
X178884000Y-109474702D01*
X178884000Y-109981297D01*
X178875666Y-110065916D01*
X178843252Y-110172767D01*
X178842728Y-110174495D01*
X178832761Y-110193141D01*
X178789244Y-110274557D01*
X178717264Y-110362264D01*
X178629557Y-110434244D01*
X178580966Y-110460216D01*
X178529495Y-110487728D01*
X178529492Y-110487729D01*
X178420916Y-110520666D01*
X178308000Y-110531787D01*
X178195085Y-110520666D01*
X178086509Y-110487729D01*
X178086506Y-110487728D01*
X178035035Y-110460216D01*
X177986444Y-110434244D01*
X177898737Y-110362264D01*
X177826757Y-110274557D01*
X177783239Y-110193141D01*
X177769625Y-110172766D01*
X177752298Y-110155439D01*
X177731924Y-110141826D01*
X177709285Y-110132448D01*
X177685252Y-110127668D01*
X177660748Y-110127668D01*
X177636715Y-110132448D01*
X177614076Y-110141826D01*
X177593701Y-110155440D01*
X177576374Y-110172767D01*
X177562761Y-110193141D01*
X177519244Y-110274557D01*
X177447264Y-110362264D01*
X177359557Y-110434244D01*
X177310966Y-110460216D01*
X177259495Y-110487728D01*
X177259492Y-110487729D01*
X177150916Y-110520666D01*
X177038000Y-110531787D01*
X176925085Y-110520666D01*
X176816509Y-110487729D01*
X176816506Y-110487728D01*
X176765035Y-110460216D01*
X176716444Y-110434244D01*
X176628737Y-110362264D01*
X176565622Y-110285359D01*
X176548297Y-110268034D01*
X176527923Y-110254420D01*
X176505284Y-110245043D01*
X176481250Y-110240263D01*
X176456746Y-110240263D01*
X176432713Y-110245044D01*
X176410074Y-110254421D01*
X176389700Y-110268035D01*
X176372373Y-110285362D01*
X176358759Y-110305736D01*
X176349382Y-110328375D01*
X176344000Y-110364660D01*
X176344000Y-110529000D01*
X175192000Y-110529000D01*
X175192000Y-108927000D01*
X176344000Y-108927000D01*
X176344000Y-109091341D01*
X176346402Y-109115727D01*
X176353515Y-109139176D01*
X176365066Y-109160787D01*
X176380611Y-109179729D01*
X176399553Y-109195274D01*
X176421164Y-109206825D01*
X176444613Y-109213938D01*
X176468999Y-109216340D01*
X176493385Y-109213938D01*
X176516834Y-109206825D01*
X176538445Y-109195274D01*
X176557387Y-109179729D01*
X176565608Y-109170657D01*
X176628736Y-109093736D01*
X176716443Y-109021756D01*
X176780399Y-108987571D01*
X176816505Y-108968272D01*
X176816508Y-108968271D01*
X176925084Y-108935334D01*
X177038000Y-108924213D01*
X177150915Y-108935334D01*
X177259491Y-108968271D01*
X177259494Y-108968272D01*
X177295600Y-108987571D01*
X177359556Y-109021756D01*
X177447264Y-109093736D01*
X177519244Y-109181443D01*
X177553536Y-109245600D01*
X177562761Y-109262859D01*
X177576375Y-109283234D01*
X177593702Y-109300561D01*
X177614076Y-109314174D01*
X177636715Y-109323552D01*
X177660748Y-109328332D01*
X177685252Y-109328332D01*
X177709285Y-109323552D01*
X177731924Y-109314174D01*
X177752299Y-109300560D01*
X177769626Y-109283233D01*
X177783239Y-109262860D01*
X177826756Y-109181444D01*
X177898736Y-109093736D01*
X177986443Y-109021756D01*
X178050399Y-108987571D01*
X178086505Y-108968272D01*
X178086508Y-108968271D01*
X178195084Y-108935334D01*
X178308000Y-108924213D01*
X178420915Y-108935334D01*
X178420915Y-108935334D01*
G37*
G36*
X189250187Y-107401723D02*
G01*
X189421255Y-107472582D01*
X189421257Y-107472583D01*
X189575215Y-107575455D01*
X189706145Y-107706385D01*
X189781630Y-107819355D01*
X189809018Y-107860345D01*
X189879877Y-108031413D01*
X189916000Y-108213017D01*
X189916000Y-108398183D01*
X189879877Y-108579787D01*
X189819814Y-108724791D01*
X189809017Y-108750857D01*
X189706145Y-108904815D01*
X189575215Y-109035745D01*
X189421257Y-109138617D01*
X189421256Y-109138618D01*
X189421255Y-109138618D01*
X189250187Y-109209477D01*
X189068583Y-109245600D01*
X188883417Y-109245600D01*
X188701813Y-109209477D01*
X188530745Y-109138618D01*
X188530744Y-109138618D01*
X188530743Y-109138617D01*
X188376785Y-109035745D01*
X188245855Y-108904815D01*
X188142983Y-108750857D01*
X188132186Y-108724791D01*
X188072123Y-108579787D01*
X188036000Y-108398183D01*
X188036000Y-108213017D01*
X188072123Y-108031413D01*
X188142982Y-107860345D01*
X188170371Y-107819355D01*
X188245855Y-107706385D01*
X188376785Y-107575455D01*
X188530743Y-107472583D01*
X188530745Y-107472582D01*
X188701813Y-107401723D01*
X188883417Y-107365600D01*
X189068583Y-107365600D01*
X189250187Y-107401723D01*
X189250187Y-107401723D01*
G37*
G36*
X160993212Y-107685526D02*
G01*
X161124990Y-107740111D01*
X161243587Y-107819355D01*
X161344445Y-107920213D01*
X161423689Y-108038810D01*
X161478274Y-108170588D01*
X161506100Y-108310482D01*
X161506100Y-108453118D01*
X161478274Y-108593012D01*
X161423689Y-108724790D01*
X161344445Y-108843387D01*
X161243587Y-108944245D01*
X161124990Y-109023489D01*
X160993212Y-109078074D01*
X160853318Y-109105900D01*
X160710682Y-109105900D01*
X160570788Y-109078074D01*
X160439010Y-109023489D01*
X160320413Y-108944245D01*
X160219555Y-108843387D01*
X160140311Y-108724790D01*
X160085726Y-108593012D01*
X160057900Y-108453118D01*
X160057900Y-108310482D01*
X160085726Y-108170588D01*
X160140311Y-108038810D01*
X160219555Y-107920213D01*
X160320413Y-107819355D01*
X160439010Y-107740111D01*
X160570788Y-107685526D01*
X160710682Y-107657700D01*
X160853318Y-107657700D01*
X160993212Y-107685526D01*
X160993212Y-107685526D01*
G37*
G36*
X189250187Y-104861723D02*
G01*
X189421255Y-104932582D01*
X189421257Y-104932583D01*
X189498758Y-104984368D01*
X189575214Y-105035454D01*
X189706146Y-105166386D01*
X189809018Y-105320345D01*
X189879877Y-105491413D01*
X189916000Y-105673017D01*
X189916000Y-105858183D01*
X189879877Y-106039787D01*
X189809018Y-106210855D01*
X189809017Y-106210857D01*
X189706145Y-106364815D01*
X189575215Y-106495745D01*
X189421257Y-106598617D01*
X189421256Y-106598618D01*
X189421255Y-106598618D01*
X189250187Y-106669477D01*
X189068583Y-106705600D01*
X188883417Y-106705600D01*
X188701813Y-106669477D01*
X188530745Y-106598618D01*
X188530744Y-106598618D01*
X188530743Y-106598617D01*
X188376785Y-106495745D01*
X188245855Y-106364815D01*
X188142983Y-106210857D01*
X188142982Y-106210855D01*
X188072123Y-106039787D01*
X188036000Y-105858183D01*
X188036000Y-105673017D01*
X188072123Y-105491413D01*
X188142982Y-105320345D01*
X188245854Y-105166386D01*
X188376786Y-105035454D01*
X188453242Y-104984368D01*
X188530743Y-104932583D01*
X188530745Y-104932582D01*
X188701813Y-104861723D01*
X188883417Y-104825600D01*
X189068583Y-104825600D01*
X189250187Y-104861723D01*
X189250187Y-104861723D01*
G37*
G36*
X189250187Y-102321723D02*
G01*
X189421255Y-102392582D01*
X189421257Y-102392583D01*
X189498758Y-102444368D01*
X189575214Y-102495454D01*
X189706146Y-102626386D01*
X189809018Y-102780345D01*
X189879877Y-102951413D01*
X189916000Y-103133017D01*
X189916000Y-103318183D01*
X189879877Y-103499787D01*
X189809018Y-103670855D01*
X189809017Y-103670857D01*
X189706145Y-103824815D01*
X189575215Y-103955745D01*
X189421257Y-104058617D01*
X189421256Y-104058618D01*
X189421255Y-104058618D01*
X189250187Y-104129477D01*
X189068583Y-104165600D01*
X188883417Y-104165600D01*
X188701813Y-104129477D01*
X188530745Y-104058618D01*
X188530744Y-104058618D01*
X188530743Y-104058617D01*
X188376785Y-103955745D01*
X188245855Y-103824815D01*
X188142983Y-103670857D01*
X188142982Y-103670855D01*
X188072123Y-103499787D01*
X188036000Y-103318183D01*
X188036000Y-103133017D01*
X188072123Y-102951413D01*
X188142982Y-102780345D01*
X188245854Y-102626386D01*
X188376786Y-102495454D01*
X188453242Y-102444368D01*
X188530743Y-102392583D01*
X188530745Y-102392582D01*
X188701813Y-102321723D01*
X188883417Y-102285600D01*
X189068583Y-102285600D01*
X189250187Y-102321723D01*
X189250187Y-102321723D01*
G37*
G36*
X207104276Y-97949984D02*
G01*
X207321569Y-98039990D01*
X207321571Y-98039991D01*
X207517130Y-98170660D01*
X207683440Y-98336970D01*
X207752201Y-98439877D01*
X207814110Y-98532531D01*
X207904116Y-98749824D01*
X207950000Y-98980500D01*
X207950000Y-99215700D01*
X207904116Y-99446376D01*
X207814110Y-99663669D01*
X207814109Y-99663671D01*
X207683440Y-99859230D01*
X207517130Y-100025540D01*
X207321571Y-100156209D01*
X207321570Y-100156210D01*
X207321569Y-100156210D01*
X207104276Y-100246216D01*
X206873600Y-100292100D01*
X206638400Y-100292100D01*
X206407724Y-100246216D01*
X206190431Y-100156210D01*
X206190430Y-100156210D01*
X206190429Y-100156209D01*
X205994870Y-100025540D01*
X205828560Y-99859230D01*
X205697891Y-99663671D01*
X205697890Y-99663669D01*
X205607884Y-99446376D01*
X205562000Y-99215700D01*
X205562000Y-98980500D01*
X205607884Y-98749824D01*
X205697890Y-98532531D01*
X205759800Y-98439877D01*
X205828560Y-98336970D01*
X205994870Y-98170660D01*
X206190429Y-98039991D01*
X206190431Y-98039990D01*
X206407724Y-97949984D01*
X206638400Y-97904100D01*
X206873600Y-97904100D01*
X207104276Y-97949984D01*
X207104276Y-97949984D01*
G37*
G36*
X191864276Y-97949984D02*
G01*
X192081569Y-98039990D01*
X192081571Y-98039991D01*
X192277130Y-98170660D01*
X192443440Y-98336970D01*
X192512201Y-98439877D01*
X192574110Y-98532531D01*
X192664116Y-98749824D01*
X192710000Y-98980500D01*
X192710000Y-99215700D01*
X192664116Y-99446376D01*
X192574110Y-99663669D01*
X192574109Y-99663671D01*
X192443440Y-99859230D01*
X192277130Y-100025540D01*
X192081571Y-100156209D01*
X192081570Y-100156210D01*
X192081569Y-100156210D01*
X191864276Y-100246216D01*
X191633600Y-100292100D01*
X191398400Y-100292100D01*
X191167724Y-100246216D01*
X190950431Y-100156210D01*
X190950430Y-100156210D01*
X190950429Y-100156209D01*
X190754870Y-100025540D01*
X190588560Y-99859230D01*
X190457891Y-99663671D01*
X190457890Y-99663669D01*
X190367884Y-99446376D01*
X190322000Y-99215700D01*
X190322000Y-98980500D01*
X190367884Y-98749824D01*
X190457890Y-98532531D01*
X190519800Y-98439877D01*
X190588560Y-98336970D01*
X190754870Y-98170660D01*
X190950429Y-98039991D01*
X190950431Y-98039990D01*
X191167724Y-97949984D01*
X191398400Y-97904100D01*
X191633600Y-97904100D01*
X191864276Y-97949984D01*
X191864276Y-97949984D01*
G37*
G36*
X196235187Y-97241723D02*
G01*
X196406255Y-97312582D01*
X196406257Y-97312583D01*
X196480663Y-97362300D01*
X196560214Y-97415454D01*
X196691146Y-97546386D01*
X196742232Y-97622842D01*
X196792232Y-97697671D01*
X196794018Y-97700345D01*
X196864877Y-97871413D01*
X196901000Y-98053017D01*
X196901000Y-98238183D01*
X196864877Y-98419787D01*
X196794018Y-98590855D01*
X196794017Y-98590857D01*
X196691145Y-98744815D01*
X196560215Y-98875745D01*
X196406257Y-98978617D01*
X196406256Y-98978618D01*
X196406255Y-98978618D01*
X196235187Y-99049477D01*
X196053583Y-99085600D01*
X195868417Y-99085600D01*
X195686813Y-99049477D01*
X195515745Y-98978618D01*
X195515744Y-98978618D01*
X195515743Y-98978617D01*
X195361785Y-98875745D01*
X195230855Y-98744815D01*
X195127983Y-98590857D01*
X195127982Y-98590855D01*
X195057123Y-98419787D01*
X195021000Y-98238183D01*
X195021000Y-98053017D01*
X195057123Y-97871413D01*
X195127982Y-97700345D01*
X195129769Y-97697671D01*
X195179768Y-97622842D01*
X195230854Y-97546386D01*
X195361786Y-97415454D01*
X195441337Y-97362300D01*
X195515743Y-97312583D01*
X195515745Y-97312582D01*
X195686813Y-97241723D01*
X195868417Y-97205600D01*
X196053583Y-97205600D01*
X196235187Y-97241723D01*
X196235187Y-97241723D01*
G37*
G36*
X202585187Y-97241723D02*
G01*
X202756255Y-97312582D01*
X202756257Y-97312583D01*
X202830663Y-97362300D01*
X202910214Y-97415454D01*
X203041146Y-97546386D01*
X203092232Y-97622842D01*
X203142232Y-97697671D01*
X203144018Y-97700345D01*
X203214877Y-97871413D01*
X203251000Y-98053017D01*
X203251000Y-98238183D01*
X203214877Y-98419787D01*
X203144018Y-98590855D01*
X203144017Y-98590857D01*
X203041145Y-98744815D01*
X202910215Y-98875745D01*
X202756257Y-98978617D01*
X202756256Y-98978618D01*
X202756255Y-98978618D01*
X202585187Y-99049477D01*
X202403583Y-99085600D01*
X202218417Y-99085600D01*
X202036813Y-99049477D01*
X201865745Y-98978618D01*
X201865744Y-98978618D01*
X201865743Y-98978617D01*
X201711785Y-98875745D01*
X201580855Y-98744815D01*
X201477983Y-98590857D01*
X201477982Y-98590855D01*
X201407123Y-98419787D01*
X201371000Y-98238183D01*
X201371000Y-98053017D01*
X201407123Y-97871413D01*
X201477982Y-97700345D01*
X201479769Y-97697671D01*
X201529768Y-97622842D01*
X201580854Y-97546386D01*
X201711786Y-97415454D01*
X201791337Y-97362300D01*
X201865743Y-97312583D01*
X201865745Y-97312582D01*
X202036813Y-97241723D01*
X202218417Y-97205600D01*
X202403583Y-97205600D01*
X202585187Y-97241723D01*
X202585187Y-97241723D01*
G37*
G36*
X90444187Y-96632123D02*
G01*
X90615255Y-96702982D01*
X90615257Y-96702983D01*
X90769215Y-96805855D01*
X90900145Y-96936785D01*
X90980654Y-97057274D01*
X91003018Y-97090745D01*
X91073877Y-97261813D01*
X91110000Y-97443417D01*
X91110000Y-97628583D01*
X91073877Y-97810187D01*
X91003018Y-97981255D01*
X91003017Y-97981257D01*
X90900145Y-98135215D01*
X90769215Y-98266145D01*
X90615257Y-98369017D01*
X90615256Y-98369018D01*
X90615255Y-98369018D01*
X90444187Y-98439877D01*
X90262583Y-98476000D01*
X90077417Y-98476000D01*
X89895813Y-98439877D01*
X89724745Y-98369018D01*
X89724744Y-98369018D01*
X89724743Y-98369017D01*
X89570785Y-98266145D01*
X89439855Y-98135215D01*
X89336983Y-97981257D01*
X89336982Y-97981255D01*
X89266123Y-97810187D01*
X89230000Y-97628583D01*
X89230000Y-97443417D01*
X89266123Y-97261813D01*
X89336982Y-97090745D01*
X89359347Y-97057274D01*
X89439855Y-96936785D01*
X89570785Y-96805855D01*
X89724743Y-96702983D01*
X89724745Y-96702982D01*
X89895813Y-96632123D01*
X90077417Y-96596000D01*
X90262583Y-96596000D01*
X90444187Y-96632123D01*
X90444187Y-96632123D01*
G37*
G36*
X92984187Y-96632123D02*
G01*
X93155255Y-96702982D01*
X93155257Y-96702983D01*
X93309215Y-96805855D01*
X93440145Y-96936785D01*
X93520654Y-97057274D01*
X93543018Y-97090745D01*
X93613877Y-97261813D01*
X93650000Y-97443417D01*
X93650000Y-97628583D01*
X93613877Y-97810187D01*
X93543018Y-97981255D01*
X93543017Y-97981257D01*
X93440145Y-98135215D01*
X93309215Y-98266145D01*
X93155257Y-98369017D01*
X93155256Y-98369018D01*
X93155255Y-98369018D01*
X92984187Y-98439877D01*
X92802583Y-98476000D01*
X92617417Y-98476000D01*
X92435813Y-98439877D01*
X92264745Y-98369018D01*
X92264744Y-98369018D01*
X92264743Y-98369017D01*
X92110785Y-98266145D01*
X91979855Y-98135215D01*
X91876983Y-97981257D01*
X91876982Y-97981255D01*
X91806123Y-97810187D01*
X91770000Y-97628583D01*
X91770000Y-97443417D01*
X91806123Y-97261813D01*
X91876982Y-97090745D01*
X91899347Y-97057274D01*
X91979855Y-96936785D01*
X92110785Y-96805855D01*
X92264743Y-96702983D01*
X92264745Y-96702982D01*
X92435813Y-96632123D01*
X92617417Y-96596000D01*
X92802583Y-96596000D01*
X92984187Y-96632123D01*
X92984187Y-96632123D01*
G37*
G36*
X87904187Y-96632123D02*
G01*
X88075255Y-96702982D01*
X88075257Y-96702983D01*
X88229215Y-96805855D01*
X88360145Y-96936785D01*
X88440654Y-97057274D01*
X88463018Y-97090745D01*
X88533877Y-97261813D01*
X88570000Y-97443417D01*
X88570000Y-97628583D01*
X88533877Y-97810187D01*
X88463018Y-97981255D01*
X88463017Y-97981257D01*
X88360145Y-98135215D01*
X88229215Y-98266145D01*
X88075257Y-98369017D01*
X88075256Y-98369018D01*
X88075255Y-98369018D01*
X87904187Y-98439877D01*
X87722583Y-98476000D01*
X87537417Y-98476000D01*
X87355813Y-98439877D01*
X87184745Y-98369018D01*
X87184744Y-98369018D01*
X87184743Y-98369017D01*
X87030785Y-98266145D01*
X86899855Y-98135215D01*
X86796983Y-97981257D01*
X86796982Y-97981255D01*
X86726123Y-97810187D01*
X86690000Y-97628583D01*
X86690000Y-97443417D01*
X86726123Y-97261813D01*
X86796982Y-97090745D01*
X86819347Y-97057274D01*
X86899855Y-96936785D01*
X87030785Y-96805855D01*
X87184743Y-96702983D01*
X87184745Y-96702982D01*
X87355813Y-96632123D01*
X87537417Y-96596000D01*
X87722583Y-96596000D01*
X87904187Y-96632123D01*
X87904187Y-96632123D01*
G37*
G36*
X128964342Y-96195442D02*
G01*
X129112301Y-96256729D01*
X129245455Y-96345699D01*
X129358701Y-96458945D01*
X129447671Y-96592099D01*
X129508958Y-96740058D01*
X129540200Y-96897125D01*
X129540200Y-97057275D01*
X129508958Y-97214342D01*
X129447671Y-97362301D01*
X129358701Y-97495455D01*
X129245455Y-97608701D01*
X129112301Y-97697671D01*
X128964342Y-97758958D01*
X128807275Y-97790200D01*
X128647125Y-97790200D01*
X128490058Y-97758958D01*
X128342099Y-97697671D01*
X128208945Y-97608701D01*
X128095699Y-97495455D01*
X128006729Y-97362301D01*
X127945442Y-97214342D01*
X127914200Y-97057275D01*
X127914200Y-96897125D01*
X127945442Y-96740058D01*
X128006729Y-96592099D01*
X128095699Y-96458945D01*
X128208945Y-96345699D01*
X128342099Y-96256729D01*
X128490058Y-96195442D01*
X128647125Y-96164200D01*
X128807275Y-96164200D01*
X128964342Y-96195442D01*
X128964342Y-96195442D01*
G37*
G36*
X111184342Y-96195442D02*
G01*
X111332301Y-96256729D01*
X111465455Y-96345699D01*
X111578701Y-96458945D01*
X111667671Y-96592099D01*
X111728958Y-96740058D01*
X111760200Y-96897125D01*
X111760200Y-97057275D01*
X111728958Y-97214342D01*
X111667671Y-97362301D01*
X111578701Y-97495455D01*
X111465455Y-97608701D01*
X111332301Y-97697671D01*
X111184342Y-97758958D01*
X111027275Y-97790200D01*
X110867125Y-97790200D01*
X110710058Y-97758958D01*
X110562099Y-97697671D01*
X110428945Y-97608701D01*
X110315699Y-97495455D01*
X110226729Y-97362301D01*
X110165442Y-97214342D01*
X110134200Y-97057275D01*
X110134200Y-96897125D01*
X110165442Y-96740058D01*
X110226729Y-96592099D01*
X110315699Y-96458945D01*
X110428945Y-96345699D01*
X110562099Y-96256729D01*
X110710058Y-96195442D01*
X110867125Y-96164200D01*
X111027275Y-96164200D01*
X111184342Y-96195442D01*
X111184342Y-96195442D01*
G37*
G36*
X113724342Y-96195442D02*
G01*
X113872301Y-96256729D01*
X114005455Y-96345699D01*
X114118701Y-96458945D01*
X114207671Y-96592099D01*
X114268958Y-96740058D01*
X114300200Y-96897125D01*
X114300200Y-97057275D01*
X114268958Y-97214342D01*
X114207671Y-97362301D01*
X114118701Y-97495455D01*
X114005455Y-97608701D01*
X113872301Y-97697671D01*
X113724342Y-97758958D01*
X113567275Y-97790200D01*
X113407125Y-97790200D01*
X113250058Y-97758958D01*
X113102099Y-97697671D01*
X112968945Y-97608701D01*
X112855699Y-97495455D01*
X112766729Y-97362301D01*
X112705442Y-97214342D01*
X112674200Y-97057275D01*
X112674200Y-96897125D01*
X112705442Y-96740058D01*
X112766729Y-96592099D01*
X112855699Y-96458945D01*
X112968945Y-96345699D01*
X113102099Y-96256729D01*
X113250058Y-96195442D01*
X113407125Y-96164200D01*
X113567275Y-96164200D01*
X113724342Y-96195442D01*
X113724342Y-96195442D01*
G37*
G36*
X116264342Y-96195442D02*
G01*
X116412301Y-96256729D01*
X116545455Y-96345699D01*
X116658701Y-96458945D01*
X116747671Y-96592099D01*
X116808958Y-96740058D01*
X116840200Y-96897125D01*
X116840200Y-97057275D01*
X116808958Y-97214342D01*
X116747671Y-97362301D01*
X116658701Y-97495455D01*
X116545455Y-97608701D01*
X116412301Y-97697671D01*
X116264342Y-97758958D01*
X116107275Y-97790200D01*
X115947125Y-97790200D01*
X115790058Y-97758958D01*
X115642099Y-97697671D01*
X115508945Y-97608701D01*
X115395699Y-97495455D01*
X115306729Y-97362301D01*
X115245442Y-97214342D01*
X115214200Y-97057275D01*
X115214200Y-96897125D01*
X115245442Y-96740058D01*
X115306729Y-96592099D01*
X115395699Y-96458945D01*
X115508945Y-96345699D01*
X115642099Y-96256729D01*
X115790058Y-96195442D01*
X115947125Y-96164200D01*
X116107275Y-96164200D01*
X116264342Y-96195442D01*
X116264342Y-96195442D01*
G37*
G36*
X118804342Y-96195442D02*
G01*
X118952301Y-96256729D01*
X119085455Y-96345699D01*
X119198701Y-96458945D01*
X119287671Y-96592099D01*
X119348958Y-96740058D01*
X119380200Y-96897125D01*
X119380200Y-97057275D01*
X119348958Y-97214342D01*
X119287671Y-97362301D01*
X119198701Y-97495455D01*
X119085455Y-97608701D01*
X118952301Y-97697671D01*
X118804342Y-97758958D01*
X118647275Y-97790200D01*
X118487125Y-97790200D01*
X118330058Y-97758958D01*
X118182099Y-97697671D01*
X118048945Y-97608701D01*
X117935699Y-97495455D01*
X117846729Y-97362301D01*
X117785442Y-97214342D01*
X117754200Y-97057275D01*
X117754200Y-96897125D01*
X117785442Y-96740058D01*
X117846729Y-96592099D01*
X117935699Y-96458945D01*
X118048945Y-96345699D01*
X118182099Y-96256729D01*
X118330058Y-96195442D01*
X118487125Y-96164200D01*
X118647275Y-96164200D01*
X118804342Y-96195442D01*
X118804342Y-96195442D01*
G37*
G36*
X121344342Y-96195442D02*
G01*
X121492301Y-96256729D01*
X121625455Y-96345699D01*
X121738701Y-96458945D01*
X121827671Y-96592099D01*
X121888958Y-96740058D01*
X121920200Y-96897125D01*
X121920200Y-97057275D01*
X121888958Y-97214342D01*
X121827671Y-97362301D01*
X121738701Y-97495455D01*
X121625455Y-97608701D01*
X121492301Y-97697671D01*
X121344342Y-97758958D01*
X121187275Y-97790200D01*
X121027125Y-97790200D01*
X120870058Y-97758958D01*
X120722099Y-97697671D01*
X120588945Y-97608701D01*
X120475699Y-97495455D01*
X120386729Y-97362301D01*
X120325442Y-97214342D01*
X120294200Y-97057275D01*
X120294200Y-96897125D01*
X120325442Y-96740058D01*
X120386729Y-96592099D01*
X120475699Y-96458945D01*
X120588945Y-96345699D01*
X120722099Y-96256729D01*
X120870058Y-96195442D01*
X121027125Y-96164200D01*
X121187275Y-96164200D01*
X121344342Y-96195442D01*
X121344342Y-96195442D01*
G37*
G36*
X126424342Y-96195442D02*
G01*
X126572301Y-96256729D01*
X126705455Y-96345699D01*
X126818701Y-96458945D01*
X126907671Y-96592099D01*
X126968958Y-96740058D01*
X127000200Y-96897125D01*
X127000200Y-97057275D01*
X126968958Y-97214342D01*
X126907671Y-97362301D01*
X126818701Y-97495455D01*
X126705455Y-97608701D01*
X126572301Y-97697671D01*
X126424342Y-97758958D01*
X126267275Y-97790200D01*
X126107125Y-97790200D01*
X125950058Y-97758958D01*
X125802099Y-97697671D01*
X125668945Y-97608701D01*
X125555699Y-97495455D01*
X125466729Y-97362301D01*
X125405442Y-97214342D01*
X125374200Y-97057275D01*
X125374200Y-96897125D01*
X125405442Y-96740058D01*
X125466729Y-96592099D01*
X125555699Y-96458945D01*
X125668945Y-96345699D01*
X125802099Y-96256729D01*
X125950058Y-96195442D01*
X126107125Y-96164200D01*
X126267275Y-96164200D01*
X126424342Y-96195442D01*
X126424342Y-96195442D01*
G37*
G36*
X131504342Y-96195442D02*
G01*
X131652301Y-96256729D01*
X131785455Y-96345699D01*
X131898701Y-96458945D01*
X131987671Y-96592099D01*
X132048958Y-96740058D01*
X132080200Y-96897125D01*
X132080200Y-97057275D01*
X132048958Y-97214342D01*
X131987671Y-97362301D01*
X131898701Y-97495455D01*
X131785455Y-97608701D01*
X131652301Y-97697671D01*
X131504342Y-97758958D01*
X131347275Y-97790200D01*
X131187125Y-97790200D01*
X131030058Y-97758958D01*
X130882099Y-97697671D01*
X130748945Y-97608701D01*
X130635699Y-97495455D01*
X130546729Y-97362301D01*
X130485442Y-97214342D01*
X130454200Y-97057275D01*
X130454200Y-96897125D01*
X130485442Y-96740058D01*
X130546729Y-96592099D01*
X130635699Y-96458945D01*
X130748945Y-96345699D01*
X130882099Y-96256729D01*
X131030058Y-96195442D01*
X131187125Y-96164200D01*
X131347275Y-96164200D01*
X131504342Y-96195442D01*
X131504342Y-96195442D01*
G37*
G36*
X123884342Y-96195442D02*
G01*
X124032301Y-96256729D01*
X124165455Y-96345699D01*
X124278701Y-96458945D01*
X124367671Y-96592099D01*
X124428958Y-96740058D01*
X124460200Y-96897125D01*
X124460200Y-97057275D01*
X124428958Y-97214342D01*
X124367671Y-97362301D01*
X124278701Y-97495455D01*
X124165455Y-97608701D01*
X124032301Y-97697671D01*
X123884342Y-97758958D01*
X123727275Y-97790200D01*
X123567125Y-97790200D01*
X123410058Y-97758958D01*
X123262099Y-97697671D01*
X123128945Y-97608701D01*
X123015699Y-97495455D01*
X122926729Y-97362301D01*
X122865442Y-97214342D01*
X122834200Y-97057275D01*
X122834200Y-96897125D01*
X122865442Y-96740058D01*
X122926729Y-96592099D01*
X123015699Y-96458945D01*
X123128945Y-96345699D01*
X123262099Y-96256729D01*
X123410058Y-96195442D01*
X123567125Y-96164200D01*
X123727275Y-96164200D01*
X123884342Y-96195442D01*
X123884342Y-96195442D01*
G37*
G36*
X144204342Y-96195442D02*
G01*
X144352301Y-96256729D01*
X144485455Y-96345699D01*
X144598701Y-96458945D01*
X144687671Y-96592099D01*
X144748958Y-96740058D01*
X144780200Y-96897125D01*
X144780200Y-97057275D01*
X144748958Y-97214342D01*
X144687671Y-97362301D01*
X144598701Y-97495455D01*
X144485455Y-97608701D01*
X144352301Y-97697671D01*
X144204342Y-97758958D01*
X144047275Y-97790200D01*
X143887125Y-97790200D01*
X143730058Y-97758958D01*
X143582099Y-97697671D01*
X143448945Y-97608701D01*
X143335699Y-97495455D01*
X143246729Y-97362301D01*
X143185442Y-97214342D01*
X143154200Y-97057275D01*
X143154200Y-96897125D01*
X143185442Y-96740058D01*
X143246729Y-96592099D01*
X143335699Y-96458945D01*
X143448945Y-96345699D01*
X143582099Y-96256729D01*
X143730058Y-96195442D01*
X143887125Y-96164200D01*
X144047275Y-96164200D01*
X144204342Y-96195442D01*
X144204342Y-96195442D01*
G37*
G36*
X141664342Y-96195442D02*
G01*
X141812301Y-96256729D01*
X141945455Y-96345699D01*
X142058701Y-96458945D01*
X142147671Y-96592099D01*
X142208958Y-96740058D01*
X142240200Y-96897125D01*
X142240200Y-97057275D01*
X142208958Y-97214342D01*
X142147671Y-97362301D01*
X142058701Y-97495455D01*
X141945455Y-97608701D01*
X141812301Y-97697671D01*
X141664342Y-97758958D01*
X141507275Y-97790200D01*
X141347125Y-97790200D01*
X141190058Y-97758958D01*
X141042099Y-97697671D01*
X140908945Y-97608701D01*
X140795699Y-97495455D01*
X140706729Y-97362301D01*
X140645442Y-97214342D01*
X140614200Y-97057275D01*
X140614200Y-96897125D01*
X140645442Y-96740058D01*
X140706729Y-96592099D01*
X140795699Y-96458945D01*
X140908945Y-96345699D01*
X141042099Y-96256729D01*
X141190058Y-96195442D01*
X141347125Y-96164200D01*
X141507275Y-96164200D01*
X141664342Y-96195442D01*
X141664342Y-96195442D01*
G37*
G36*
X146744342Y-96195442D02*
G01*
X146892301Y-96256729D01*
X147025455Y-96345699D01*
X147138701Y-96458945D01*
X147227671Y-96592099D01*
X147288958Y-96740058D01*
X147320200Y-96897125D01*
X147320200Y-97057275D01*
X147288958Y-97214342D01*
X147227671Y-97362301D01*
X147138701Y-97495455D01*
X147025455Y-97608701D01*
X146892301Y-97697671D01*
X146744342Y-97758958D01*
X146587275Y-97790200D01*
X146427125Y-97790200D01*
X146270058Y-97758958D01*
X146122099Y-97697671D01*
X145988945Y-97608701D01*
X145875699Y-97495455D01*
X145786729Y-97362301D01*
X145725442Y-97214342D01*
X145694200Y-97057275D01*
X145694200Y-96897125D01*
X145725442Y-96740058D01*
X145786729Y-96592099D01*
X145875699Y-96458945D01*
X145988945Y-96345699D01*
X146122099Y-96256729D01*
X146270058Y-96195442D01*
X146427125Y-96164200D01*
X146587275Y-96164200D01*
X146744342Y-96195442D01*
X146744342Y-96195442D01*
G37*
G36*
X136584342Y-96195442D02*
G01*
X136732301Y-96256729D01*
X136865455Y-96345699D01*
X136978701Y-96458945D01*
X137067671Y-96592099D01*
X137128958Y-96740058D01*
X137160200Y-96897125D01*
X137160200Y-97057275D01*
X137128958Y-97214342D01*
X137067671Y-97362301D01*
X136978701Y-97495455D01*
X136865455Y-97608701D01*
X136732301Y-97697671D01*
X136584342Y-97758958D01*
X136427275Y-97790200D01*
X136267125Y-97790200D01*
X136110058Y-97758958D01*
X135962099Y-97697671D01*
X135828945Y-97608701D01*
X135715699Y-97495455D01*
X135626729Y-97362301D01*
X135565442Y-97214342D01*
X135534200Y-97057275D01*
X135534200Y-96897125D01*
X135565442Y-96740058D01*
X135626729Y-96592099D01*
X135715699Y-96458945D01*
X135828945Y-96345699D01*
X135962099Y-96256729D01*
X136110058Y-96195442D01*
X136267125Y-96164200D01*
X136427275Y-96164200D01*
X136584342Y-96195442D01*
X136584342Y-96195442D01*
G37*
G36*
X134044342Y-96195442D02*
G01*
X134192301Y-96256729D01*
X134325455Y-96345699D01*
X134438701Y-96458945D01*
X134527671Y-96592099D01*
X134588958Y-96740058D01*
X134620200Y-96897125D01*
X134620200Y-97057275D01*
X134588958Y-97214342D01*
X134527671Y-97362301D01*
X134438701Y-97495455D01*
X134325455Y-97608701D01*
X134192301Y-97697671D01*
X134044342Y-97758958D01*
X133887275Y-97790200D01*
X133727125Y-97790200D01*
X133570058Y-97758958D01*
X133422099Y-97697671D01*
X133288945Y-97608701D01*
X133175699Y-97495455D01*
X133086729Y-97362301D01*
X133025442Y-97214342D01*
X132994200Y-97057275D01*
X132994200Y-96897125D01*
X133025442Y-96740058D01*
X133086729Y-96592099D01*
X133175699Y-96458945D01*
X133288945Y-96345699D01*
X133422099Y-96256729D01*
X133570058Y-96195442D01*
X133727125Y-96164200D01*
X133887275Y-96164200D01*
X134044342Y-96195442D01*
X134044342Y-96195442D01*
G37*
G36*
X139124342Y-96195442D02*
G01*
X139272301Y-96256729D01*
X139405455Y-96345699D01*
X139518701Y-96458945D01*
X139607671Y-96592099D01*
X139668958Y-96740058D01*
X139700200Y-96897125D01*
X139700200Y-97057275D01*
X139668958Y-97214342D01*
X139607671Y-97362301D01*
X139518701Y-97495455D01*
X139405455Y-97608701D01*
X139272301Y-97697671D01*
X139124342Y-97758958D01*
X138967275Y-97790200D01*
X138807125Y-97790200D01*
X138650058Y-97758958D01*
X138502099Y-97697671D01*
X138368945Y-97608701D01*
X138255699Y-97495455D01*
X138166729Y-97362301D01*
X138105442Y-97214342D01*
X138074200Y-97057275D01*
X138074200Y-96897125D01*
X138105442Y-96740058D01*
X138166729Y-96592099D01*
X138255699Y-96458945D01*
X138368945Y-96345699D01*
X138502099Y-96256729D01*
X138650058Y-96195442D01*
X138807125Y-96164200D01*
X138967275Y-96164200D01*
X139124342Y-96195442D01*
X139124342Y-96195442D01*
G37*
G36*
X82898276Y-92895384D02*
G01*
X83085700Y-92973018D01*
X83115571Y-92985391D01*
X83311130Y-93116060D01*
X83477440Y-93282370D01*
X83608110Y-93477931D01*
X83698116Y-93695224D01*
X83744000Y-93925900D01*
X83744000Y-94161100D01*
X83698116Y-94391776D01*
X83608110Y-94609069D01*
X83608109Y-94609071D01*
X83477440Y-94804630D01*
X83311130Y-94970940D01*
X83115571Y-95101609D01*
X83115570Y-95101610D01*
X83115569Y-95101610D01*
X82898276Y-95191616D01*
X82667600Y-95237500D01*
X82432400Y-95237500D01*
X82201724Y-95191616D01*
X81984431Y-95101610D01*
X81984430Y-95101610D01*
X81984429Y-95101609D01*
X81788870Y-94970940D01*
X81622560Y-94804630D01*
X81491891Y-94609071D01*
X81491890Y-94609069D01*
X81401884Y-94391776D01*
X81356000Y-94161100D01*
X81356000Y-93925900D01*
X81401884Y-93695224D01*
X81491890Y-93477931D01*
X81622560Y-93282370D01*
X81788870Y-93116060D01*
X81984429Y-92985391D01*
X82014300Y-92973018D01*
X82201724Y-92895384D01*
X82432400Y-92849500D01*
X82667600Y-92849500D01*
X82898276Y-92895384D01*
X82898276Y-92895384D01*
G37*
G36*
X98138276Y-92895384D02*
G01*
X98325700Y-92973018D01*
X98355571Y-92985391D01*
X98551130Y-93116060D01*
X98717440Y-93282370D01*
X98848110Y-93477931D01*
X98938116Y-93695224D01*
X98984000Y-93925900D01*
X98984000Y-94161100D01*
X98938116Y-94391776D01*
X98848110Y-94609069D01*
X98848109Y-94609071D01*
X98717440Y-94804630D01*
X98551130Y-94970940D01*
X98355571Y-95101609D01*
X98355570Y-95101610D01*
X98355569Y-95101610D01*
X98138276Y-95191616D01*
X97907600Y-95237500D01*
X97672400Y-95237500D01*
X97441724Y-95191616D01*
X97224431Y-95101610D01*
X97224430Y-95101610D01*
X97224429Y-95101609D01*
X97028870Y-94970940D01*
X96862560Y-94804630D01*
X96731891Y-94609071D01*
X96731890Y-94609069D01*
X96641884Y-94391776D01*
X96596000Y-94161100D01*
X96596000Y-93925900D01*
X96641884Y-93695224D01*
X96731890Y-93477931D01*
X96862560Y-93282370D01*
X97028870Y-93116060D01*
X97224429Y-92985391D01*
X97254300Y-92973018D01*
X97441724Y-92895384D01*
X97672400Y-92849500D01*
X97907600Y-92849500D01*
X98138276Y-92895384D01*
X98138276Y-92895384D01*
G37*
G36*
X202585187Y-92161723D02*
G01*
X202756255Y-92232582D01*
X202756257Y-92232583D01*
X202833758Y-92284368D01*
X202910214Y-92335454D01*
X203041146Y-92466386D01*
X203144018Y-92620345D01*
X203214877Y-92791413D01*
X203251000Y-92973017D01*
X203251000Y-93158183D01*
X203214877Y-93339787D01*
X203144018Y-93510855D01*
X203144017Y-93510857D01*
X203041145Y-93664815D01*
X202910215Y-93795745D01*
X202756257Y-93898617D01*
X202756256Y-93898618D01*
X202756255Y-93898618D01*
X202585187Y-93969477D01*
X202403583Y-94005600D01*
X202218417Y-94005600D01*
X202036813Y-93969477D01*
X201865745Y-93898618D01*
X201865744Y-93898618D01*
X201865743Y-93898617D01*
X201711785Y-93795745D01*
X201580855Y-93664815D01*
X201477983Y-93510857D01*
X201477982Y-93510855D01*
X201407123Y-93339787D01*
X201371000Y-93158183D01*
X201371000Y-92973017D01*
X201407123Y-92791413D01*
X201477982Y-92620345D01*
X201580854Y-92466386D01*
X201711786Y-92335454D01*
X201788242Y-92284368D01*
X201865743Y-92232583D01*
X201865745Y-92232582D01*
X202036813Y-92161723D01*
X202218417Y-92125600D01*
X202403583Y-92125600D01*
X202585187Y-92161723D01*
X202585187Y-92161723D01*
G37*
G36*
X196235187Y-92161723D02*
G01*
X196406255Y-92232582D01*
X196406257Y-92232583D01*
X196483758Y-92284368D01*
X196560214Y-92335454D01*
X196691146Y-92466386D01*
X196794018Y-92620345D01*
X196864877Y-92791413D01*
X196901000Y-92973017D01*
X196901000Y-93158183D01*
X196864877Y-93339787D01*
X196794018Y-93510855D01*
X196794017Y-93510857D01*
X196691145Y-93664815D01*
X196560215Y-93795745D01*
X196406257Y-93898617D01*
X196406256Y-93898618D01*
X196406255Y-93898618D01*
X196235187Y-93969477D01*
X196053583Y-94005600D01*
X195868417Y-94005600D01*
X195686813Y-93969477D01*
X195515745Y-93898618D01*
X195515744Y-93898618D01*
X195515743Y-93898617D01*
X195361785Y-93795745D01*
X195230855Y-93664815D01*
X195127983Y-93510857D01*
X195127982Y-93510855D01*
X195057123Y-93339787D01*
X195021000Y-93158183D01*
X195021000Y-92973017D01*
X195057123Y-92791413D01*
X195127982Y-92620345D01*
X195230854Y-92466386D01*
X195361786Y-92335454D01*
X195438242Y-92284368D01*
X195515743Y-92232583D01*
X195515745Y-92232582D01*
X195686813Y-92161723D01*
X195868417Y-92125600D01*
X196053583Y-92125600D01*
X196235187Y-92161723D01*
X196235187Y-92161723D01*
G37*
G36*
X80284187Y-89012123D02*
G01*
X80455255Y-89082982D01*
X80455257Y-89082983D01*
X80532758Y-89134768D01*
X80609214Y-89185854D01*
X80740146Y-89316786D01*
X80843018Y-89470745D01*
X80913877Y-89641813D01*
X80950000Y-89823417D01*
X80950000Y-90008583D01*
X80913877Y-90190187D01*
X80843018Y-90361255D01*
X80843017Y-90361257D01*
X80740145Y-90515215D01*
X80609215Y-90646145D01*
X80455257Y-90749017D01*
X80455256Y-90749018D01*
X80455255Y-90749018D01*
X80284187Y-90819877D01*
X80102583Y-90856000D01*
X79917417Y-90856000D01*
X79735813Y-90819877D01*
X79564745Y-90749018D01*
X79564744Y-90749018D01*
X79564743Y-90749017D01*
X79410785Y-90646145D01*
X79279855Y-90515215D01*
X79176983Y-90361257D01*
X79176982Y-90361255D01*
X79106123Y-90190187D01*
X79070000Y-90008583D01*
X79070000Y-89823417D01*
X79106123Y-89641813D01*
X79176982Y-89470745D01*
X79279854Y-89316786D01*
X79410786Y-89185854D01*
X79487242Y-89134768D01*
X79564743Y-89082983D01*
X79564745Y-89082982D01*
X79735813Y-89012123D01*
X79917417Y-88976000D01*
X80102583Y-88976000D01*
X80284187Y-89012123D01*
X80284187Y-89012123D01*
G37*
G36*
X157037231Y-83836186D02*
G01*
X157553350Y-84049970D01*
X158017844Y-84360335D01*
X158412865Y-84755356D01*
X158649956Y-85110187D01*
X158723231Y-85219852D01*
X158785846Y-85371018D01*
X158937014Y-85735969D01*
X159046000Y-86283878D01*
X159046000Y-86842522D01*
X158937014Y-87390431D01*
X158904642Y-87468583D01*
X158738617Y-87869404D01*
X158723230Y-87906550D01*
X158412865Y-88371044D01*
X158017844Y-88766065D01*
X157553350Y-89076430D01*
X157037231Y-89290214D01*
X156489323Y-89399200D01*
X155930677Y-89399200D01*
X155656724Y-89344707D01*
X155382769Y-89290214D01*
X154866650Y-89076430D01*
X154402156Y-88766065D01*
X154007135Y-88371044D01*
X153696770Y-87906550D01*
X153681384Y-87869404D01*
X153515358Y-87468583D01*
X153482986Y-87390431D01*
X153374000Y-86842522D01*
X153374000Y-86283878D01*
X153482986Y-85735969D01*
X153634154Y-85371018D01*
X153696769Y-85219852D01*
X153770045Y-85110187D01*
X154007135Y-84755356D01*
X154402156Y-84360335D01*
X154866650Y-84049970D01*
X155382769Y-83836186D01*
X155930677Y-83727200D01*
X156489323Y-83727200D01*
X157037231Y-83836186D01*
X157037231Y-83836186D01*
G37*
G36*
X130167231Y-83836186D02*
G01*
X130683350Y-84049970D01*
X131147844Y-84360335D01*
X131542865Y-84755356D01*
X131779956Y-85110187D01*
X131853231Y-85219852D01*
X131915846Y-85371018D01*
X132067014Y-85735969D01*
X132176000Y-86283878D01*
X132176000Y-86842522D01*
X132067014Y-87390431D01*
X132034642Y-87468583D01*
X131868617Y-87869404D01*
X131853230Y-87906550D01*
X131542865Y-88371044D01*
X131147844Y-88766065D01*
X130683350Y-89076430D01*
X130167231Y-89290214D01*
X129619323Y-89399200D01*
X129060677Y-89399200D01*
X128786724Y-89344707D01*
X128512769Y-89290214D01*
X127996650Y-89076430D01*
X127532156Y-88766065D01*
X127137135Y-88371044D01*
X126826770Y-87906550D01*
X126811384Y-87869404D01*
X126645358Y-87468583D01*
X126612986Y-87390431D01*
X126504000Y-86842522D01*
X126504000Y-86283878D01*
X126612986Y-85735969D01*
X126764154Y-85371018D01*
X126826769Y-85219852D01*
X126900045Y-85110187D01*
X127137135Y-84755356D01*
X127532156Y-84360335D01*
X127996650Y-84049970D01*
X128512769Y-83836186D01*
X129060677Y-83727200D01*
X129619323Y-83727200D01*
X130167231Y-83836186D01*
X130167231Y-83836186D01*
G37*
G36*
X182832065Y-85359502D02*
G01*
X182981890Y-85389304D01*
X183264154Y-85506221D01*
X183518185Y-85675959D01*
X183734221Y-85891995D01*
X183903959Y-86146026D01*
X184020876Y-86428290D01*
X184080480Y-86727940D01*
X184080480Y-87033460D01*
X184020876Y-87333110D01*
X183903959Y-87615374D01*
X183734221Y-87869405D01*
X183518185Y-88085441D01*
X183264154Y-88255179D01*
X182981890Y-88372096D01*
X182832065Y-88401898D01*
X182682241Y-88431700D01*
X182376719Y-88431700D01*
X182226895Y-88401898D01*
X182077070Y-88372096D01*
X181794806Y-88255179D01*
X181540775Y-88085441D01*
X181324739Y-87869405D01*
X181155001Y-87615374D01*
X181038084Y-87333110D01*
X180978480Y-87033460D01*
X180978480Y-86727940D01*
X181038084Y-86428290D01*
X181155001Y-86146026D01*
X181324739Y-85891995D01*
X181540775Y-85675959D01*
X181794806Y-85506221D01*
X182077070Y-85389304D01*
X182226895Y-85359502D01*
X182376719Y-85329700D01*
X182682241Y-85329700D01*
X182832065Y-85359502D01*
X182832065Y-85359502D01*
G37*
G36*
X107833485Y-85359502D02*
G01*
X107983310Y-85389304D01*
X108265574Y-85506221D01*
X108519605Y-85675959D01*
X108735641Y-85891995D01*
X108905379Y-86146026D01*
X109022296Y-86428290D01*
X109081900Y-86727940D01*
X109081900Y-87033460D01*
X109022296Y-87333110D01*
X108905379Y-87615374D01*
X108735641Y-87869405D01*
X108519605Y-88085441D01*
X108265574Y-88255179D01*
X107983310Y-88372096D01*
X107833485Y-88401898D01*
X107683661Y-88431700D01*
X107378139Y-88431700D01*
X107228315Y-88401898D01*
X107078490Y-88372096D01*
X106796226Y-88255179D01*
X106542195Y-88085441D01*
X106326159Y-87869405D01*
X106156421Y-87615374D01*
X106039504Y-87333110D01*
X105979900Y-87033460D01*
X105979900Y-86727940D01*
X106039504Y-86428290D01*
X106156421Y-86146026D01*
X106326159Y-85891995D01*
X106542195Y-85675959D01*
X106796226Y-85506221D01*
X107078490Y-85389304D01*
X107228315Y-85359502D01*
X107378139Y-85329700D01*
X107683661Y-85329700D01*
X107833485Y-85359502D01*
X107833485Y-85359502D01*
G37*
G36*
X80284187Y-86472123D02*
G01*
X80455255Y-86542982D01*
X80455257Y-86542983D01*
X80532758Y-86594768D01*
X80609214Y-86645854D01*
X80740146Y-86776786D01*
X80843018Y-86930745D01*
X80913877Y-87101813D01*
X80950000Y-87283417D01*
X80950000Y-87468583D01*
X80913877Y-87650187D01*
X80843018Y-87821255D01*
X80843017Y-87821257D01*
X80740145Y-87975215D01*
X80609215Y-88106145D01*
X80455257Y-88209017D01*
X80455256Y-88209018D01*
X80455255Y-88209018D01*
X80284187Y-88279877D01*
X80102583Y-88316000D01*
X79917417Y-88316000D01*
X79735813Y-88279877D01*
X79564745Y-88209018D01*
X79564744Y-88209018D01*
X79564743Y-88209017D01*
X79410785Y-88106145D01*
X79279855Y-87975215D01*
X79176983Y-87821257D01*
X79176982Y-87821255D01*
X79106123Y-87650187D01*
X79070000Y-87468583D01*
X79070000Y-87283417D01*
X79106123Y-87101813D01*
X79176982Y-86930745D01*
X79279854Y-86776786D01*
X79410786Y-86645854D01*
X79487242Y-86594768D01*
X79564743Y-86542983D01*
X79564745Y-86542982D01*
X79735813Y-86472123D01*
X79917417Y-86436000D01*
X80102583Y-86436000D01*
X80284187Y-86472123D01*
X80284187Y-86472123D01*
G37*
G36*
X80284187Y-83932123D02*
G01*
X80455255Y-84002982D01*
X80455257Y-84002983D01*
X80525576Y-84049969D01*
X80609214Y-84105854D01*
X80740146Y-84236786D01*
X80843018Y-84390745D01*
X80913877Y-84561813D01*
X80950000Y-84743417D01*
X80950000Y-84928583D01*
X80913877Y-85110187D01*
X80868453Y-85219850D01*
X80843017Y-85281257D01*
X80740145Y-85435215D01*
X80609215Y-85566145D01*
X80455257Y-85669017D01*
X80455256Y-85669018D01*
X80455255Y-85669018D01*
X80284187Y-85739877D01*
X80102583Y-85776000D01*
X79917417Y-85776000D01*
X79735813Y-85739877D01*
X79564745Y-85669018D01*
X79564744Y-85669018D01*
X79564743Y-85669017D01*
X79410785Y-85566145D01*
X79279855Y-85435215D01*
X79176983Y-85281257D01*
X79151547Y-85219850D01*
X79106123Y-85110187D01*
X79070000Y-84928583D01*
X79070000Y-84743417D01*
X79106123Y-84561813D01*
X79176982Y-84390745D01*
X79279854Y-84236786D01*
X79410786Y-84105854D01*
X79494424Y-84049969D01*
X79564743Y-84002983D01*
X79564745Y-84002982D01*
X79735813Y-83932123D01*
X79917417Y-83896000D01*
X80102583Y-83896000D01*
X80284187Y-83932123D01*
X80284187Y-83932123D01*
G37*
G36*
X169011528Y-80135598D02*
G01*
X169186074Y-80188547D01*
X169346950Y-80274536D01*
X169487949Y-80390251D01*
X169603667Y-80531253D01*
X169689652Y-80692121D01*
X169742602Y-80866671D01*
X169756000Y-81002710D01*
X169756000Y-82643690D01*
X169742602Y-82779729D01*
X169689652Y-82954279D01*
X169603667Y-83115147D01*
X169487949Y-83256149D01*
X169346947Y-83371867D01*
X169186079Y-83457852D01*
X169011529Y-83510802D01*
X168830000Y-83528680D01*
X168648472Y-83510802D01*
X168473922Y-83457852D01*
X168313054Y-83371867D01*
X168172052Y-83256149D01*
X168056334Y-83115147D01*
X167970349Y-82954279D01*
X167917399Y-82779729D01*
X167904000Y-82643689D01*
X167904000Y-81002711D01*
X167917398Y-80866672D01*
X167970347Y-80692126D01*
X168056336Y-80531250D01*
X168172051Y-80390251D01*
X168313053Y-80274533D01*
X168473921Y-80188548D01*
X168648471Y-80135598D01*
X168830000Y-80117720D01*
X169011528Y-80135598D01*
X169011528Y-80135598D01*
G37*
G36*
X82898276Y-79560384D02*
G01*
X83115569Y-79650390D01*
X83115571Y-79650391D01*
X83311130Y-79781060D01*
X83477440Y-79947370D01*
X83603211Y-80135598D01*
X83608110Y-80142931D01*
X83698116Y-80360224D01*
X83744000Y-80590900D01*
X83744000Y-80826100D01*
X83698116Y-81056776D01*
X83608110Y-81274069D01*
X83608109Y-81274071D01*
X83477440Y-81469630D01*
X83311130Y-81635940D01*
X83115571Y-81766609D01*
X83115570Y-81766610D01*
X83115569Y-81766610D01*
X82898276Y-81856616D01*
X82667600Y-81902500D01*
X82432400Y-81902500D01*
X82201724Y-81856616D01*
X81984431Y-81766610D01*
X81984430Y-81766610D01*
X81984429Y-81766609D01*
X81788870Y-81635940D01*
X81622560Y-81469630D01*
X81491891Y-81274071D01*
X81491890Y-81274069D01*
X81401884Y-81056776D01*
X81356000Y-80826100D01*
X81356000Y-80590900D01*
X81401884Y-80360224D01*
X81491890Y-80142931D01*
X81496790Y-80135598D01*
X81622560Y-79947370D01*
X81788870Y-79781060D01*
X81984429Y-79650391D01*
X81984431Y-79650390D01*
X82201724Y-79560384D01*
X82432400Y-79514500D01*
X82667600Y-79514500D01*
X82898276Y-79560384D01*
X82898276Y-79560384D01*
G37*
G36*
X98138276Y-79560384D02*
G01*
X98355569Y-79650390D01*
X98355571Y-79650391D01*
X98551130Y-79781060D01*
X98717440Y-79947370D01*
X98843211Y-80135598D01*
X98848110Y-80142931D01*
X98938116Y-80360224D01*
X98984000Y-80590900D01*
X98984000Y-80826100D01*
X98938116Y-81056776D01*
X98848110Y-81274069D01*
X98848109Y-81274071D01*
X98717440Y-81469630D01*
X98551130Y-81635940D01*
X98355571Y-81766609D01*
X98355570Y-81766610D01*
X98355569Y-81766610D01*
X98138276Y-81856616D01*
X97907600Y-81902500D01*
X97672400Y-81902500D01*
X97441724Y-81856616D01*
X97224431Y-81766610D01*
X97224430Y-81766610D01*
X97224429Y-81766609D01*
X97028870Y-81635940D01*
X96862560Y-81469630D01*
X96731891Y-81274071D01*
X96731890Y-81274069D01*
X96641884Y-81056776D01*
X96596000Y-80826100D01*
X96596000Y-80590900D01*
X96641884Y-80360224D01*
X96731890Y-80142931D01*
X96736790Y-80135598D01*
X96862560Y-79947370D01*
X97028870Y-79781060D01*
X97224429Y-79650391D01*
X97224431Y-79650390D01*
X97441724Y-79560384D01*
X97672400Y-79514500D01*
X97907600Y-79514500D01*
X98138276Y-79560384D01*
X98138276Y-79560384D01*
G37*
G36*
X87269187Y-78852123D02*
G01*
X87440255Y-78922982D01*
X87440257Y-78922983D01*
X87517758Y-78974768D01*
X87594214Y-79025854D01*
X87725146Y-79156786D01*
X87828018Y-79310745D01*
X87898877Y-79481813D01*
X87935000Y-79663417D01*
X87935000Y-79848583D01*
X87898877Y-80030187D01*
X87828018Y-80201255D01*
X87725146Y-80355214D01*
X87594214Y-80486146D01*
X87526705Y-80531254D01*
X87440257Y-80589017D01*
X87440256Y-80589018D01*
X87440255Y-80589018D01*
X87269187Y-80659877D01*
X87087583Y-80696000D01*
X86902417Y-80696000D01*
X86720813Y-80659877D01*
X86549745Y-80589018D01*
X86549744Y-80589018D01*
X86549743Y-80589017D01*
X86463295Y-80531254D01*
X86395786Y-80486146D01*
X86264854Y-80355214D01*
X86161982Y-80201255D01*
X86091123Y-80030187D01*
X86055000Y-79848583D01*
X86055000Y-79663417D01*
X86091123Y-79481813D01*
X86161982Y-79310745D01*
X86264854Y-79156786D01*
X86395786Y-79025854D01*
X86472242Y-78974768D01*
X86549743Y-78922983D01*
X86549745Y-78922982D01*
X86720813Y-78852123D01*
X86902417Y-78816000D01*
X87087583Y-78816000D01*
X87269187Y-78852123D01*
X87269187Y-78852123D01*
G37*
G36*
X93619187Y-78852123D02*
G01*
X93790255Y-78922982D01*
X93790257Y-78922983D01*
X93867758Y-78974768D01*
X93944214Y-79025854D01*
X94075146Y-79156786D01*
X94178018Y-79310745D01*
X94248877Y-79481813D01*
X94285000Y-79663417D01*
X94285000Y-79848583D01*
X94248877Y-80030187D01*
X94178018Y-80201255D01*
X94075146Y-80355214D01*
X93944214Y-80486146D01*
X93876705Y-80531254D01*
X93790257Y-80589017D01*
X93790256Y-80589018D01*
X93790255Y-80589018D01*
X93619187Y-80659877D01*
X93437583Y-80696000D01*
X93252417Y-80696000D01*
X93070813Y-80659877D01*
X92899745Y-80589018D01*
X92899744Y-80589018D01*
X92899743Y-80589017D01*
X92813295Y-80531254D01*
X92745786Y-80486146D01*
X92614854Y-80355214D01*
X92511982Y-80201255D01*
X92441123Y-80030187D01*
X92405000Y-79848583D01*
X92405000Y-79663417D01*
X92441123Y-79481813D01*
X92511982Y-79310745D01*
X92614854Y-79156786D01*
X92745786Y-79025854D01*
X92822242Y-78974768D01*
X92899743Y-78922983D01*
X92899745Y-78922982D01*
X93070813Y-78852123D01*
X93252417Y-78816000D01*
X93437583Y-78816000D01*
X93619187Y-78852123D01*
X93619187Y-78852123D01*
G37*
G36*
X93619187Y-73772123D02*
G01*
X93790255Y-73842982D01*
X93790257Y-73842983D01*
X93867758Y-73894768D01*
X93944214Y-73945854D01*
X94075146Y-74076786D01*
X94178018Y-74230745D01*
X94248877Y-74401813D01*
X94285000Y-74583417D01*
X94285000Y-74768583D01*
X94248877Y-74950187D01*
X94178018Y-75121255D01*
X94178017Y-75121257D01*
X94075145Y-75275215D01*
X93944215Y-75406145D01*
X93790257Y-75509017D01*
X93790256Y-75509018D01*
X93790255Y-75509018D01*
X93619187Y-75579877D01*
X93437583Y-75616000D01*
X93252417Y-75616000D01*
X93070813Y-75579877D01*
X92899745Y-75509018D01*
X92899744Y-75509018D01*
X92899743Y-75509017D01*
X92745785Y-75406145D01*
X92614855Y-75275215D01*
X92511983Y-75121257D01*
X92511982Y-75121255D01*
X92441123Y-74950187D01*
X92405000Y-74768583D01*
X92405000Y-74583417D01*
X92441123Y-74401813D01*
X92511982Y-74230745D01*
X92614854Y-74076786D01*
X92745786Y-73945854D01*
X92822242Y-73894768D01*
X92899743Y-73842983D01*
X92899745Y-73842982D01*
X93070813Y-73772123D01*
X93252417Y-73736000D01*
X93437583Y-73736000D01*
X93619187Y-73772123D01*
X93619187Y-73772123D01*
G37*
G36*
X87269187Y-73772123D02*
G01*
X87440255Y-73842982D01*
X87440257Y-73842983D01*
X87517758Y-73894768D01*
X87594214Y-73945854D01*
X87725146Y-74076786D01*
X87828018Y-74230745D01*
X87898877Y-74401813D01*
X87935000Y-74583417D01*
X87935000Y-74768583D01*
X87898877Y-74950187D01*
X87828018Y-75121255D01*
X87828017Y-75121257D01*
X87725145Y-75275215D01*
X87594215Y-75406145D01*
X87440257Y-75509017D01*
X87440256Y-75509018D01*
X87440255Y-75509018D01*
X87269187Y-75579877D01*
X87087583Y-75616000D01*
X86902417Y-75616000D01*
X86720813Y-75579877D01*
X86549745Y-75509018D01*
X86549744Y-75509018D01*
X86549743Y-75509017D01*
X86395785Y-75406145D01*
X86264855Y-75275215D01*
X86161983Y-75121257D01*
X86161982Y-75121255D01*
X86091123Y-74950187D01*
X86055000Y-74768583D01*
X86055000Y-74583417D01*
X86091123Y-74401813D01*
X86161982Y-74230745D01*
X86264854Y-74076786D01*
X86395786Y-73945854D01*
X86472242Y-73894768D01*
X86549743Y-73842983D01*
X86549745Y-73842982D01*
X86720813Y-73772123D01*
X86902417Y-73736000D01*
X87087583Y-73736000D01*
X87269187Y-73772123D01*
X87269187Y-73772123D01*
G37*
G36*
X169011528Y-67185598D02*
G01*
X169186074Y-67238547D01*
X169346950Y-67324536D01*
X169487949Y-67440251D01*
X169603667Y-67581253D01*
X169689652Y-67742121D01*
X169742602Y-67916671D01*
X169756000Y-68052710D01*
X169756000Y-69693690D01*
X169742602Y-69829729D01*
X169689652Y-70004279D01*
X169603667Y-70165147D01*
X169487949Y-70306149D01*
X169346947Y-70421867D01*
X169186079Y-70507852D01*
X169011529Y-70560802D01*
X168830000Y-70578680D01*
X168648472Y-70560802D01*
X168473922Y-70507852D01*
X168313054Y-70421867D01*
X168172052Y-70306149D01*
X168056334Y-70165147D01*
X167970349Y-70004279D01*
X167917399Y-69829729D01*
X167904000Y-69693689D01*
X167904000Y-68052711D01*
X167917398Y-67916672D01*
X167970347Y-67742126D01*
X168056336Y-67581250D01*
X168172051Y-67440251D01*
X168313053Y-67324533D01*
X168473921Y-67238548D01*
X168648471Y-67185598D01*
X168830000Y-67167720D01*
X169011528Y-67185598D01*
X169011528Y-67185598D01*
G37*
G36*
X143273276Y-61281693D02*
G01*
X143547231Y-61336186D01*
X143912182Y-61487354D01*
X144028113Y-61535374D01*
X144063350Y-61549970D01*
X144351099Y-61742238D01*
X144527844Y-61860335D01*
X144922865Y-62255356D01*
X145233231Y-62719852D01*
X145447014Y-63235970D01*
X145552773Y-63767652D01*
X145556000Y-63783878D01*
X145556000Y-64342522D01*
X145447014Y-64890431D01*
X145233230Y-65406550D01*
X144922865Y-65871044D01*
X144527844Y-66266065D01*
X144063350Y-66576430D01*
X143547231Y-66790214D01*
X142999323Y-66899200D01*
X142440677Y-66899200D01*
X141892769Y-66790214D01*
X141376650Y-66576430D01*
X140912156Y-66266065D01*
X140517135Y-65871044D01*
X140206770Y-65406550D01*
X139992986Y-64890431D01*
X139884000Y-64342522D01*
X139884000Y-63783878D01*
X139887228Y-63767652D01*
X139992986Y-63235970D01*
X140206769Y-62719852D01*
X140517135Y-62255356D01*
X140912156Y-61860335D01*
X141088901Y-61742238D01*
X141376650Y-61549970D01*
X141411888Y-61535374D01*
X141527818Y-61487354D01*
X141892769Y-61336186D01*
X142166724Y-61281693D01*
X142440677Y-61227200D01*
X142999323Y-61227200D01*
X143273276Y-61281693D01*
X143273276Y-61281693D01*
G37*
G36*
X201199000Y-61507000D02*
G01*
X201058445Y-61507000D01*
X201034059Y-61509402D01*
X201010610Y-61516515D01*
X200988999Y-61528066D01*
X200970057Y-61543611D01*
X200954512Y-61562553D01*
X200942961Y-61584164D01*
X200935848Y-61607613D01*
X200933446Y-61631999D01*
X200935848Y-61656385D01*
X200942961Y-61679834D01*
X200954512Y-61701445D01*
X200970057Y-61720387D01*
X200988999Y-61735932D01*
X200999521Y-61742238D01*
X201190555Y-61844347D01*
X201365818Y-61988182D01*
X201509653Y-62163445D01*
X201616529Y-62363398D01*
X201616530Y-62363400D01*
X201682346Y-62580365D01*
X201704569Y-62806000D01*
X201682346Y-63031635D01*
X201620362Y-63235969D01*
X201616529Y-63248602D01*
X201509653Y-63448555D01*
X201365818Y-63623818D01*
X201190555Y-63767653D01*
X200990602Y-63874529D01*
X200990600Y-63874530D01*
X200773635Y-63940346D01*
X200717271Y-63945897D01*
X200604545Y-63957000D01*
X199191455Y-63957000D01*
X199078729Y-63945897D01*
X199022365Y-63940346D01*
X198805400Y-63874530D01*
X198805398Y-63874529D01*
X198605445Y-63767653D01*
X198430182Y-63623818D01*
X198286347Y-63448555D01*
X198179471Y-63248602D01*
X198175639Y-63235969D01*
X198113654Y-63031635D01*
X198091431Y-62806000D01*
X198113654Y-62580365D01*
X198179470Y-62363400D01*
X198179471Y-62363398D01*
X198286347Y-62163445D01*
X198430182Y-61988182D01*
X198605445Y-61844347D01*
X198796479Y-61742238D01*
X198816853Y-61728625D01*
X198834180Y-61711298D01*
X198847794Y-61690923D01*
X198857172Y-61668285D01*
X198861952Y-61644251D01*
X198861952Y-61619747D01*
X198857172Y-61595714D01*
X198847794Y-61573075D01*
X198834181Y-61552701D01*
X198816854Y-61535374D01*
X198796479Y-61521760D01*
X198773841Y-61512382D01*
X198749807Y-61507602D01*
X198737555Y-61507000D01*
X198597000Y-61507000D01*
X198597000Y-59905000D01*
X201199000Y-59905000D01*
X201199000Y-61507000D01*
X201199000Y-61507000D01*
G37*
G36*
X200476571Y-57908863D02*
G01*
X200555023Y-57916590D01*
X200655682Y-57947125D01*
X200706013Y-57962392D01*
X200845165Y-58036771D01*
X200967133Y-58136867D01*
X201067229Y-58258835D01*
X201141608Y-58397987D01*
X201141608Y-58397988D01*
X201187410Y-58548977D01*
X201202875Y-58706000D01*
X201187410Y-58863023D01*
X201156875Y-58963682D01*
X201141608Y-59014013D01*
X201067229Y-59153165D01*
X200967133Y-59275133D01*
X200845165Y-59375229D01*
X200706013Y-59449608D01*
X200655682Y-59464875D01*
X200555023Y-59495410D01*
X200476571Y-59503137D01*
X200437346Y-59507000D01*
X199358654Y-59507000D01*
X199319429Y-59503137D01*
X199240977Y-59495410D01*
X199140318Y-59464875D01*
X199089987Y-59449608D01*
X198950835Y-59375229D01*
X198828867Y-59275133D01*
X198728771Y-59153165D01*
X198654392Y-59014013D01*
X198639125Y-58963682D01*
X198608590Y-58863023D01*
X198593125Y-58706000D01*
X198608590Y-58548977D01*
X198654392Y-58397988D01*
X198654392Y-58397987D01*
X198728771Y-58258835D01*
X198828867Y-58136867D01*
X198950835Y-58036771D01*
X199089987Y-57962392D01*
X199140318Y-57947125D01*
X199240977Y-57916590D01*
X199319429Y-57908863D01*
X199358654Y-57905000D01*
X200437346Y-57905000D01*
X200476571Y-57908863D01*
X200476571Y-57908863D01*
G37*
G36*
X101739000Y-57797000D02*
G01*
X99937000Y-57797000D01*
X99937000Y-55995000D01*
X101739000Y-55995000D01*
X101739000Y-57797000D01*
X101739000Y-57797000D01*
G37*
G36*
X98408442Y-56001518D02*
G01*
X98474627Y-56008037D01*
X98644466Y-56059557D01*
X98800991Y-56143222D01*
X98836729Y-56172552D01*
X98938186Y-56255814D01*
X99021448Y-56357271D01*
X99050778Y-56393009D01*
X99134443Y-56549534D01*
X99185963Y-56719373D01*
X99203359Y-56896000D01*
X99185963Y-57072627D01*
X99134443Y-57242466D01*
X99050778Y-57398991D01*
X99024509Y-57431000D01*
X98938186Y-57536186D01*
X98836729Y-57619448D01*
X98800991Y-57648778D01*
X98644466Y-57732443D01*
X98474627Y-57783963D01*
X98408442Y-57790482D01*
X98342260Y-57797000D01*
X98253740Y-57797000D01*
X98187558Y-57790482D01*
X98121373Y-57783963D01*
X97951534Y-57732443D01*
X97795009Y-57648778D01*
X97759271Y-57619448D01*
X97657814Y-57536186D01*
X97571491Y-57431000D01*
X97545222Y-57398991D01*
X97461557Y-57242466D01*
X97410037Y-57072627D01*
X97392641Y-56896000D01*
X97410037Y-56719373D01*
X97461557Y-56549534D01*
X97545222Y-56393009D01*
X97574552Y-56357271D01*
X97657814Y-56255814D01*
X97759271Y-56172552D01*
X97795009Y-56143222D01*
X97951534Y-56059557D01*
X98121373Y-56008037D01*
X98187558Y-56001518D01*
X98253740Y-55995000D01*
X98342260Y-55995000D01*
X98408442Y-56001518D01*
X98408442Y-56001518D01*
G37*
G36*
X95868442Y-56001518D02*
G01*
X95934627Y-56008037D01*
X96104466Y-56059557D01*
X96260991Y-56143222D01*
X96296729Y-56172552D01*
X96398186Y-56255814D01*
X96481448Y-56357271D01*
X96510778Y-56393009D01*
X96594443Y-56549534D01*
X96645963Y-56719373D01*
X96663359Y-56896000D01*
X96645963Y-57072627D01*
X96594443Y-57242466D01*
X96510778Y-57398991D01*
X96484509Y-57431000D01*
X96398186Y-57536186D01*
X96296729Y-57619448D01*
X96260991Y-57648778D01*
X96104466Y-57732443D01*
X95934627Y-57783963D01*
X95868442Y-57790482D01*
X95802260Y-57797000D01*
X95713740Y-57797000D01*
X95647558Y-57790482D01*
X95581373Y-57783963D01*
X95411534Y-57732443D01*
X95255009Y-57648778D01*
X95219271Y-57619448D01*
X95117814Y-57536186D01*
X95031491Y-57431000D01*
X95005222Y-57398991D01*
X94921557Y-57242466D01*
X94870037Y-57072627D01*
X94852641Y-56896000D01*
X94870037Y-56719373D01*
X94921557Y-56549534D01*
X95005222Y-56393009D01*
X95034552Y-56357271D01*
X95117814Y-56255814D01*
X95219271Y-56172552D01*
X95255009Y-56143222D01*
X95411534Y-56059557D01*
X95581373Y-56008037D01*
X95647558Y-56001518D01*
X95713740Y-55995000D01*
X95802260Y-55995000D01*
X95868442Y-56001518D01*
X95868442Y-56001518D01*
G37*
G36*
X200717271Y-53466103D02*
G01*
X200773635Y-53471654D01*
X200990600Y-53537470D01*
X200990602Y-53537471D01*
X201190555Y-53644347D01*
X201365818Y-53788182D01*
X201509653Y-53963445D01*
X201616529Y-54163398D01*
X201616530Y-54163400D01*
X201682346Y-54380365D01*
X201704569Y-54606000D01*
X201697748Y-54675260D01*
X201682346Y-54831634D01*
X201616529Y-55048602D01*
X201509653Y-55248555D01*
X201365818Y-55423818D01*
X201190555Y-55567653D01*
X200990602Y-55674529D01*
X200990600Y-55674530D01*
X200773635Y-55740346D01*
X200773631Y-55740346D01*
X200771516Y-55740988D01*
X200751803Y-55744909D01*
X200729164Y-55754285D01*
X200708790Y-55767899D01*
X200691462Y-55785225D01*
X200677848Y-55805599D01*
X200668470Y-55828238D01*
X200663689Y-55852271D01*
X200663689Y-55876775D01*
X200668469Y-55900809D01*
X200677845Y-55923448D01*
X200691459Y-55943822D01*
X200708785Y-55961150D01*
X200729161Y-55974765D01*
X200845165Y-56036771D01*
X200967133Y-56136867D01*
X201067229Y-56258835D01*
X201141608Y-56397987D01*
X201141608Y-56397988D01*
X201187410Y-56548977D01*
X201202875Y-56706000D01*
X201187410Y-56863023D01*
X201159293Y-56955712D01*
X201141608Y-57014013D01*
X201067229Y-57153165D01*
X200967133Y-57275133D01*
X200845165Y-57375229D01*
X200706013Y-57449608D01*
X200655682Y-57464875D01*
X200555023Y-57495410D01*
X200476571Y-57503137D01*
X200437346Y-57507000D01*
X199358654Y-57507000D01*
X199319429Y-57503137D01*
X199240977Y-57495410D01*
X199140318Y-57464875D01*
X199089987Y-57449608D01*
X198950835Y-57375229D01*
X198828867Y-57275133D01*
X198728771Y-57153165D01*
X198654392Y-57014013D01*
X198636707Y-56955712D01*
X198608590Y-56863023D01*
X198593125Y-56706000D01*
X198608590Y-56548977D01*
X198654392Y-56397988D01*
X198654392Y-56397987D01*
X198728771Y-56258835D01*
X198828867Y-56136867D01*
X198950835Y-56036771D01*
X199066839Y-55974765D01*
X199087213Y-55961151D01*
X199104540Y-55943824D01*
X199118154Y-55923450D01*
X199127531Y-55900811D01*
X199132311Y-55876777D01*
X199132311Y-55852273D01*
X199127530Y-55828240D01*
X199118153Y-55805601D01*
X199104539Y-55785227D01*
X199087212Y-55767900D01*
X199066838Y-55754286D01*
X199044199Y-55744909D01*
X199024484Y-55740988D01*
X199022369Y-55740346D01*
X199022365Y-55740346D01*
X198805400Y-55674530D01*
X198805398Y-55674529D01*
X198605445Y-55567653D01*
X198430182Y-55423818D01*
X198286347Y-55248555D01*
X198179471Y-55048602D01*
X198113654Y-54831634D01*
X198098253Y-54675260D01*
X198091431Y-54606000D01*
X198113654Y-54380365D01*
X198179470Y-54163400D01*
X198179471Y-54163398D01*
X198286347Y-53963445D01*
X198430182Y-53788182D01*
X198605445Y-53644347D01*
X198805398Y-53537471D01*
X198805400Y-53537470D01*
X199022365Y-53471654D01*
X199078729Y-53466103D01*
X199191455Y-53455000D01*
X200604545Y-53455000D01*
X200717271Y-53466103D01*
X200717271Y-53466103D01*
G37*
G36*
X182832585Y-54358802D02*
G01*
X182982410Y-54388604D01*
X183264674Y-54505521D01*
X183518705Y-54675259D01*
X183734741Y-54891295D01*
X183904479Y-55145326D01*
X184021396Y-55427590D01*
X184081000Y-55727240D01*
X184081000Y-56032760D01*
X184021396Y-56332410D01*
X183904479Y-56614674D01*
X183734741Y-56868705D01*
X183518705Y-57084741D01*
X183264674Y-57254479D01*
X182982410Y-57371396D01*
X182843690Y-57398989D01*
X182682761Y-57431000D01*
X182377239Y-57431000D01*
X182216310Y-57398989D01*
X182077590Y-57371396D01*
X181795326Y-57254479D01*
X181541295Y-57084741D01*
X181325259Y-56868705D01*
X181155521Y-56614674D01*
X181038604Y-56332410D01*
X180979000Y-56032760D01*
X180979000Y-55727240D01*
X181038604Y-55427590D01*
X181155521Y-55145326D01*
X181325259Y-54891295D01*
X181541295Y-54675259D01*
X181795326Y-54505521D01*
X182077590Y-54388604D01*
X182227415Y-54358802D01*
X182377239Y-54329000D01*
X182682761Y-54329000D01*
X182832585Y-54358802D01*
X182832585Y-54358802D01*
G37*
G36*
X107833485Y-54358802D02*
G01*
X107983310Y-54388604D01*
X108265574Y-54505521D01*
X108519605Y-54675259D01*
X108735641Y-54891295D01*
X108905379Y-55145326D01*
X109022296Y-55427590D01*
X109081900Y-55727240D01*
X109081900Y-56032760D01*
X109022296Y-56332410D01*
X108905379Y-56614674D01*
X108735641Y-56868705D01*
X108519605Y-57084741D01*
X108265574Y-57254479D01*
X107983310Y-57371396D01*
X107844590Y-57398989D01*
X107683661Y-57431000D01*
X107378139Y-57431000D01*
X107217210Y-57398989D01*
X107078490Y-57371396D01*
X106796226Y-57254479D01*
X106542195Y-57084741D01*
X106326159Y-56868705D01*
X106156421Y-56614674D01*
X106039504Y-56332410D01*
X105979900Y-56032760D01*
X105979900Y-55727240D01*
X106039504Y-55427590D01*
X106156421Y-55145326D01*
X106326159Y-54891295D01*
X106542195Y-54675259D01*
X106796226Y-54505521D01*
X107078490Y-54388604D01*
X107228315Y-54358802D01*
X107378139Y-54329000D01*
X107683661Y-54329000D01*
X107833485Y-54358802D01*
X107833485Y-54358802D01*
G37*
G36*
X123376424Y-54542760D02*
G01*
X123376427Y-54542761D01*
X123376428Y-54542761D01*
X123555692Y-54597140D01*
X123555695Y-54597142D01*
X123555696Y-54597142D01*
X123720903Y-54685446D01*
X123865712Y-54804288D01*
X123984554Y-54949097D01*
X124037739Y-55048600D01*
X124072860Y-55114307D01*
X124127239Y-55293571D01*
X124127240Y-55293575D01*
X124141000Y-55433282D01*
X124141000Y-56326717D01*
X124127240Y-56466426D01*
X124072859Y-56645695D01*
X123984554Y-56810903D01*
X123865712Y-56955712D01*
X123720903Y-57074554D01*
X123573831Y-57153165D01*
X123555693Y-57162860D01*
X123376429Y-57217239D01*
X123376428Y-57217239D01*
X123376425Y-57217240D01*
X123190000Y-57235601D01*
X123003576Y-57217240D01*
X123003573Y-57217239D01*
X123003572Y-57217239D01*
X122824308Y-57162860D01*
X122806170Y-57153165D01*
X122659098Y-57074554D01*
X122514289Y-56955712D01*
X122395447Y-56810903D01*
X122307140Y-56645692D01*
X122252760Y-56466430D01*
X122239000Y-56326718D01*
X122239000Y-55433283D01*
X122252760Y-55293576D01*
X122252761Y-55293572D01*
X122307140Y-55114308D01*
X122307143Y-55114303D01*
X122395446Y-54949097D01*
X122514288Y-54804288D01*
X122659097Y-54685446D01*
X122824303Y-54597142D01*
X122824304Y-54597142D01*
X122824307Y-54597140D01*
X123003571Y-54542761D01*
X123003572Y-54542761D01*
X123003575Y-54542760D01*
X123190000Y-54524399D01*
X123376424Y-54542760D01*
X123376424Y-54542760D01*
G37*
G36*
X151316424Y-54542760D02*
G01*
X151316427Y-54542761D01*
X151316428Y-54542761D01*
X151495692Y-54597140D01*
X151495695Y-54597142D01*
X151495696Y-54597142D01*
X151660903Y-54685446D01*
X151805712Y-54804288D01*
X151924554Y-54949097D01*
X151977739Y-55048600D01*
X152012860Y-55114307D01*
X152067239Y-55293571D01*
X152067240Y-55293575D01*
X152081000Y-55433282D01*
X152081000Y-56326717D01*
X152067240Y-56466426D01*
X152012859Y-56645695D01*
X151924554Y-56810903D01*
X151805712Y-56955712D01*
X151660903Y-57074554D01*
X151513831Y-57153165D01*
X151495693Y-57162860D01*
X151316429Y-57217239D01*
X151316428Y-57217239D01*
X151316425Y-57217240D01*
X151130000Y-57235601D01*
X150943576Y-57217240D01*
X150943573Y-57217239D01*
X150943572Y-57217239D01*
X150764308Y-57162860D01*
X150746170Y-57153165D01*
X150599098Y-57074554D01*
X150454289Y-56955712D01*
X150335447Y-56810903D01*
X150247140Y-56645692D01*
X150192760Y-56466430D01*
X150179000Y-56326718D01*
X150179000Y-55433283D01*
X150192760Y-55293576D01*
X150192761Y-55293572D01*
X150247140Y-55114308D01*
X150247143Y-55114303D01*
X150335446Y-54949097D01*
X150454288Y-54804288D01*
X150599097Y-54685446D01*
X150764303Y-54597142D01*
X150764304Y-54597142D01*
X150764307Y-54597140D01*
X150943571Y-54542761D01*
X150943572Y-54542761D01*
X150943575Y-54542760D01*
X151130000Y-54524399D01*
X151316424Y-54542760D01*
X151316424Y-54542760D01*
G37*
G36*
X148776424Y-54542760D02*
G01*
X148776427Y-54542761D01*
X148776428Y-54542761D01*
X148955692Y-54597140D01*
X148955695Y-54597142D01*
X148955696Y-54597142D01*
X149120903Y-54685446D01*
X149265712Y-54804288D01*
X149384554Y-54949097D01*
X149437739Y-55048600D01*
X149472860Y-55114307D01*
X149527239Y-55293571D01*
X149527240Y-55293575D01*
X149541000Y-55433282D01*
X149541000Y-56326717D01*
X149527240Y-56466426D01*
X149472859Y-56645695D01*
X149384554Y-56810903D01*
X149265712Y-56955712D01*
X149120903Y-57074554D01*
X148973831Y-57153165D01*
X148955693Y-57162860D01*
X148776429Y-57217239D01*
X148776428Y-57217239D01*
X148776425Y-57217240D01*
X148590000Y-57235601D01*
X148403576Y-57217240D01*
X148403573Y-57217239D01*
X148403572Y-57217239D01*
X148224308Y-57162860D01*
X148206170Y-57153165D01*
X148059098Y-57074554D01*
X147914289Y-56955712D01*
X147795447Y-56810903D01*
X147707140Y-56645692D01*
X147652760Y-56466430D01*
X147639000Y-56326718D01*
X147639000Y-55433283D01*
X147652760Y-55293576D01*
X147652761Y-55293572D01*
X147707140Y-55114308D01*
X147707143Y-55114303D01*
X147795446Y-54949097D01*
X147914288Y-54804288D01*
X148059097Y-54685446D01*
X148224303Y-54597142D01*
X148224304Y-54597142D01*
X148224307Y-54597140D01*
X148403571Y-54542761D01*
X148403572Y-54542761D01*
X148403575Y-54542760D01*
X148590000Y-54524399D01*
X148776424Y-54542760D01*
X148776424Y-54542760D01*
G37*
G36*
X146236424Y-54542760D02*
G01*
X146236427Y-54542761D01*
X146236428Y-54542761D01*
X146415692Y-54597140D01*
X146415695Y-54597142D01*
X146415696Y-54597142D01*
X146580903Y-54685446D01*
X146725712Y-54804288D01*
X146844554Y-54949097D01*
X146897739Y-55048600D01*
X146932860Y-55114307D01*
X146987239Y-55293571D01*
X146987240Y-55293575D01*
X147001000Y-55433282D01*
X147001000Y-56326717D01*
X146987240Y-56466426D01*
X146932859Y-56645695D01*
X146844554Y-56810903D01*
X146725712Y-56955712D01*
X146580903Y-57074554D01*
X146433831Y-57153165D01*
X146415693Y-57162860D01*
X146236429Y-57217239D01*
X146236428Y-57217239D01*
X146236425Y-57217240D01*
X146050000Y-57235601D01*
X145863576Y-57217240D01*
X145863573Y-57217239D01*
X145863572Y-57217239D01*
X145684308Y-57162860D01*
X145666170Y-57153165D01*
X145519098Y-57074554D01*
X145374289Y-56955712D01*
X145255447Y-56810903D01*
X145167140Y-56645692D01*
X145112760Y-56466430D01*
X145099000Y-56326718D01*
X145099000Y-55433283D01*
X145112760Y-55293576D01*
X145112761Y-55293572D01*
X145167140Y-55114308D01*
X145167143Y-55114303D01*
X145255446Y-54949097D01*
X145374288Y-54804288D01*
X145519097Y-54685446D01*
X145684303Y-54597142D01*
X145684304Y-54597142D01*
X145684307Y-54597140D01*
X145863571Y-54542761D01*
X145863572Y-54542761D01*
X145863575Y-54542760D01*
X146050000Y-54524399D01*
X146236424Y-54542760D01*
X146236424Y-54542760D01*
G37*
G36*
X143696424Y-54542760D02*
G01*
X143696427Y-54542761D01*
X143696428Y-54542761D01*
X143875692Y-54597140D01*
X143875695Y-54597142D01*
X143875696Y-54597142D01*
X144040903Y-54685446D01*
X144185712Y-54804288D01*
X144304554Y-54949097D01*
X144357739Y-55048600D01*
X144392860Y-55114307D01*
X144447239Y-55293571D01*
X144447240Y-55293575D01*
X144461000Y-55433282D01*
X144461000Y-56326717D01*
X144447240Y-56466426D01*
X144392859Y-56645695D01*
X144304554Y-56810903D01*
X144185712Y-56955712D01*
X144040903Y-57074554D01*
X143893831Y-57153165D01*
X143875693Y-57162860D01*
X143696429Y-57217239D01*
X143696428Y-57217239D01*
X143696425Y-57217240D01*
X143510000Y-57235601D01*
X143323576Y-57217240D01*
X143323573Y-57217239D01*
X143323572Y-57217239D01*
X143144308Y-57162860D01*
X143126170Y-57153165D01*
X142979098Y-57074554D01*
X142834289Y-56955712D01*
X142715447Y-56810903D01*
X142627140Y-56645692D01*
X142572760Y-56466430D01*
X142559000Y-56326718D01*
X142559000Y-55433283D01*
X142572760Y-55293576D01*
X142572761Y-55293572D01*
X142627140Y-55114308D01*
X142627143Y-55114303D01*
X142715446Y-54949097D01*
X142834288Y-54804288D01*
X142979097Y-54685446D01*
X143144303Y-54597142D01*
X143144304Y-54597142D01*
X143144307Y-54597140D01*
X143323571Y-54542761D01*
X143323572Y-54542761D01*
X143323575Y-54542760D01*
X143510000Y-54524399D01*
X143696424Y-54542760D01*
X143696424Y-54542760D01*
G37*
G36*
X141156424Y-54542760D02*
G01*
X141156427Y-54542761D01*
X141156428Y-54542761D01*
X141335692Y-54597140D01*
X141335695Y-54597142D01*
X141335696Y-54597142D01*
X141500903Y-54685446D01*
X141645712Y-54804288D01*
X141764554Y-54949097D01*
X141817739Y-55048600D01*
X141852860Y-55114307D01*
X141907239Y-55293571D01*
X141907240Y-55293575D01*
X141921000Y-55433282D01*
X141921000Y-56326717D01*
X141907240Y-56466426D01*
X141852859Y-56645695D01*
X141764554Y-56810903D01*
X141645712Y-56955712D01*
X141500903Y-57074554D01*
X141353831Y-57153165D01*
X141335693Y-57162860D01*
X141156429Y-57217239D01*
X141156428Y-57217239D01*
X141156425Y-57217240D01*
X140970000Y-57235601D01*
X140783576Y-57217240D01*
X140783573Y-57217239D01*
X140783572Y-57217239D01*
X140604308Y-57162860D01*
X140586170Y-57153165D01*
X140439098Y-57074554D01*
X140294289Y-56955712D01*
X140175447Y-56810903D01*
X140087140Y-56645692D01*
X140032760Y-56466430D01*
X140019000Y-56326718D01*
X140019000Y-55433283D01*
X140032760Y-55293576D01*
X140032761Y-55293572D01*
X140087140Y-55114308D01*
X140087143Y-55114303D01*
X140175446Y-54949097D01*
X140294288Y-54804288D01*
X140439097Y-54685446D01*
X140604303Y-54597142D01*
X140604304Y-54597142D01*
X140604307Y-54597140D01*
X140783571Y-54542761D01*
X140783572Y-54542761D01*
X140783575Y-54542760D01*
X140970000Y-54524399D01*
X141156424Y-54542760D01*
X141156424Y-54542760D01*
G37*
G36*
X138616424Y-54542760D02*
G01*
X138616427Y-54542761D01*
X138616428Y-54542761D01*
X138795692Y-54597140D01*
X138795695Y-54597142D01*
X138795696Y-54597142D01*
X138960903Y-54685446D01*
X139105712Y-54804288D01*
X139224554Y-54949097D01*
X139277739Y-55048600D01*
X139312860Y-55114307D01*
X139367239Y-55293571D01*
X139367240Y-55293575D01*
X139381000Y-55433282D01*
X139381000Y-56326717D01*
X139367240Y-56466426D01*
X139312859Y-56645695D01*
X139224554Y-56810903D01*
X139105712Y-56955712D01*
X138960903Y-57074554D01*
X138813831Y-57153165D01*
X138795693Y-57162860D01*
X138616429Y-57217239D01*
X138616428Y-57217239D01*
X138616425Y-57217240D01*
X138430000Y-57235601D01*
X138243576Y-57217240D01*
X138243573Y-57217239D01*
X138243572Y-57217239D01*
X138064308Y-57162860D01*
X138046170Y-57153165D01*
X137899098Y-57074554D01*
X137754289Y-56955712D01*
X137635447Y-56810903D01*
X137547140Y-56645692D01*
X137492760Y-56466430D01*
X137479000Y-56326718D01*
X137479000Y-55433283D01*
X137492760Y-55293576D01*
X137492761Y-55293572D01*
X137547140Y-55114308D01*
X137547143Y-55114303D01*
X137635446Y-54949097D01*
X137754288Y-54804288D01*
X137899097Y-54685446D01*
X138064303Y-54597142D01*
X138064304Y-54597142D01*
X138064307Y-54597140D01*
X138243571Y-54542761D01*
X138243572Y-54542761D01*
X138243575Y-54542760D01*
X138430000Y-54524399D01*
X138616424Y-54542760D01*
X138616424Y-54542760D01*
G37*
G36*
X136076424Y-54542760D02*
G01*
X136076427Y-54542761D01*
X136076428Y-54542761D01*
X136255692Y-54597140D01*
X136255695Y-54597142D01*
X136255696Y-54597142D01*
X136420903Y-54685446D01*
X136565712Y-54804288D01*
X136684554Y-54949097D01*
X136737739Y-55048600D01*
X136772860Y-55114307D01*
X136827239Y-55293571D01*
X136827240Y-55293575D01*
X136841000Y-55433282D01*
X136841000Y-56326717D01*
X136827240Y-56466426D01*
X136772859Y-56645695D01*
X136684554Y-56810903D01*
X136565712Y-56955712D01*
X136420903Y-57074554D01*
X136273831Y-57153165D01*
X136255693Y-57162860D01*
X136076429Y-57217239D01*
X136076428Y-57217239D01*
X136076425Y-57217240D01*
X135890000Y-57235601D01*
X135703576Y-57217240D01*
X135703573Y-57217239D01*
X135703572Y-57217239D01*
X135524308Y-57162860D01*
X135506170Y-57153165D01*
X135359098Y-57074554D01*
X135214289Y-56955712D01*
X135095447Y-56810903D01*
X135007140Y-56645692D01*
X134952760Y-56466430D01*
X134939000Y-56326718D01*
X134939000Y-55433283D01*
X134952760Y-55293576D01*
X134952761Y-55293572D01*
X135007140Y-55114308D01*
X135007143Y-55114303D01*
X135095446Y-54949097D01*
X135214288Y-54804288D01*
X135359097Y-54685446D01*
X135524303Y-54597142D01*
X135524304Y-54597142D01*
X135524307Y-54597140D01*
X135703571Y-54542761D01*
X135703572Y-54542761D01*
X135703575Y-54542760D01*
X135890000Y-54524399D01*
X136076424Y-54542760D01*
X136076424Y-54542760D01*
G37*
G36*
X133536424Y-54542760D02*
G01*
X133536427Y-54542761D01*
X133536428Y-54542761D01*
X133715692Y-54597140D01*
X133715695Y-54597142D01*
X133715696Y-54597142D01*
X133880903Y-54685446D01*
X134025712Y-54804288D01*
X134144554Y-54949097D01*
X134197739Y-55048600D01*
X134232860Y-55114307D01*
X134287239Y-55293571D01*
X134287240Y-55293575D01*
X134301000Y-55433282D01*
X134301000Y-56326717D01*
X134287240Y-56466426D01*
X134232859Y-56645695D01*
X134144554Y-56810903D01*
X134025712Y-56955712D01*
X133880903Y-57074554D01*
X133733831Y-57153165D01*
X133715693Y-57162860D01*
X133536429Y-57217239D01*
X133536428Y-57217239D01*
X133536425Y-57217240D01*
X133350000Y-57235601D01*
X133163576Y-57217240D01*
X133163573Y-57217239D01*
X133163572Y-57217239D01*
X132984308Y-57162860D01*
X132966170Y-57153165D01*
X132819098Y-57074554D01*
X132674289Y-56955712D01*
X132555447Y-56810903D01*
X132467140Y-56645692D01*
X132412760Y-56466430D01*
X132399000Y-56326718D01*
X132399000Y-55433283D01*
X132412760Y-55293576D01*
X132412761Y-55293572D01*
X132467140Y-55114308D01*
X132467143Y-55114303D01*
X132555446Y-54949097D01*
X132674288Y-54804288D01*
X132819097Y-54685446D01*
X132984303Y-54597142D01*
X132984304Y-54597142D01*
X132984307Y-54597140D01*
X133163571Y-54542761D01*
X133163572Y-54542761D01*
X133163575Y-54542760D01*
X133350000Y-54524399D01*
X133536424Y-54542760D01*
X133536424Y-54542760D01*
G37*
G36*
X128456424Y-54542760D02*
G01*
X128456427Y-54542761D01*
X128456428Y-54542761D01*
X128635692Y-54597140D01*
X128635695Y-54597142D01*
X128635696Y-54597142D01*
X128800903Y-54685446D01*
X128945712Y-54804288D01*
X129064554Y-54949097D01*
X129117739Y-55048600D01*
X129152860Y-55114307D01*
X129207239Y-55293571D01*
X129207240Y-55293575D01*
X129221000Y-55433282D01*
X129221000Y-56326717D01*
X129207240Y-56466426D01*
X129152859Y-56645695D01*
X129064554Y-56810903D01*
X128945712Y-56955712D01*
X128800903Y-57074554D01*
X128653831Y-57153165D01*
X128635693Y-57162860D01*
X128456429Y-57217239D01*
X128456428Y-57217239D01*
X128456425Y-57217240D01*
X128270000Y-57235601D01*
X128083576Y-57217240D01*
X128083573Y-57217239D01*
X128083572Y-57217239D01*
X127904308Y-57162860D01*
X127886170Y-57153165D01*
X127739098Y-57074554D01*
X127594289Y-56955712D01*
X127475447Y-56810903D01*
X127387140Y-56645692D01*
X127332760Y-56466430D01*
X127319000Y-56326718D01*
X127319000Y-55433283D01*
X127332760Y-55293576D01*
X127332761Y-55293572D01*
X127387140Y-55114308D01*
X127387143Y-55114303D01*
X127475446Y-54949097D01*
X127594288Y-54804288D01*
X127739097Y-54685446D01*
X127904303Y-54597142D01*
X127904304Y-54597142D01*
X127904307Y-54597140D01*
X128083571Y-54542761D01*
X128083572Y-54542761D01*
X128083575Y-54542760D01*
X128270000Y-54524399D01*
X128456424Y-54542760D01*
X128456424Y-54542760D01*
G37*
G36*
X130996424Y-54542760D02*
G01*
X130996427Y-54542761D01*
X130996428Y-54542761D01*
X131175692Y-54597140D01*
X131175695Y-54597142D01*
X131175696Y-54597142D01*
X131340903Y-54685446D01*
X131485712Y-54804288D01*
X131604554Y-54949097D01*
X131657739Y-55048600D01*
X131692860Y-55114307D01*
X131747239Y-55293571D01*
X131747240Y-55293575D01*
X131761000Y-55433282D01*
X131761000Y-56326717D01*
X131747240Y-56466426D01*
X131692859Y-56645695D01*
X131604554Y-56810903D01*
X131485712Y-56955712D01*
X131340903Y-57074554D01*
X131193831Y-57153165D01*
X131175693Y-57162860D01*
X130996429Y-57217239D01*
X130996428Y-57217239D01*
X130996425Y-57217240D01*
X130810000Y-57235601D01*
X130623576Y-57217240D01*
X130623573Y-57217239D01*
X130623572Y-57217239D01*
X130444308Y-57162860D01*
X130426170Y-57153165D01*
X130279098Y-57074554D01*
X130134289Y-56955712D01*
X130015447Y-56810903D01*
X129927140Y-56645692D01*
X129872760Y-56466430D01*
X129859000Y-56326718D01*
X129859000Y-55433283D01*
X129872760Y-55293576D01*
X129872761Y-55293572D01*
X129927140Y-55114308D01*
X129927143Y-55114303D01*
X130015446Y-54949097D01*
X130134288Y-54804288D01*
X130279097Y-54685446D01*
X130444303Y-54597142D01*
X130444304Y-54597142D01*
X130444307Y-54597140D01*
X130623571Y-54542761D01*
X130623572Y-54542761D01*
X130623575Y-54542760D01*
X130810000Y-54524399D01*
X130996424Y-54542760D01*
X130996424Y-54542760D01*
G37*
G36*
X125916424Y-54542760D02*
G01*
X125916427Y-54542761D01*
X125916428Y-54542761D01*
X126095692Y-54597140D01*
X126095695Y-54597142D01*
X126095696Y-54597142D01*
X126260903Y-54685446D01*
X126405712Y-54804288D01*
X126524554Y-54949097D01*
X126577739Y-55048600D01*
X126612860Y-55114307D01*
X126667239Y-55293571D01*
X126667240Y-55293575D01*
X126681000Y-55433282D01*
X126681000Y-56326717D01*
X126667240Y-56466426D01*
X126612859Y-56645695D01*
X126524554Y-56810903D01*
X126405712Y-56955712D01*
X126260903Y-57074554D01*
X126113831Y-57153165D01*
X126095693Y-57162860D01*
X125916429Y-57217239D01*
X125916428Y-57217239D01*
X125916425Y-57217240D01*
X125730000Y-57235601D01*
X125543576Y-57217240D01*
X125543573Y-57217239D01*
X125543572Y-57217239D01*
X125364308Y-57162860D01*
X125346170Y-57153165D01*
X125199098Y-57074554D01*
X125054289Y-56955712D01*
X124935447Y-56810903D01*
X124847140Y-56645692D01*
X124792760Y-56466430D01*
X124779000Y-56326718D01*
X124779000Y-55433283D01*
X124792760Y-55293576D01*
X124792761Y-55293572D01*
X124847140Y-55114308D01*
X124847143Y-55114303D01*
X124935446Y-54949097D01*
X125054288Y-54804288D01*
X125199097Y-54685446D01*
X125364303Y-54597142D01*
X125364304Y-54597142D01*
X125364307Y-54597140D01*
X125543571Y-54542761D01*
X125543572Y-54542761D01*
X125543575Y-54542760D01*
X125730000Y-54524399D01*
X125916424Y-54542760D01*
X125916424Y-54542760D01*
G37*
G36*
X120836424Y-54542760D02*
G01*
X120836427Y-54542761D01*
X120836428Y-54542761D01*
X121015692Y-54597140D01*
X121015695Y-54597142D01*
X121015696Y-54597142D01*
X121180903Y-54685446D01*
X121325712Y-54804288D01*
X121444554Y-54949097D01*
X121497739Y-55048600D01*
X121532860Y-55114307D01*
X121587239Y-55293571D01*
X121587240Y-55293575D01*
X121601000Y-55433282D01*
X121601000Y-56326717D01*
X121587240Y-56466426D01*
X121532859Y-56645695D01*
X121444554Y-56810903D01*
X121325712Y-56955712D01*
X121180903Y-57074554D01*
X121033831Y-57153165D01*
X121015693Y-57162860D01*
X120836429Y-57217239D01*
X120836428Y-57217239D01*
X120836425Y-57217240D01*
X120650000Y-57235601D01*
X120463576Y-57217240D01*
X120463573Y-57217239D01*
X120463572Y-57217239D01*
X120284308Y-57162860D01*
X120266170Y-57153165D01*
X120119098Y-57074554D01*
X119974289Y-56955712D01*
X119855447Y-56810903D01*
X119767140Y-56645692D01*
X119712760Y-56466430D01*
X119699000Y-56326718D01*
X119699000Y-55433283D01*
X119712760Y-55293576D01*
X119712761Y-55293572D01*
X119767140Y-55114308D01*
X119767143Y-55114303D01*
X119855446Y-54949097D01*
X119974288Y-54804288D01*
X120119097Y-54685446D01*
X120284303Y-54597142D01*
X120284304Y-54597142D01*
X120284307Y-54597140D01*
X120463571Y-54542761D01*
X120463572Y-54542761D01*
X120463575Y-54542760D01*
X120650000Y-54524399D01*
X120836424Y-54542760D01*
X120836424Y-54542760D01*
G37*
G36*
X118296424Y-54542760D02*
G01*
X118296427Y-54542761D01*
X118296428Y-54542761D01*
X118475692Y-54597140D01*
X118475695Y-54597142D01*
X118475696Y-54597142D01*
X118640903Y-54685446D01*
X118785712Y-54804288D01*
X118904554Y-54949097D01*
X118957739Y-55048600D01*
X118992860Y-55114307D01*
X119047239Y-55293571D01*
X119047240Y-55293575D01*
X119061000Y-55433282D01*
X119061000Y-56326717D01*
X119047240Y-56466426D01*
X118992859Y-56645695D01*
X118904554Y-56810903D01*
X118785712Y-56955712D01*
X118640903Y-57074554D01*
X118493831Y-57153165D01*
X118475693Y-57162860D01*
X118296429Y-57217239D01*
X118296428Y-57217239D01*
X118296425Y-57217240D01*
X118110000Y-57235601D01*
X117923576Y-57217240D01*
X117923573Y-57217239D01*
X117923572Y-57217239D01*
X117744308Y-57162860D01*
X117726170Y-57153165D01*
X117579098Y-57074554D01*
X117434289Y-56955712D01*
X117315447Y-56810903D01*
X117227140Y-56645692D01*
X117172760Y-56466430D01*
X117159000Y-56326718D01*
X117159000Y-55433283D01*
X117172760Y-55293576D01*
X117172761Y-55293572D01*
X117227140Y-55114308D01*
X117227143Y-55114303D01*
X117315446Y-54949097D01*
X117434288Y-54804288D01*
X117579097Y-54685446D01*
X117744303Y-54597142D01*
X117744304Y-54597142D01*
X117744307Y-54597140D01*
X117923571Y-54542761D01*
X117923572Y-54542761D01*
X117923575Y-54542760D01*
X118110000Y-54524399D01*
X118296424Y-54542760D01*
X118296424Y-54542760D01*
G37*
G36*
X115756424Y-54542760D02*
G01*
X115756427Y-54542761D01*
X115756428Y-54542761D01*
X115935692Y-54597140D01*
X115935695Y-54597142D01*
X115935696Y-54597142D01*
X116100903Y-54685446D01*
X116245712Y-54804288D01*
X116364554Y-54949097D01*
X116417739Y-55048600D01*
X116452860Y-55114307D01*
X116507239Y-55293571D01*
X116507240Y-55293575D01*
X116521000Y-55433282D01*
X116521000Y-56326717D01*
X116507240Y-56466426D01*
X116452859Y-56645695D01*
X116364554Y-56810903D01*
X116245712Y-56955712D01*
X116100903Y-57074554D01*
X115953831Y-57153165D01*
X115935693Y-57162860D01*
X115756429Y-57217239D01*
X115756428Y-57217239D01*
X115756425Y-57217240D01*
X115570000Y-57235601D01*
X115383576Y-57217240D01*
X115383573Y-57217239D01*
X115383572Y-57217239D01*
X115204308Y-57162860D01*
X115186170Y-57153165D01*
X115039098Y-57074554D01*
X114894289Y-56955712D01*
X114775447Y-56810903D01*
X114687140Y-56645692D01*
X114632760Y-56466430D01*
X114619000Y-56326718D01*
X114619000Y-55433283D01*
X114632760Y-55293576D01*
X114632761Y-55293572D01*
X114687140Y-55114308D01*
X114687143Y-55114303D01*
X114775446Y-54949097D01*
X114894288Y-54804288D01*
X115039097Y-54685446D01*
X115204303Y-54597142D01*
X115204304Y-54597142D01*
X115204307Y-54597140D01*
X115383571Y-54542761D01*
X115383572Y-54542761D01*
X115383575Y-54542760D01*
X115570000Y-54524399D01*
X115756424Y-54542760D01*
X115756424Y-54542760D01*
G37*
G36*
X113981000Y-57231000D02*
G01*
X112079000Y-57231000D01*
X112079000Y-54529000D01*
X113981000Y-54529000D01*
X113981000Y-57231000D01*
X113981000Y-57231000D01*
G37*
M02*
